SplineFontDB: 3.2
FontName: D-DIN-PRO-Condensed-Heavy
FullName: D-DIN-PRO-Condensed-Heavy
FamilyName: D-DIN-PRO-Condensed
Weight: Heavy
Copyright: Copyright (c) CyberFei. All rights reserved
Version: 1.1.0
ItalicAngle: 0
UnderlinePosition: -150
UnderlineWidth: 50
Ascent: 831
Descent: 169
InvalidEm: 0
sfntRevision: 0x0001199a
LayerCount: 2
Layer: 0 0 "Back" 1
Layer: 1 0 "Fore" 0
XUID: [1021 868 -1451673819 17771]
StyleMap: 0x0020
FSType: 4
OS2Version: 3
OS2_WeightWidthSlopeOnly: 0
OS2_UseTypoMetrics: 0
CreationTime: 1462909513
ModificationTime: 1778060078
PfmFamily: 17
TTFWeight: 900
TTFWidth: 3
LineGap: 86
VLineGap: 0
Panose: 2 11 8 6 3 2 2 3 2 4
OS2TypoAscent: 831
OS2TypoAOffset: 0
OS2TypoDescent: -169
OS2TypoDOffset: 0
OS2TypoLinegap: 86
OS2WinAscent: 902
OS2WinAOffset: 0
OS2WinDescent: 184
OS2WinDOffset: 0
HheadAscent: 831
HheadAOffset: 0
HheadDescent: -169
HheadDOffset: 0
OS2SubXSize: 650
OS2SubYSize: 600
OS2SubXOff: 0
OS2SubYOff: 75
OS2SupXSize: 650
OS2SupYSize: 600
OS2SupXOff: 0
OS2SupYOff: 350
OS2StrikeYSize: 50
OS2StrikeYPos: 316
OS2CapHeight: 690
OS2XHeight: 528
OS2Vendor: 'MONO'
OS2CodePages: 20000001.00000000
OS2UnicodeRanges: 8000006f.4000000a.00000000.00000000
Lookup: 1 0 0 "'rtla' Right to Left Alternates lookup 0" { "'rtla' Right to Left Alternates lookup 0 subtable"  } ['rtla' ('DFLT' <'dflt' > ) ]
Lookup: 1 0 0 "'sups' Superscript lookup 1" { "'sups' Superscript lookup 1 subtable" ("superior") } ['sups' ('DFLT' <'dflt' > ) ]
Lookup: 4 0 0 "'frac' Diagonal Fractions lookup 2" { "'frac' Diagonal Fractions lookup 2 subtable"  } ['frac' ('DFLT' <'dflt' > ) ]
Lookup: 4 0 0 "'dlig' Discretionary Ligatures in Latin lookup 3" { "'dlig' Discretionary Ligatures in Latin lookup 3 subtable"  } ['dlig' ('latn' <'dflt' > ) ]
Lookup: 4 0 1 "'liga' Standard Ligatures in Latin lookup 4" { "'liga' Standard Ligatures in Latin lookup 4 subtable"  } ['liga' ('latn' <'dflt' > ) ]

StartChar: .notdef
Encoding: 65536 -1 0
Width: 595
GlyphClass: 1
Flags: MW
HStem: 1.17969 66.5<166.637 444.986 166.637 511.486> 624.38 66.5<166.637 444.986 166.637 166.637>
VStem: 100.137 66.5<67.6797 67.6797 67.6797 624.38> 444.986 66.5<67.6797 624.38 624.38 624.38>
LayerCount: 2
Fore
SplineSet
100.13671875 690.879882812 m 1
 511.486328125 690.879882812 l 1
 511.486328125 1.1796875 l 1
 100.13671875 1.1796875 l 1
 100.13671875 690.879882812 l 1
166.63671875 67.6796875 m 1
 444.986328125 67.6796875 l 1
 444.986328125 624.379882812 l 1
 166.63671875 624.379882812 l 1
 166.63671875 67.6796875 l 1
EndSplineSet
EndChar

StartChar: exclam
Encoding: 33 33 3
Width: 219
GlyphClass: 2
Flags: MW
HStem: 1.17969 154.85<50.7363 188.486 50.7363 188.486> 670.88 20G<42.2402 197.933 197.933 197.933>
VStem: 50.7363 137.75<1.17969 156.029 1.17969 156.029> 66.7871 106.599<210.18 210.18>
LayerCount: 2
Fore
SplineSet
197.932617188 690.879882812 m 1xd0
 173.385742188 210.1796875 l 1
 66.787109375 210.1796875 l 1
 42.240234375 690.879882812 l 1
 197.932617188 690.879882812 l 1xd0
50.736328125 156.029296875 m 1xe0
 188.486328125 156.029296875 l 1
 188.486328125 1.1796875 l 1
 50.736328125 1.1796875 l 1
 50.736328125 156.029296875 l 1xe0
EndSplineSet
EndChar

StartChar: quotedbl
Encoding: 34 34 4
Width: 356
GlyphClass: 2
Flags: MW
HStem: 379.279 311.601<31.7363 173.286 31.7363 173.286 31.7363 202.736 202.736 344.286>
VStem: 31.7363 141.55<379.279 690.88 379.279 690.88> 202.736 141.55<379.279 690.88 379.279 690.88>
LayerCount: 2
Fore
SplineSet
31.736328125 690.879882812 m 1
 173.286132812 690.879882812 l 1
 173.286132812 379.279296875 l 1
 31.736328125 379.279296875 l 1
 31.736328125 690.879882812 l 1
202.736328125 690.879882812 m 1
 344.286132812 690.879882812 l 1
 344.286132812 379.279296875 l 1
 202.736328125 379.279296875 l 1
 202.736328125 690.879882812 l 1
EndSplineSet
EndChar

StartChar: numbersign
Encoding: 35 35 5
Width: 463
GlyphClass: 2
Flags: MW
HStem: 203.529 112.101<17.4863 74.5283 17.4863 86.627 207.465 246.479 17.4863 196.312 379.415 445.937> 390.68 112.1<36.4863 94.458 36.4863 105.653 36.4863 215.296 227.352 265.458 398.447 463.986> 670.88 20G<125.603 246.352 246.352 246.352 296.525 418.397 418.397 418.397>
LayerCount: 2
Fore
SplineSet
463.986328125 502.779296875 m 1
 463.986328125 390.6796875 l 1
 387.24609375 390.6796875 l 1
 379.415039062 315.629882812 l 1
 445.936523438 315.629882812 l 1
 445.936523438 203.529296875 l 1
 367.3125 203.529296875 l 1
 346.412109375 1.1796875 l 1
 225.578125 1.1796875 l 1
 246.478515625 203.529296875 l 1
 196.3125 203.529296875 l 1
 175.412109375 1.1796875 l 1
 53.6279296875 1.1796875 l 1
 74.5283203125 203.529296875 l 1
 17.486328125 203.529296875 l 1
 17.486328125 315.629882812 l 1
 86.626953125 315.629882812 l 1
 94.4580078125 390.6796875 l 1
 36.486328125 390.6796875 l 1
 36.486328125 502.779296875 l 1
 105.653320312 502.779296875 l 1
 125.602539062 690.879882812 l 1
 246.3515625 690.879882812 l 1
 227.3515625 502.779296875 l 1
 277.525390625 502.779296875 l 1
 296.525390625 690.879882812 l 1
 418.397460938 690.879882812 l 1
 398.447265625 502.779296875 l 1
 463.986328125 502.779296875 l 1
257.626953125 315.629882812 m 1
 265.458007812 390.6796875 l 1
 215.295898438 390.6796875 l 1
 207.46484375 315.629882812 l 1
 257.626953125 315.629882812 l 1
EndSplineSet
EndChar

StartChar: dollar
Encoding: 36 36 6
Width: 430
GlyphClass: 2
Flags: MW
VStem: 27.9365 147.25<477.151 508.116> 163.786 114.95<662.338 752.63 656.825 752.63> 248.338 147.249<204.114 224.228>
LayerCount: 2
Fore
SplineSet
146.4296875 302.834960938 m 2xa0
 58.2060546875 341.883789062 27.9365234375 396.85546875 27.9365234375 483.779296875 c 0xa0
 27.9365234375 532.453125 41.13671875 574.040039062 68.552734375 606.440429688 c 0
 92.8349609375 635.137695312 125.126953125 653.774414062 163.786132812 662.337890625 c 1
 163.786132812 752.629882812 l 1
 278.736328125 752.629882812 l 1
 278.736328125 656.825195312 l 1x40
 323.336914062 640.751953125 385.592773438 596.806640625 388.9296875 476.662109375 c 2
 389.41796875 459.080078125 l 1
 248.76953125 459.080078125 l 1
 248.069335938 486.35546875 247.512695312 508.021484375 238.204101562 522.544921875 c 0
 234.145507812 528.877929688 227.580078125 533.1796875 212.236328125 533.1796875 c 0
 193.866210938 533.1796875 175.186523438 528.661132812 175.186523438 489.479492188 c 0
 175.186523438 464.823242188 182.181640625 446.202148438 219.584960938 431.240234375 c 2
 264.3359375 413.149414062 l 2
 357.759765625 374.6796875 395.586914062 316.5 395.586914062 218.729492188 c 0
 395.586914062 170.619140625 384.869140625 129.682617188 362.083007812 97.2841796875 c 0
 341.80859375 68.4560546875 313.481445312 48.423828125 278.739257812 37.546875 c 1
 278.739257812 -41.5703125 l 1
 163.7890625 -41.5703125 l 1
 163.7890625 29.8955078125 l 1
 109.795898438 38.970703125 25.75390625 76.2763671875 22.244140625 220.206054688 c 2
 21.8173828125 237.729492188 l 1
 164.875976562 237.729492188 l 1
 166.223632812 210.092773438 167.311523438 187.779296875 178.861328125 172.50390625 c 0
 185.092773438 164.26171875 193.477539062 159.830078125 208.438476562 159.830078125 c 0
 224.760742188 159.830078125 233.079101562 164.309570312 238.198242188 170.840820312 c 0
 243.666992188 177.818359375 248.337890625 192.34765625 248.337890625 215.879882812 c 0
 248.337890625 232.576171875 244.17578125 244.037109375 237.153320312 252.375 c 0
 229.567382812 261.3828125 215.069335938 271.784179688 192.897460938 281.971679688 c 0
 192.762695312 282.032226562 146.4296875 302.834960938 146.4296875 302.834960938 c 2xa0
105.837890625 673.779296875 m 1024
EndSplineSet
EndChar

StartChar: percent
Encoding: 37 37 7
Width: 749
GlyphClass: 2
Flags: MW
HStem: -5.4707 21G<592.704 670.46> 678.479 20G<455.905 570.308 570.308 570.308>
VStem: 33.6367 112.101<380.083 388.779 388.779 561.68> 167.588 111.148<388.779 561.68 561.68 569.615> 487.738 112.101<120.734 129.43 129.43 302.33> 621.688 111.149<129.43 302.33 302.33 310.265>
LayerCount: 2
Fore
SplineSet
455.905273438 698.479492188 m 1
 570.307617188 698.479492188 l 1
 310.568359375 1.1796875 l 1
 196.166015625 1.1796875 l 1
 455.905273438 698.479492188 l 1
156.186523438 253.879882812 m 0
 121.018554688 253.879882812 33.63671875 261.545898438 33.63671875 377.379882812 c 2
 33.63671875 573.080078125 l 2
 33.63671875 599.361328125 35.8427734375 696.580078125 156.186523438 696.580078125 c 0
 191.354492188 696.580078125 278.736328125 688.9140625 278.736328125 573.080078125 c 2
 278.736328125 377.379882812 l 2
 278.736328125 351.09765625 276.530273438 253.879882812 156.186523438 253.879882812 c 0
167.587890625 388.779296875 m 2
 167.587890625 561.6796875 l 2
 167.587890625 577.55078125 165.473632812 587.643554688 164.33984375 590.041992188 c 2
 164.33984375 590.041992188 164.166015625 590.377929688 164.165039062 590.37890625 c 2
 164.165039062 590.37890625 163.98046875 592.080078125 156.188476562 592.080078125 c 0
 151.25 592.080078125 149.251953125 591.025390625 148.998046875 590.875 c 0
 147.71875 587.963867188 145.737304688 580.439453125 145.737304688 561.6796875 c 2
 145.737304688 388.779296875 l 2
 145.737304688 371.387695312 148.421875 361.073242188 149.178710938 359.633789062 c 0
 149.178710938 359.337890625 149.681640625 358.379882812 156.1875 358.379882812 c 0
 163.641601562 358.379882812 163.892578125 360.126953125 163.9609375 360.236328125 c 0
 164.7109375 361.448242188 167.587890625 371.423828125 167.587890625 388.779296875 c 2
610.288085938 -5.470703125 m 0
 575.120117188 -5.470703125 487.73828125 2.1953125 487.73828125 118.029296875 c 2
 487.73828125 313.729492188 l 2
 487.73828125 340.01171875 489.944335938 437.229492188 610.288085938 437.229492188 c 0
 645.456054688 437.229492188 732.837890625 429.563476562 732.837890625 313.729492188 c 2
 732.837890625 118.029296875 l 2
 732.837890625 91.748046875 730.631835938 -5.470703125 610.288085938 -5.470703125 c 0
621.688476562 129.4296875 m 2
 621.688476562 302.330078125 l 2
 621.688476562 318.200195312 619.573242188 328.29296875 618.440429688 330.69140625 c 2
 618.440429688 330.69140625 618.26953125 331.021484375 618.264648438 331.029296875 c 2
 618.264648438 331.029296875 618.069335938 332.729492188 610.2890625 332.729492188 c 0
 605.3515625 332.729492188 603.353515625 331.674804688 603.100585938 331.524414062 c 0
 601.8203125 328.614257812 599.838867188 321.08984375 599.838867188 302.330078125 c 2
 599.838867188 129.4296875 l 2
 599.838867188 112.038085938 602.524414062 101.72265625 603.280273438 100.284179688 c 0
 603.280273438 99.98828125 603.783203125 99.029296875 610.2890625 99.029296875 c 0
 617.744140625 99.029296875 617.995117188 100.77734375 618.0625 100.88671875 c 0
 618.811523438 102.096679688 621.688476562 112.073242188 621.688476562 129.4296875 c 2
EndSplineSet
EndChar

StartChar: ampersand
Encoding: 38 38 8
Width: 512
GlyphClass: 2
Flags: MW
HStem: -8.32324 135.851<206.353 228.079 206.353 243.371> 680.38 20G<218.056 265.034>
VStem: 40.2861 144.402<159.608 188.818 159.608 200.092> 77.3369 139.65<532.185 562.152 532.185 562.275> 265.438 139.649<528.653 551.996>
LayerCount: 2
Fore
SplineSet
405.086914062 538.879882812 m 0xd8
 405.086914062 466.123046875 361.18359375 404.516601562 314.201171875 352.422851562 c 1
 351.21875 290.5234375 l 1
 389.5625 352.20703125 l 1
 496.838867188 278.53515625 l 1
 425.21484375 167.119140625 l 1
 429.15625 160.544921875 433.104492188 153.978515625 437.041992188 147.400390625 c 0
 444.923828125 133.616210938 451.401367188 131.327148438 461.137695312 131.327148438 c 2
 489.637695312 131.327148438 l 1
 489.637695312 1.1767578125 l 1
 426.9375 1.1767578125 l 2
 383.482421875 1.1767578125 363.14453125 14.66015625 340.805664062 44.5068359375 c 1
 319.42578125 22.388671875 281.154296875 -8.3232421875 205.586914062 -8.3232421875 c 0
 157.55859375 -8.3232421875 116.7421875 7.1796875 86.0078125 38.62890625 c 0
 55.2236328125 70.1279296875 40.2861328125 112.080078125 40.2861328125 161.7265625 c 0xe8
 40.2861328125 238.458007812 79.3310546875 301.737304688 141.55078125 370.038085938 c 1
 91.849609375 452.981445312 77.3369140625 491.690429688 77.3369140625 538.879882812 c 0
 77.3369140625 585.669921875 92.544921875 625.53125 123.341796875 655.611328125 c 0
 154.086914062 685.641601562 194.424804688 700.379882812 241.686523438 700.379882812 c 0
 288.381835938 700.379882812 328.388671875 685.58984375 359.081054688 655.611328125 c 0
 389.877929688 625.53125 405.086914062 585.669921875 405.086914062 538.879882812 c 0xd8
241.6875 579.7265625 m 0
 235.690429688 579.7265625 216.987304688 579.7265625 216.987304688 544.577148438 c 0xd8
 216.987304688 519.791992188 233.188476562 489.443359375 240.453125 475.962890625 c 1
 254.217773438 494.306640625 265.4375 512.728515625 265.4375 544.577148438 c 0
 265.4375 559.415039062 262.135742188 568.12890625 258.393554688 572.68359375 c 0
 254.512695312 577.407226562 250.155273438 579.7265625 241.6875 579.7265625 c 0
214.911132812 249.182617188 m 1
 198.572265625 227.842773438 184.688476562 204.510742188 184.688476562 173.125976562 c 0xe8
 184.688476562 146.090820312 193.81640625 127.52734375 218.888671875 127.52734375 c 0
 237.268554688 127.52734375 250.729492188 136.263671875 269.473632812 159.897460938 c 1
 214.911132812 249.182617188 l 1
EndSplineSet
EndChar

StartChar: quotesingle
Encoding: 39 39 9
Width: 184
GlyphClass: 2
Flags: MW
HStem: 379.279 311.601<31.7363 173.286 31.7363 173.286>
VStem: 31.7363 141.55<379.279 690.88 379.279 690.88>
LayerCount: 2
Fore
SplineSet
31.736328125 690.879882812 m 1
 173.286132812 690.879882812 l 1
 173.286132812 379.279296875 l 1
 31.736328125 379.279296875 l 1
 31.736328125 690.879882812 l 1
EndSplineSet
EndChar

StartChar: parenleft
Encoding: 40 40 10
Width: 281
GlyphClass: 2
Flags: MW
VStem: 40.2861 142.5<287.572 389.035>
LayerCount: 2
Fore
SplineSet
40.2861328125 329.877929688 m 0
 40.2861328125 448.192382812 63.1767578125 591.2421875 134.331054688 729.103515625 c 2
 139.1171875 738.377929688 l 1
 269.137695312 738.377929688 l 1
 259.40234375 714.76953125 l 2
 240.704101562 669.427734375 182.786132812 521.827148438 182.786132812 329.87890625 c 0
 182.786132812 245.264648438 194.65625 101.997070312 259.40234375 -55.0126953125 c 2
 269.137695312 -78.6201171875 l 1
 139.1171875 -78.6201171875 l 1
 114.764648438 -31.435546875 40.2861328125 112.865234375 40.2861328125 329.877929688 c 0
EndSplineSet
Substitution2: "'rtla' Right to Left Alternates lookup 0 subtable" parenright
EndChar

StartChar: parenright
Encoding: 41 41 11
Width: 281
GlyphClass: 2
Flags: MW
VStem: 118.187 142.5<270.723 372.188>
LayerCount: 2
Fore
SplineSet
118.186523438 329.879882812 m 0
 118.186523438 414.495117188 106.317382812 557.762695312 41.5703125 714.771484375 c 2
 31.8349609375 738.379882812 l 1
 161.85546875 738.379882812 l 1
 186.208984375 691.194335938 260.686523438 546.89453125 260.686523438 329.879882812 c 0
 260.686523438 211.565429688 237.795898438 68.515625 166.642578125 -69.345703125 c 2
 161.85546875 -78.6201171875 l 1
 31.8349609375 -78.6201171875 l 1
 41.5703125 -55.0126953125 l 2
 60.2685546875 -9.6689453125 118.186523438 137.931640625 118.186523438 329.879882812 c 0
EndSplineSet
Substitution2: "'rtla' Right to Left Alternates lookup 0 subtable" parenleft
EndChar

StartChar: asterisk
Encoding: 42 42 12
Width: 342
GlyphClass: 2
Flags: MW
HStem: 373.58 317.3<132.437 229.337 132.437 229.337>
VStem: 132.437 96.9004<373.58 453.09 373.58 454.99 373.58 454.99 616.12 690.88>
LayerCount: 2
Fore
SplineSet
229.336914062 373.580078125 m 1
 132.436523438 373.580078125 l 1
 132.436523438 454.990234375 l 1
 79.5595703125 424.2109375 l 1
 35.0888671875 502.418945312 l 1
 89.921875 534.206054688 l 1
 34.205078125 566.83984375 l 1
 79.5302734375 646.916015625 l 1
 132.436523438 616.120117188 l 1
 132.436523438 690.879882812 l 1
 229.336914062 690.879882812 l 1
 229.336914062 614.219726562 l 1
 282.212890625 644.999023438 l 1
 326.736328125 566.69921875 l 1
 270.955078125 534.82421875 l 1
 327.651367188 501.28515625 l 1
 282.120117188 422.365234375 l 1
 229.336914062 453.08984375 l 1
 229.336914062 373.580078125 l 1
EndSplineSet
EndChar

StartChar: plus
Encoding: 43 43 13
Width: 422
GlyphClass: 2
Flags: MW
HStem: 210.18 139.65<34.5869 150.486 34.5869 150.486 290.137 406.036>
VStem: 150.486 139.65<94.2793 210.18 94.2793 210.18 349.83 465.729>
LayerCount: 2
Fore
SplineSet
290.13671875 210.1796875 m 1
 290.13671875 94.279296875 l 1
 150.486328125 94.279296875 l 1
 150.486328125 210.1796875 l 1
 34.5869140625 210.1796875 l 1
 34.5869140625 349.830078125 l 1
 150.486328125 349.830078125 l 1
 150.486328125 465.729492188 l 1
 290.13671875 465.729492188 l 1
 290.13671875 349.830078125 l 1
 406.036132812 349.830078125 l 1
 406.036132812 210.1796875 l 1
 290.13671875 210.1796875 l 1
EndSplineSet
EndChar

StartChar: comma
Encoding: 44 44 14
Width: 184
GlyphClass: 2
Flags: MW
HStem: -169.443 331.173<31.7363 173.286>
VStem: 31.7363 141.55<-55.4512 161.729 -55.4512 161.729 -55.4512 161.729>
LayerCount: 2
Fore
SplineSet
31.736328125 161.729492188 m 1
 173.286132812 161.729492188 l 1
 173.286132812 -55.451171875 l 1
 31.736328125 -169.443359375 l 1
 31.736328125 161.729492188 l 1
EndSplineSet
EndChar

StartChar: hyphen
Encoding: 45 45 15
Width: 356
GlyphClass: 2
Flags: MW
HStem: 277.63 138.7<40.2861 335.736 40.2861 335.736>
VStem: 40.2861 295.45<277.63 416.33 277.63 416.33>
LayerCount: 2
Fore
SplineSet
40.2861328125 416.330078125 m 1
 335.736328125 416.330078125 l 1
 335.736328125 277.629882812 l 1
 40.2861328125 277.629882812 l 1
 40.2861328125 416.330078125 l 1
EndSplineSet
EndChar

StartChar: period
Encoding: 46 46 16
Width: 188
GlyphClass: 2
Flags: MW
HStem: 1.17969 159.6<31.7363 177.087 31.7363 177.087>
VStem: 31.7363 145.351<1.17969 160.779 1.17969 160.779>
LayerCount: 2
Fore
SplineSet
31.736328125 160.779296875 m 1
 177.086914062 160.779296875 l 1
 177.086914062 1.1796875 l 1
 31.736328125 1.1796875 l 1
 31.736328125 160.779296875 l 1
EndSplineSet
EndChar

StartChar: slash
Encoding: 47 47 17
Width: 306
GlyphClass: 2
Flags: MW
HStem: -8.32031 21G<36.8584 158.065 36.8584 36.8584> 678.479 20G<166.638 288.843 288.843 288.843>
VStem: 36.8584 251.984
LayerCount: 2
Fore
SplineSet
288.842773438 698.479492188 m 1
 158.065429688 -8.3203125 l 1
 36.8583984375 -8.3203125 l 1
 166.637695312 698.479492188 l 1
 288.842773438 698.479492188 l 1
EndSplineSet
EndChar

StartChar: zero
Encoding: 48 48 18
Width: 411
GlyphClass: 2
Flags: MW
HStem: -8.32031 21G<165.338 293.277>
VStem: 40.2861 151.051<194.98 195.931 195.931 498.03> 240.737 150.1<195.931 498.03 498.03 498.979>
LayerCount: 2
Fore
SplineSet
215.086914062 -8.3203125 m 0
 115.58984375 -8.3203125 40.2861328125 42.16015625 40.2861328125 194.98046875 c 2
 40.2861328125 498.98046875 l 2
 40.2861328125 568.952148438 54.65234375 701.330078125 215.086914062 701.330078125 c 0
 315.694335938 701.330078125 390.836914062 650.5859375 390.836914062 498.979492188 c 2
 390.836914062 194.979492188 l 2
 390.836914062 114.598632812 371.466796875 -8.3203125 215.086914062 -8.3203125 c 0
240.737304688 195.930664062 m 2
 240.737304688 498.030273438 l 2
 240.737304688 526.719726562 237.03125 545.495117188 233.1953125 552.784179688 c 0
 230.091796875 558.680664062 226.299804688 561.680664062 215.086914062 561.680664062 c 0
 203.66015625 561.680664062 200.606445312 558.7421875 198.172851562 553.741210938 c 0
 194.775390625 546.7578125 191.336914062 527.45703125 191.336914062 498.030273438 c 2
 191.336914062 195.930664062 l 2
 191.336914062 166.549804688 194.90234375 147.239257812 198.56640625 139.911132812 c 0
 201.529296875 133.984375 204.80078125 131.331054688 215.086914062 131.331054688 c 0
 226.299804688 131.331054688 230.090820312 134.331054688 233.193359375 140.2265625 c 0
 236.9921875 147.443359375 240.737304688 166.580078125 240.737304688 195.930664062 c 2
EndSplineSet
EndChar

StartChar: one
Encoding: 49 49 19
Width: 301
GlyphClass: 2
Flags: MW
HStem: 670.88 20G<131.131 273.036 273.036 273.036>
VStem: 120.087 152.949<1.17969 502.062 502.062 502.062>
LayerCount: 2
Fore
SplineSet
29.8369140625 428.912109375 m 1
 29.8369140625 608.778320312 l 1
 131.130859375 690.879882812 l 1
 273.036132812 690.879882812 l 1
 273.036132812 1.1796875 l 1
 120.086914062 1.1796875 l 1
 120.086914062 502.061523438 l 1
 29.8369140625 428.912109375 l 1
EndSplineSet
Substitution2: "'sups' Superscript lookup 1 subtable" uni00B9
EndChar

StartChar: two
Encoding: 50 50 20
Width: 400
GlyphClass: 2
Flags: MW
HStem: 1.17969 139.65<214.603 383.236 214.603 383.236> 680.381 20G<188.117 238.293>
VStem: 40.2861 147.25<460.98 521.78 460.98 536.03 460.98 560.373> 234.087 149.149<489.48 526.53 526.53 532.229>
LayerCount: 2
Fore
SplineSet
383.236328125 485.6796875 m 2
 383.236328125 435.703125 374.177734375 396.614257812 333.14453125 330.329101562 c 2
 333.14453125 330.329101562 250.536132812 198.271484375 214.602539062 140.830078125 c 1
 383.236328125 140.830078125 l 1
 383.236328125 1.1796875 l 1
 36.486328125 1.1796875 l 1
 36.486328125 124.7890625 l 1
 205.220703125 397.657226562 l 2
 229.81640625 438.671875 234.086914062 457.311523438 234.086914062 489.48046875 c 2
 234.086914062 526.530273438 l 2
 234.086914062 561.680664062 218.985351562 561.680664062 210.336914062 561.680664062 c 0
 200.494140625 561.680664062 196.712890625 559.037109375 193.249023438 552.8515625 c 0
 190.116210938 547.2578125 187.536132812 536.975585938 187.536132812 521.780273438 c 2
 187.536132812 460.98046875 l 1
 40.2861328125 460.98046875 l 1
 40.2861328125 536.030273438 l 2
 40.2861328125 584.715820312 56.1552734375 625.717773438 88.474609375 655.8828125 c 0
 120.625976562 685.890625 163.047851562 700.380859375 213.186523438 700.380859375 c 0
 263.399414062 700.380859375 305.569335938 685.491210938 336.830078125 654.58984375 c 0
 368.094726562 623.684570312 383.236328125 581.913085938 383.236328125 532.229492188 c 2
 383.236328125 485.6796875 l 2
EndSplineSet
Substitution2: "'sups' Superscript lookup 1 subtable" uni00B2
EndChar

StartChar: three
Encoding: 51 51 21
Width: 402
GlyphClass: 2
Flags: MW
HStem: 286.181 138.7<158.087 199.888 158.087 201.787>
VStem: 35.5371 147.25<159.831 165.53 165.53 225.381 148.431 225.381> 230.287 151.05<172.181 233.93 140.198 239.631 140.198 250.717>
LayerCount: 2
Fore
SplineSet
333.213867188 360.825195312 m 1
 360.759765625 341.640625 381.336914062 313.872070312 381.336914062 233.9296875 c 2
 381.336914062 166.479492188 l 2
 381.336914062 113.916015625 366.439453125 70.2900390625 335.0703125 38.560546875 c 0
 303.64453125 6.7744140625 260.086914062 -8.3203125 207.486328125 -8.3203125 c 0
 154.462890625 -8.3203125 111.030273438 6.119140625 80.375 37.1376953125 c 0
 50.0224609375 67.8515625 35.537109375 109.72265625 35.537109375 159.831054688 c 2
 35.537109375 225.380859375 l 1
 182.787109375 225.380859375 l 1
 182.787109375 165.530273438 l 2
 182.787109375 131.331054688 197.76171875 131.331054688 206.537109375 131.331054688 c 0
 219.270507812 131.331054688 222.614257812 134.678710938 224.163085938 137.260742188 c 0
 227.252929688 142.409179688 230.287109375 154.052734375 230.287109375 172.180664062 c 2
 230.287109375 239.630859375 l 2
 230.287109375 261.802734375 226.56640625 275.186523438 223.649414062 279.5625 c 0
 222.165039062 281.788085938 216.725585938 286.180664062 199.887695312 286.180664062 c 2
 158.086914062 286.180664062 l 1
 158.086914062 424.880859375 l 1
 201.787109375 424.880859375 l 2
 218.020507812 424.880859375 222.881835938 429.129882812 224.046875 430.909179688 c 0
 226.98828125 435.397460938 230.286132812 446.943359375 230.286132812 465.73046875 c 2
 230.286132812 519.880859375 l 2
 230.286132812 537.935546875 227.12109375 549.370117188 223.904296875 554.44921875 c 0
 221.892578125 557.625 218.33203125 560.73046875 206.536132812 560.73046875 c 0
 197.760742188 560.73046875 182.786132812 560.73046875 182.786132812 526.530273438 c 2
 182.786132812 469.530273438 l 1
 35.5361328125 469.530273438 l 1
 35.5361328125 533.180664062 l 2
 35.5361328125 582.859375 50.6796875 624.521484375 82.0146484375 655.135742188 c 0
 113.4375 685.834960938 156.543945312 700.380859375 208.436523438 700.380859375 c 0
 260.942382812 700.380859375 304.307617188 685.6875 335.475585938 654.51953125 c 0
 366.69140625 623.3046875 381.336914062 579.612304688 381.336914062 526.529296875 c 2
 381.336914062 481.879882812 l 2
 381.336914062 409.1640625 358.123046875 379.420898438 333.213867188 360.825195312 c 1
EndSplineSet
Substitution2: "'sups' Superscript lookup 1 subtable" uni00B3
EndChar

StartChar: four
Encoding: 52 52 22
Width: 429
GlyphClass: 2
Flags: MW
HStem: 110.43 139.65<186.669 226.486 186.669 226.486 377.536 418.387> 670.88 20G<164.302 316.818 316.818 316.818>
VStem: 226.486 151.05<1.17969 110.43 1.17969 110.43 250.08 384.938 384.938 384.938>
LayerCount: 2
Fore
SplineSet
377.536132812 250.080078125 m 1
 418.38671875 250.080078125 l 1
 418.38671875 110.4296875 l 1
 377.536132812 110.4296875 l 1
 377.536132812 1.1796875 l 1
 226.486328125 1.1796875 l 1
 226.486328125 110.4296875 l 1
 29.8369140625 110.4296875 l 1
 29.8369140625 235.462890625 l 1
 164.301757812 690.879882812 l 1
 316.818359375 690.879882812 l 1
 229.303710938 394.479492188 l 1
 377.536132812 394.479492188 l 1
 377.536132812 250.080078125 l 1
226.486328125 250.080078125 m 1
 226.486328125 384.9375 l 1
 186.668945312 250.080078125 l 1
 226.486328125 250.080078125 l 1
EndSplineSet
EndChar

StartChar: five
Encoding: 53 53 23
Width: 408
GlyphClass: 2
Flags: MW
HStem: 327.03 135.851<205.231 278.384> 550.28 140.601<188.484 387.984 188.484 188.484>
VStem: 40.2852 149.15<168.381 173.131 173.131 215.881 163.435 215.881> 47.8848 140.6<452.045 550.28 452.045 690.881> 236.936 151.049<173.131 288.081 288.081 292.831 142.966 295.504>
LayerCount: 2
Fore
SplineSet
245.484375 462.880859375 m 0xd8
 311.284179688 462.880859375 387.984375 432.8515625 387.984375 292.831054688 c 2
 387.984375 171.23046875 l 2
 387.984375 114.702148438 373.810546875 69.1201171875 342.669921875 37.6123046875 c 0
 311.696289062 6.2734375 267.787109375 -8.3203125 214.135742188 -8.3203125 c 0
 160.483398438 -8.3203125 116.575195312 6.2734375 85.6015625 37.6123046875 c 0
 54.595703125 68.9833984375 40.28515625 113.600585938 40.28515625 168.380859375 c 2
 40.28515625 215.880859375 l 1
 189.435546875 215.880859375 l 1
 189.435546875 173.130859375 l 2xe8
 189.435546875 153.73828125 192.875 141.795898438 196.073242188 136.999023438 c 0
 198.5703125 133.25390625 202.321289062 130.380859375 213.185546875 130.380859375 c 0
 224.049804688 130.380859375 227.80078125 133.25390625 230.297851562 136.999023438 c 0
 233.49609375 141.795898438 236.935546875 153.73828125 236.935546875 173.130859375 c 2
 236.935546875 288.081054688 l 2
 236.935546875 302.927734375 234.321289062 312.854492188 231.18359375 318.236328125 c 0
 227.719726562 324.177734375 223.657226562 327.030273438 213.185546875 327.030273438 c 0
 197.27734375 327.030273438 193.12890625 317.696289062 182.5 293.780273438 c 1
 47.884765625 293.780273438 l 1
 47.884765625 690.880859375 l 1
 387.984375 690.880859375 l 1
 387.984375 550.280273438 l 1
 188.484375 550.280273438 l 1
 188.484375 452.044921875 l 1
 205.306640625 459.381835938 224.495117188 462.880859375 245.484375 462.880859375 c 0xd8
EndSplineSet
EndChar

StartChar: six
Encoding: 54 54 24
Width: 403
GlyphClass: 2
Flags: MW
HStem: -8.32031 21G<184.15 237.853> 670.88 20G<190.663 348.524 348.524 348.524>
VStem: 36.4863 151.05<169.33 267.18 267.18 276.68 147.955 293.207> 235.036 151.051<165.529 271.929 271.929 280.479 139.251 288.554>
LayerCount: 2
Fore
SplineSet
247.38671875 441.979492188 m 0
 328.205078125 441.979492188 386.086914062 385.834960938 386.086914062 280.479492188 c 2
 386.086914062 165.529296875 l 2
 386.086914062 112.97265625 371.19140625 69.4560546875 339.750976562 38.015625 c 0
 308.26171875 6.52734375 264.419921875 -8.3203125 211.286132812 -8.3203125 c 0
 157.013671875 -8.3203125 112.735351562 6.423828125 81.7314453125 38.158203125 c 0
 50.8017578125 69.81640625 36.486328125 114.540039062 36.486328125 169.330078125 c 2
 36.486328125 267.1796875 l 2
 36.486328125 319.234375 42.3583984375 354.384765625 70.16015625 419.25390625 c 2
 190.663085938 690.879882812 l 1
 348.524414062 690.879882812 l 1
 240.188476562 441.799804688 l 1
 242.5546875 441.920898438 244.954101562 441.979492188 247.38671875 441.979492188 c 0
211.286132812 131.330078125 m 0
 218.239257812 131.330078125 235.036132812 131.330078125 235.036132812 165.529296875 c 2
 235.036132812 271.928710938 l 2
 235.036132812 305.178710938 220.186523438 305.178710938 211.286132812 305.178710938 c 0
 201.721679688 305.178710938 187.536132812 303.693359375 187.536132812 276.6796875 c 2
 187.536132812 164.580078125 l 2
 187.536132812 131.330078125 202.38671875 131.330078125 211.286132812 131.330078125 c 0
EndSplineSet
EndChar

StartChar: seven
Encoding: 55 55 25
Width: 385
GlyphClass: 2
Flags: MW
HStem: 551.229 139.65<26.0361 221.729 26.0361 378.486>
LayerCount: 2
Fore
SplineSet
378.486328125 690.879882812 m 1
 378.486328125 565.873046875 l 1
 213.662109375 1.1796875 l 1
 61.177734375 1.1796875 l 1
 221.728515625 551.229492188 l 1
 26.0361328125 551.229492188 l 1
 26.0361328125 690.879882812 l 1
 378.486328125 690.879882812 l 1
EndSplineSet
EndChar

StartChar: eight
Encoding: 56 56 26
Width: 412
GlyphClass: 2
Flags: MW
HStem: -8.32031 21G<188.854 242.935> 680.381 20G<190.343 242.014>
VStem: 40.2861 152<174.081 241.53 241.53 250.08 163.74 266.556 470.48 531.279> 239.786 152<173.13 174.081 174.081 241.53 145.763 250.08 145.763 257.503 464.779 470.479 470.479 531.279 531.279 532.229>
LayerCount: 2
Fore
SplineSet
391.786132812 470.479492188 m 2
 391.786132812 457.983398438 389.369140625 400.712890625 346.794921875 361.186523438 c 1
 377.19140625 333.18359375 391.786132812 292.043945312 391.786132812 241.530273438 c 2
 391.786132812 174.081054688 l 2
 391.786132812 117.4453125 377.202148438 71.4462890625 345.587890625 39.1044921875 c 0
 314.083984375 6.8759765625 269.833007812 -8.3203125 216.036132812 -8.3203125 c 0
 161.670898438 -8.3203125 117.201171875 6.8251953125 85.9404296875 39.17578125 c 0
 54.67578125 71.53125 40.2861328125 117.483398438 40.2861328125 174.081054688 c 2
 40.2861328125 241.530273438 l 2
 40.2861328125 291.58203125 54.9169921875 332.538085938 85.1865234375 360.842773438 c 1
 73.12890625 371.750976562 63.3740234375 385.11328125 56.1435546875 400.538085938 c 0
 45.6552734375 422.913085938 40.2861328125 446.368164062 40.2861328125 470.48046875 c 2
 40.2861328125 532.23046875 l 2
 40.2861328125 582.107421875 56.2431640625 624.024414062 88.87109375 654.858398438 c 0
 121.3828125 685.584960938 164.650390625 700.380859375 216.036132812 700.380859375 c 0
 267.9921875 700.380859375 311.473632812 685.631835938 343.74609375 654.79296875 c 0
 376.034179688 623.939453125 391.786132812 582.057617188 391.786132812 532.229492188 c 2
 391.786132812 470.479492188 l 2
216.036132812 562.62890625 m 0
 209.307617188 562.62890625 192.286132812 562.62890625 192.286132812 531.279296875 c 2
 192.286132812 464.779296875 l 2
 192.286132812 448.16796875 195.259765625 437.202148438 198.801757812 431.421875 c 0
 200.9375 427.9375 204.420898438 424.879882812 216.036132812 424.879882812 c 0
 228.590820312 424.879882812 231.85546875 428.176757812 233.538085938 431.073242188 c 0
 236.934570312 436.923828125 239.786132812 448.08203125 239.786132812 464.779296875 c 2
 239.786132812 531.279296875 l 2
 239.786132812 543.95703125 236.87109375 551.576171875 233.173828125 556.114257812 c 0
 229.940429688 560.08203125 225.603515625 562.62890625 216.036132812 562.62890625 c 0
239.786132812 173.129882812 m 2
 239.786132812 250.080078125 l 2
 239.786132812 264.926757812 237.171875 274.853515625 234.034179688 280.235351562 c 0
 230.5703125 286.176757812 226.5078125 289.029296875 216.036132812 289.029296875 c 0
 204.420898438 289.029296875 200.9375 285.97265625 198.801757812 282.487304688 c 0
 195.186523438 276.588867188 192.286132812 265.974609375 192.286132812 250.080078125 c 2
 192.286132812 173.129882812 l 2
 192.286132812 154.350585938 195.28125 141.885742188 198.651367188 135.89453125 c 0
 200.463867188 132.671875 203.663085938 129.4296875 216.036132812 129.4296875 c 0
 229.35546875 129.4296875 232.30859375 132.916992188 233.700195312 135.53515625 c 0
 236.932617188 141.619140625 239.786132812 154.278320312 239.786132812 173.129882812 c 2
EndSplineSet
EndChar

StartChar: nine
Encoding: 57 57 27
Width: 403
GlyphClass: 2
Flags: MW
HStem: 680.38 20G<154.802 239.368>
VStem: 36.4863 151.051<411.58 420.13 420.13 526.529 403.636 578.84> 235.037 151.05<415.38 424.88 424.88 522.729 397.305 527.479 397.305 544.104>
LayerCount: 2
Fore
SplineSet
36.486328125 526.529296875 m 2
 36.486328125 631.151367188 97.3671875 700.379882812 212.236328125 700.379882812 c 0
 266.5 700.379882812 310.671875 685.640625 341.387695312 653.828125 c 0
 371.966796875 622.15625 386.086914062 577.479492188 386.086914062 522.729492188 c 2
 386.086914062 424.879882812 l 2
 386.086914062 369.73046875 379.491210938 332.321289062 353.254882812 272.561523438 c 2
 231.873046875 1.1796875 l 1
 74.048828125 1.1796875 l 1
 182.37109375 250.228515625 l 1
 180.0234375 250.127929688 177.62890625 250.080078125 175.186523438 250.080078125 c 0
 94.3681640625 250.080078125 36.486328125 306.224609375 36.486328125 411.580078125 c 2
 36.486328125 526.529296875 l 2
212.237304688 386.879882812 m 0
 220.030273438 386.879882812 235.037109375 387.784179688 235.037109375 415.379882812 c 2
 235.037109375 527.479492188 l 2
 235.037109375 560.729492188 220.73828125 560.729492188 212.237304688 560.729492188 c 0
 203.072265625 560.729492188 187.537109375 560.729492188 187.537109375 526.529296875 c 2
 187.537109375 420.129882812 l 2
 187.537109375 387.141601562 202.639648438 386.879882812 212.237304688 386.879882812 c 0
EndSplineSet
EndChar

StartChar: colon
Encoding: 58 58 28
Width: 188
GlyphClass: 2
Flags: MW
HStem: 1.17969 159.6<31.7363 177.087 31.7363 177.087> 322.279 159.601<31.7363 177.087 31.7363 177.087>
VStem: 31.7363 145.351<1.17969 160.779 1.17969 160.779 322.279 481.88>
LayerCount: 2
Fore
SplineSet
31.736328125 160.779296875 m 1
 177.086914062 160.779296875 l 1
 177.086914062 1.1796875 l 1
 31.736328125 1.1796875 l 1
 31.736328125 160.779296875 l 1
31.736328125 481.879882812 m 1
 177.086914062 481.879882812 l 1
 177.086914062 322.279296875 l 1
 31.736328125 322.279296875 l 1
 31.736328125 481.879882812 l 1
EndSplineSet
EndChar

StartChar: semicolon
Encoding: 59 59 29
Width: 188
GlyphClass: 2
Flags: MW
HStem: 322.279 159.601<31.7363 177.087 31.7363 177.087>
VStem: 35.5361 141.551<-55.4512 161.729 -55.4512 161.729 -55.4512 161.729>
LayerCount: 2
Fore
SplineSet
31.736328125 481.879882812 m 1
 177.086914062 481.879882812 l 1
 177.086914062 322.279296875 l 1
 31.736328125 322.279296875 l 1
 31.736328125 481.879882812 l 1
35.5361328125 161.729492188 m 1
 177.086914062 161.729492188 l 1
 177.086914062 -55.451171875 l 1
 35.5361328125 -169.443359375 l 1
 35.5361328125 161.729492188 l 1
EndSplineSet
EndChar

StartChar: less
Encoding: 60 60 30
Width: 422
GlyphClass: 2
Flags: W
LayerCount: 2
Fore
SplineSet
34.5869140625 227.13671875 m 1
 34.5869140625 333.822265625 l 1
 393.686523438 478.72265625 l 1
 393.686523438 347.540039062 l 1
 217.553710938 280.479492188 l 1
 393.686523438 213.419921875 l 1
 393.686523438 82.2373046875 l 1
 34.5869140625 227.13671875 l 1
EndSplineSet
Substitution2: "'rtla' Right to Left Alternates lookup 0 subtable" greater
EndChar

StartChar: equal
Encoding: 61 61 31
Width: 422
GlyphClass: 2
Flags: MW
HStem: 126.58 124.449<34.5869 393.687 34.5869 393.687> 309.93 123.5<34.5869 393.687 34.5869 393.687>
VStem: 34.5869 359.1<126.58 251.029 126.58 251.029 309.93 433.43 126.58 433.43>
LayerCount: 2
Fore
SplineSet
34.5869140625 433.4296875 m 1
 393.686523438 433.4296875 l 1
 393.686523438 309.9296875 l 1
 34.5869140625 309.9296875 l 1
 34.5869140625 433.4296875 l 1
34.5869140625 251.029296875 m 1
 393.686523438 251.029296875 l 1
 393.686523438 126.580078125 l 1
 34.5869140625 126.580078125 l 1
 34.5869140625 251.029296875 l 1
EndSplineSet
EndChar

StartChar: greater
Encoding: 62 62 32
Width: 422
GlyphClass: 2
Flags: W
LayerCount: 2
Fore
SplineSet
34.5869140625 347.55859375 m 1
 34.5869140625 478.72265625 l 1
 393.686523438 333.822265625 l 1
 393.686523438 227.13671875 l 1
 34.5869140625 82.2373046875 l 1
 34.5869140625 213.400390625 l 1
 209.961914062 280.479492188 l 1
 34.5869140625 347.55859375 l 1
EndSplineSet
Substitution2: "'rtla' Right to Left Alternates lookup 0 subtable" less
EndChar

StartChar: question
Encoding: 63 63 33
Width: 380
GlyphClass: 2
Flags: MW
HStem: 1.17969 154.85<126.736 265.437 126.736 265.437>
VStem: 23.1865 144.4<473.33 490.43 473.33 549.909> 126.736 138.7<1.17969 156.029 1.17969 156.029 189.279 247.229 247.229 248.18 1.17969 279.495> 223.638 147.249<504.736 544.104>
LayerCount: 2
Fore
SplineSet
23.1865234375 490.4296875 m 2xd0
 23.1865234375 609.387695312 63.4169921875 699.4296875 197.03515625 699.4296875 c 0
 248.454101562 699.4296875 291.5390625 684.436523438 323.4609375 653.231445312 c 0
 355.592773438 621.823242188 370.88671875 578.224609375 370.88671875 525.580078125 c 0xd0
 370.88671875 465.717773438 356.409179688 430.186523438 325.159179688 383.890625 c 0
 312.729492188 365.729492188 300.30859375 347.55859375 287.873046875 329.404296875 c 0
 270.44140625 305.193359375 265.436523438 291.577148438 265.436523438 248.1796875 c 2
 265.436523438 189.279296875 l 1
 126.736328125 189.279296875 l 1
 126.736328125 247.229492188 l 2xa0
 126.736328125 311.760742188 135.1328125 337.0546875 167.325195312 388.32421875 c 0
 167.34375 388.354492188 200.575195312 441.524414062 200.673828125 441.680664062 c 0
 218.537109375 469.588867188 223.637695312 486.743164062 223.637695312 522.729492188 c 0
 223.637695312 565.479492188 205.352539062 565.479492188 196.086914062 565.479492188 c 0
 189.155273438 565.479492188 184.327148438 564.333984375 181.333984375 562.940429688 c 0
 177.76953125 561.280273438 176.05859375 559.510742188 174.518554688 555.525390625 c 0
 170.655273438 545.526367188 167.586914062 523.0859375 167.586914062 490.4296875 c 2
 167.586914062 473.330078125 l 1
 23.1865234375 473.330078125 l 1
 23.1865234375 490.4296875 l 2xd0
126.736328125 156.029296875 m 1xa0
 265.436523438 156.029296875 l 1
 265.436523438 1.1796875 l 1
 126.736328125 1.1796875 l 1
 126.736328125 156.029296875 l 1xa0
EndSplineSet
EndChar

StartChar: at
Encoding: 64 64 34
Width: 703
GlyphClass: 2
Flags: MW
HStem: -126.12 121.601<312.537 400.812 312.537 418.673> 54.3799 121.6<271.73 365.845> 391.63 121.601<280.397 365.064> 580.681 121.599<309.546 392.778>
VStem: 40.2861 129.199<207.33 216.831 216.831 368.831> 208.436 133.002<213.98 359.33> 380.388 132.999<213.979 359.33 359.33 365.744> 553.286 127.301<210.181 223.479 223.479 373.58>
LayerCount: 2
Fore
SplineSet
360.436523438 -126.120117188 m 0
 152.565429688 -126.120117188 40.2861328125 11.9267578125 40.2861328125 207.330078125 c 2
 40.2861328125 369.779296875 l 2
 40.2861328125 573.34375 167.807617188 702.279296875 360.436523438 702.279296875 c 0
 554.5546875 702.279296875 680.586914062 572.369140625 680.586914062 373.580078125 c 2
 680.586914062 223.479492188 l 2
 680.586914062 171.6328125 668.850585938 129.455078125 642.692382812 99.2451171875 c 0
 616.377929688 68.8544921875 578.328125 54.3798828125 532.385742188 54.3798828125 c 0
 498.846679688 54.3798828125 454.3046875 62.8740234375 421.857421875 100.592773438 c 1
 404.05859375 72.5283203125 375.728515625 54.3798828125 325.28515625 54.3798828125 c 0
 218.174804688 54.3798828125 208.435546875 154.497070312 208.435546875 213.98046875 c 2
 208.435546875 364.081054688 l 2
 208.435546875 451.693359375 238.359375 513.23046875 322.435546875 513.23046875 c 0
 336.5390625 513.23046875 359.169921875 511.1875 379.436523438 497.516601562 c 1
 379.436523438 505.630859375 l 1
 513.38671875 505.630859375 l 1
 513.38671875 200.680664062 l 2
 513.38671875 176.412109375 524.374023438 174.081054688 533.336914062 174.081054688 c 0
 543.38671875 174.081054688 545.704101562 176.606445312 547.423828125 179.643554688 c 0
 550.719726562 185.458984375 553.286132812 195.510742188 553.286132812 210.180664062 c 2
 553.286132812 382.130859375 l 2
 553.286132812 448.26171875 536.130859375 496.532226562 503.939453125 529.853515625 c 0
 471.852539062 563.065429688 425.120117188 580.680664062 360.436523438 580.680664062 c 0
 258.65625 580.680664062 169.485351562 538.1796875 169.485351562 368.831054688 c 2
 169.485351562 216.831054688 l 2
 169.485351562 33.2099609375 264.638671875 -4.51953125 360.435546875 -4.51953125 c 0
 441.1875 -4.51953125 474.924804688 19.1865234375 515.591796875 47.7626953125 c 1
 583.63671875 -48.298828125 l 1
 541.995117188 -78.662109375 476.909179688 -126.120117188 360.436523438 -126.120117188 c 0
380.387695312 213.979492188 m 2
 380.387695312 359.330078125 l 2
 380.387695312 372.157226562 378.044921875 380.452148438 375.495117188 384.703125 c 0
 372.766601562 389.250976562 369.690429688 391.629882812 360.4375 391.629882812 c 0
 351.70703125 391.629882812 348.913085938 389.440429688 346.241210938 384.87109375 c 0
 343.737304688 380.586914062 341.4375 372.202148438 341.4375 359.330078125 c 2
 341.4375 211.129882812 l 2
 341.4375 195.700195312 344.163085938 185.7734375 347.040039062 181.037109375 c 0
 348.663085938 178.36328125 350.919921875 175.979492188 360.4375 175.979492188 c 0
 371.251953125 175.979492188 373.260742188 178.67578125 374.680664062 181.428710938 c 0
 377.909179688 187.684570312 380.387695312 198.513671875 380.387695312 213.979492188 c 2
EndSplineSet
EndChar

StartChar: A
Encoding: 65 65 35
Width: 485
GlyphClass: 2
Flags: MW
HStem: 128.479 138.7<218.045 286.229 218.045 314.237 189.086 286.229> 670.88 20G<181.866 322.426 322.426 322.426>
LayerCount: 2
Fore
SplineSet
4.943359375 1.1796875 m 1
 181.866210938 690.879882812 l 1
 322.42578125 690.879882812 l 1
 498.348632812 1.1796875 l 1
 340.836914062 1.1796875 l 1
 314.237304688 128.479492188 l 1
 189.0859375 128.479492188 l 1
 162.485351562 1.1796875 l 1
 4.943359375 1.1796875 l 1
218.044921875 267.1796875 m 1
 286.228515625 267.1796875 l 1
 252.13671875 431.76171875 l 1
 218.044921875 267.1796875 l 1
EndSplineSet
EndChar

StartChar: B
Encoding: 66 66 36
Width: 457
GlyphClass: 2
Flags: MW
HStem: 1.18066 138.699<194.187 225.536 225.536 238.836> 292.83 134.899<194.187 225.536 194.187 226.486> 552.181 138.7<194.187 226.486 194.187 194.187>
VStem: 44.0859 150.101<139.88 292.83 139.88 427.729 427.729 552.181> 284.437 151.05<200.459 232.438>
LayerCount: 2
Fore
SplineSet
379.069335938 362.48828125 m 1
 404.927734375 343.809570312 435.486328125 311.026367188 435.486328125 208.280273438 c 0
 435.486328125 55.69921875 368.435546875 1.1806640625 238.8359375 1.1806640625 c 2
 44.0859375 1.1806640625 l 1
 44.0859375 690.880859375 l 1
 238.8359375 690.880859375 l 2
 359.060546875 690.880859375 433.5859375 645.28515625 433.5859375 497.080078125 c 0
 433.5859375 462.874023438 427.909179688 432.771484375 415.807617188 407.143554688 c 0
 407.4296875 389.400390625 394.96484375 374.452148438 379.069335938 362.48828125 c 1
194.186523438 427.729492188 m 1
 226.486328125 427.729492188 l 2
 251.622070312 427.729492188 264.80859375 433.748046875 270.59375 440.3828125 c 0
 277.09765625 447.84375 282.536132812 463.485351562 282.536132812 489.479492188 c 0
 282.536132812 516.923828125 276.8984375 532.954101562 270.741210938 539.834960938 c 0
 265.010742188 546.239257812 251.6953125 552.180664062 226.486328125 552.180664062 c 2
 194.186523438 552.180664062 l 1
 194.186523438 427.729492188 l 1
284.436523438 216.830078125 m 0
 284.436523438 248.046875 278.396484375 267.71875 270.630859375 277.374023438 c 0
 263.37109375 286.400390625 250.000976562 292.830078125 225.536132812 292.830078125 c 2
 194.186523438 292.830078125 l 1
 194.186523438 139.879882812 l 1
 225.536132812 139.879882812 l 2
 252.431640625 139.879882812 265.841796875 146.6484375 271.734375 154.44921875 c 0
 278.630859375 163.576171875 284.436523438 184.088867188 284.436523438 216.830078125 c 0
EndSplineSet
EndChar

StartChar: C
Encoding: 67 67 37
Width: 468
GlyphClass: 2
Flags: MW
HStem: -6.41992 139.65<236.293 252.123 236.293 269.976> 560.73 139.65<234.214 261.019>
VStem: 40.2871 151.05<198.78 212.081 212.081 475.23> 295.837 151.05<454.331 490.431 490.431 491.381 454.331 514.944>
LayerCount: 2
Fore
SplineSet
244.536132812 133.23046875 m 0
 259.709960938 133.23046875 295.836914062 137.178710938 295.836914062 202.581054688 c 2
 295.836914062 236.780273438 l 1
 445.936523438 236.780273438 l 1
 445.936523438 201.630859375 l 2
 445.936523438 135.23046875 427.28515625 82.103515625 387.61328125 46.0048828125 c 0
 348.9609375 10.8349609375 299.21484375 -6.419921875 240.736328125 -6.419921875 c 0
 181.120117188 -6.419921875 131.565429688 10.7587890625 94.876953125 46.388671875 c 0
 57.7119140625 82.4814453125 40.287109375 134.38671875 40.287109375 198.780273438 c 2
 40.287109375 494.23046875 l 2
 40.287109375 559.422851562 58.8291015625 611.865234375 98.078125 647.903320312 c 0
 136.560546875 683.237304688 187.15625 700.380859375 247.387695312 700.380859375 c 0
 305.224609375 700.380859375 354.006835938 683.274414062 391.166015625 648.219726562 c 0
 429.283203125 612.259765625 446.88671875 558.77734375 446.88671875 491.380859375 c 2
 446.88671875 454.331054688 l 1
 295.836914062 454.331054688 l 1
 295.836914062 490.430664062 l 2
 295.836914062 539.45703125 277.500976562 560.73046875 244.536132812 560.73046875 c 0
 223.892578125 560.73046875 212.686523438 554.415039062 205.221679688 542.897460938 c 0
 196.9453125 530.12890625 191.336914062 507.7421875 191.336914062 475.23046875 c 2
 191.336914062 212.081054688 l 2
 191.336914062 134.346679688 228.05078125 133.23046875 244.536132812 133.23046875 c 0
EndSplineSet
EndChar

StartChar: D
Encoding: 68 68 38
Width: 464
GlyphClass: 2
Flags: MW
HStem: 1.17969 138.701<194.187 236.937> 551.23 139.649<194.187 239.786 194.187 194.187>
VStem: 44.0869 150.1<139.881 551.23 139.881 690.88 139.881 690.88> 291.087 151.05<219.682 465.731 465.731 481.617>
LayerCount: 2
Fore
SplineSet
442.13671875 485.680664062 m 2
 442.13671875 206.380859375 l 2
 442.13671875 141.772460938 423.551757812 89.65625 384.345703125 53.6572265625 c 0
 345.944335938 18.3984375 295.995117188 1.1796875 236.936523438 1.1796875 c 2
 44.0869140625 1.1796875 l 1
 44.0869140625 690.879882812 l 1
 242.63671875 690.879882812 l 2
 301.052734375 690.879882812 350.041992188 673.813476562 386.950195312 638.663085938 c 0
 424.5625 602.840820312 442.13671875 550.688476562 442.13671875 485.680664062 c 2
239.786132812 139.880859375 m 2
 257.204101562 139.880859375 267.977539062 145.6484375 276.495117188 158.080078125 c 0
 285.494140625 171.213867188 291.086914062 191.379882812 291.086914062 219.681640625 c 2
 291.086914062 465.731445312 l 2
 291.086914062 497.502929688 285.412109375 519.65234375 276.768554688 532.858398438 c 0
 268.619140625 545.307617188 257.90234375 551.23046875 239.786132812 551.23046875 c 2
 194.186523438 551.23046875 l 1
 194.186523438 139.880859375 l 1
 239.786132812 139.880859375 l 2
EndSplineSet
EndChar

StartChar: E
Encoding: 69 69 39
Width: 379
GlyphClass: 2
Flags: MW
HStem: 1.17969 138.7<194.187 370.887 194.187 370.887> 282.38 138.7<194.187 346.187 194.187 346.187> 551.229 139.65<194.187 370.887 194.187 194.187>
VStem: 44.0869 150.1<139.88 139.88 139.88 282.38 421.08 551.229> 44.0869 326.8<1.17969 139.88 551.229 690.88>
LayerCount: 2
Fore
SplineSet
194.186523438 139.879882812 m 1xf0
 370.88671875 139.879882812 l 1
 370.88671875 1.1796875 l 1
 44.0869140625 1.1796875 l 1
 44.0869140625 690.879882812 l 1
 370.88671875 690.879882812 l 1
 370.88671875 551.229492188 l 1xe8
 194.186523438 551.229492188 l 1
 194.186523438 421.080078125 l 1
 346.186523438 421.080078125 l 1
 346.186523438 282.379882812 l 1
 194.186523438 282.379882812 l 1
 194.186523438 139.879882812 l 1xf0
EndSplineSet
EndChar

StartChar: F
Encoding: 70 70 40
Width: 375
GlyphClass: 2
Flags: MW
HStem: 278.58 139.649<195.137 347.137 195.137 347.137> 551.229 139.65<195.137 370.887 195.137 195.137>
VStem: 44.0869 151.05<1.17969 278.58 1.17969 418.229 418.229 551.229>
LayerCount: 2
Fore
SplineSet
195.13671875 278.580078125 m 1
 195.13671875 1.1796875 l 1
 44.0869140625 1.1796875 l 1
 44.0869140625 690.879882812 l 1
 370.88671875 690.879882812 l 1
 370.88671875 551.229492188 l 1
 195.13671875 551.229492188 l 1
 195.13671875 418.229492188 l 1
 347.13671875 418.229492188 l 1
 347.13671875 278.580078125 l 1
 195.13671875 278.580078125 l 1
EndSplineSet
EndChar

StartChar: G
Encoding: 71 71 41
Width: 468
GlyphClass: 2
Flags: MW
HStem: -6.41992 139.649<236.293 251.133 236.293 270.287> 258.63 126.35<226.486 295.837 226.486 446.887> 560.729 139.65<234.214 252.666>
VStem: 40.2861 151.051<198.779 212.08 212.08 475.229> 226.486 220.4<258.63 384.979 166.746 384.979> 295.837 151.05<206.38 258.63 258.63 258.63>
LayerCount: 2
Fore
SplineSet
244.536132812 133.229492188 m 0xf4
 257.729492188 133.229492188 295.836914062 133.229492188 295.836914062 206.379882812 c 2
 295.836914062 258.629882812 l 1xf4
 226.486328125 258.629882812 l 1
 226.486328125 384.979492188 l 1
 446.88671875 384.979492188 l 1xf8
 446.88671875 198.779296875 l 2
 446.88671875 134.712890625 428.0625 82.77734375 388.625976562 46.537109375 c 0
 349.94140625 10.9892578125 299.837890625 -6.419921875 240.736328125 -6.419921875 c 0
 181.120117188 -6.419921875 131.565429688 10.7587890625 94.876953125 46.388671875 c 0
 57.712890625 82.48046875 40.2861328125 134.385742188 40.2861328125 198.779296875 c 2
 40.2861328125 494.229492188 l 2
 40.2861328125 559.421875 58.828125 611.864257812 98.0771484375 647.90234375 c 0
 136.559570312 683.236328125 187.155273438 700.379882812 247.38671875 700.379882812 c 0
 305.145507812 700.379882812 353.859375 683.66015625 391.038085938 649.287109375 c 0
 429.041992188 614.150390625 446.885742188 562.834960938 446.885742188 498.979492188 c 2
 446.885742188 461.9296875 l 1
 295.8359375 461.9296875 l 1
 295.8359375 498.979492188 l 2
 295.8359375 521.56640625 290.256835938 536.2578125 281.4140625 545.763671875 c 0
 272.104492188 555.771484375 260.794921875 560.729492188 244.536132812 560.729492188 c 0
 223.892578125 560.729492188 212.686523438 554.4140625 205.221679688 542.896484375 c 0
 196.9453125 530.127929688 191.336914062 507.741210938 191.336914062 475.229492188 c 2
 191.336914062 212.080078125 l 2
 191.336914062 134.345703125 228.05078125 133.229492188 244.536132812 133.229492188 c 0xf4
EndSplineSet
EndChar

StartChar: H
Encoding: 72 72 42
Width: 461
GlyphClass: 2
Flags: MW
HStem: 282.38 138.7<195.137 284.437 195.137 284.437> 670.88 20G<44.0869 195.137 195.137 195.137 284.437 435.486 435.486 435.486>
VStem: 44.0869 151.05<1.17969 282.38 1.17969 421.08 421.08 690.88> 284.437 151.05<1.17969 282.38 282.38 282.38 421.08 690.88 1.17969 690.88>
LayerCount: 2
Fore
SplineSet
435.486328125 690.879882812 m 1
 435.486328125 1.1796875 l 1
 284.436523438 1.1796875 l 1
 284.436523438 282.379882812 l 1
 195.13671875 282.379882812 l 1
 195.13671875 1.1796875 l 1
 44.0869140625 1.1796875 l 1
 44.0869140625 690.879882812 l 1
 195.13671875 690.879882812 l 1
 195.13671875 421.080078125 l 1
 284.436523438 421.080078125 l 1
 284.436523438 690.879882812 l 1
 435.486328125 690.879882812 l 1
EndSplineSet
EndChar

StartChar: I
Encoding: 73 73 43
Width: 225
GlyphClass: 2
Flags: MW
HStem: 670.88 20G<47.8867 197.986 197.986 197.986>
VStem: 47.8867 150.1<1.17969 690.88 1.17969 690.88>
LayerCount: 2
Fore
SplineSet
47.88671875 690.879882812 m 1
 197.986328125 690.879882812 l 1
 197.986328125 1.1796875 l 1
 47.88671875 1.1796875 l 1
 47.88671875 690.879882812 l 1
EndSplineSet
EndChar

StartChar: J
Encoding: 74 74 44
Width: 275
GlyphClass: 2
Flags: MW
HStem: 1.17969 139.65<20.3369 52.6367 52.6367 60.2363 20.3369 52.6367> 670.88 20G<96.3369 247.387 247.387 247.387>
VStem: 96.3369 151.05<187.38 690.88>
LayerCount: 2
Fore
SplineSet
247.38671875 174.080078125 m 2
 247.38671875 91.8837890625 212.819335938 1.1796875 60.236328125 1.1796875 c 2
 20.3369140625 1.1796875 l 1
 20.3369140625 140.830078125 l 1
 52.63671875 140.830078125 l 2
 78.544921875 140.830078125 96.3369140625 149.529296875 96.3369140625 187.379882812 c 2
 96.3369140625 690.879882812 l 1
 247.38671875 690.879882812 l 1
 247.38671875 174.080078125 l 2
EndSplineSet
EndChar

StartChar: K
Encoding: 75 75 45
Width: 461
GlyphClass: 2
Flags: MW
HStem: 670.88 20G<44.0869 194.187 194.187 194.187 305.7 461.431 461.431 461.431>
VStem: 44.0869 150.1<1.17969 162.407 444.335 690.88>
LayerCount: 2
Fore
SplineSet
318.3828125 1.1796875 m 1
 228.349609375 230.123046875 l 1
 194.186523438 162.407226562 l 1
 194.186523438 1.1796875 l 1
 44.0869140625 1.1796875 l 1
 44.0869140625 690.879882812 l 1
 194.186523438 690.879882812 l 1
 194.186523438 444.334960938 l 1
 305.700195312 690.879882812 l 1
 461.430664062 690.879882812 l 1
 315.57421875 403.21875 l 1
 479.955078125 1.1796875 l 1
 318.3828125 1.1796875 l 1
EndSplineSet
EndChar

StartChar: L
Encoding: 76 76 46
Width: 371
GlyphClass: 2
Flags: MW
HStem: 1.17969 138.7<195.137 370.887 195.137 370.887> 670.88 20G<44.0869 195.137 195.137 195.137>
VStem: 44.0869 151.05<139.88 690.88 139.88 690.88 139.88 690.88>
LayerCount: 2
Fore
SplineSet
44.0869140625 690.879882812 m 1
 195.13671875 690.879882812 l 1
 195.13671875 139.879882812 l 1
 370.88671875 139.879882812 l 1
 370.88671875 1.1796875 l 1
 44.0869140625 1.1796875 l 1
 44.0869140625 690.879882812 l 1
EndSplineSet
EndChar

StartChar: M
Encoding: 77 77 47
Width: 566
GlyphClass: 2
Flags: MW
HStem: 670.88 20G<44.0869 190.408 190.408 190.408 394.647 540.937 540.937 540.937>
VStem: 44.0869 151.05<1.17969 291.545 1.17969 690.88> 389.887 151.05<1.17969 294.421 294.421 294.421>
LayerCount: 2
Fore
SplineSet
540.936523438 690.879882812 m 1
 540.936523438 1.1796875 l 1
 389.88671875 1.1796875 l 1
 389.88671875 294.420898438 l 1
 335.801757812 128.479492188 l 1
 248.26953125 128.479492188 l 1
 195.13671875 291.544921875 l 1
 195.13671875 1.1796875 l 1
 44.0869140625 1.1796875 l 1
 44.0869140625 690.879882812 l 1
 190.408203125 690.879882812 l 1
 292.103515625 382.40234375 l 1
 394.647460938 690.879882812 l 1
 540.936523438 690.879882812 l 1
EndSplineSet
EndChar

StartChar: N
Encoding: 78 78 48
Width: 474
GlyphClass: 2
Flags: MW
HStem: 670.88 20G<44.0869 189.89 189.89 189.89 297.736 448.786 448.786 448.786>
VStem: 44.0869 151.05<1.17969 277.245 1.17969 690.88> 297.736 151.05<403.289 690.88 1.17969 690.88>
LayerCount: 2
Fore
SplineSet
448.786132812 690.879882812 m 1
 448.786132812 1.1796875 l 1
 303.162109375 1.1796875 l 1
 195.13671875 277.245117188 l 1
 195.13671875 1.1796875 l 1
 44.0869140625 1.1796875 l 1
 44.0869140625 690.879882812 l 1
 189.889648438 690.879882812 l 1
 297.736328125 403.2890625 l 1
 297.736328125 690.879882812 l 1
 448.786132812 690.879882812 l 1
EndSplineSet
EndChar

StartChar: O
Encoding: 79 79 49
Width: 468
GlyphClass: 2
Flags: MW
HStem: -6.41992 139.648<236.293 253.304 236.293 270.287> 560.729 139.651<234.214 253.594>
VStem: 40.2861 151.051<198.779 212.079 212.079 475.229> 295.837 151.05<212.08 475.229 475.229 491.115>
LayerCount: 2
Fore
SplineSet
40.2861328125 198.779296875 m 2
 40.2861328125 494.229492188 l 2
 40.2861328125 559.421875 58.828125 611.864257812 98.0771484375 647.90234375 c 0
 136.559570312 683.236328125 187.155273438 700.379882812 247.38671875 700.379882812 c 0
 305.841796875 700.379882812 354.864257812 683.120117188 391.76171875 647.627929688 c 0
 429.30859375 611.51171875 446.88671875 559.24609375 446.88671875 494.229492188 c 2
 446.88671875 198.779296875 l 2
 446.88671875 134.712890625 428.0625 82.77734375 388.625976562 46.537109375 c 0
 349.94140625 10.9892578125 299.837890625 -6.419921875 240.736328125 -6.419921875 c 0
 181.120117188 -6.419921875 131.565429688 10.7587890625 94.876953125 46.388671875 c 0
 57.712890625 82.48046875 40.2861328125 134.385742188 40.2861328125 198.779296875 c 2
191.336914062 212.079101562 m 2
 191.336914062 134.344726562 228.05078125 133.228515625 244.536132812 133.228515625 c 0
 262.071289062 133.228515625 272.873046875 138.959960938 281.330078125 151.075195312 c 0
 290.223632812 163.815429688 295.836914062 183.764648438 295.836914062 212.080078125 c 2
 295.836914062 475.229492188 l 2
 295.836914062 507.000976562 290.162109375 529.150390625 281.518554688 542.356445312 c 0
 273.369140625 554.805664062 262.65234375 560.728515625 244.536132812 560.728515625 c 0
 223.892578125 560.728515625 212.686523438 554.413085938 205.221679688 542.895507812 c 0
 196.9453125 530.126953125 191.336914062 507.740234375 191.336914062 475.228515625 c 2
 191.336914062 212.079101562 l 2
EndSplineSet
EndChar

StartChar: P
Encoding: 80 80 50
Width: 436
GlyphClass: 2
Flags: MW
HStem: 243.43 139.65<194.188 234.087 234.087 237.887 194.187 234.087> 552.18 138.7<194.188 234.087 194.188 194.188>
VStem: 44.0869 150.1<1.17969 243.43 1.17969 690.88> 283.487 151.05<450.938 484.322>
LayerCount: 2
Fore
SplineSet
434.537109375 467.629882812 m 0
 434.537109375 296.930664062 353.653320312 243.4296875 237.88671875 243.4296875 c 2
 194.186523438 243.4296875 l 1
 194.186523438 1.1796875 l 1
 44.0869140625 1.1796875 l 1
 44.0869140625 690.879882812 l 1
 237.88671875 690.879882812 l 2
 305.206054688 690.879882812 357.389648438 672.974609375 389.434570312 633.1953125 c 0
 420.594726562 594.512695312 434.537109375 538.73046875 434.537109375 467.629882812 c 0
283.487304688 467.629882812 m 0
 283.487304688 501.013671875 278.342773438 523.797851562 271.163085938 535.841796875 c 0
 265.104492188 546.004882812 255.016601562 552.1796875 234.086914062 552.1796875 c 2
 194.1875 552.1796875 l 1
 194.1875 383.080078125 l 1
 234.086914062 383.080078125 l 2
 255.016601562 383.080078125 265.104492188 389.254882812 271.163085938 399.41796875 c 0
 278.342773438 411.4609375 283.487304688 434.24609375 283.487304688 467.629882812 c 0
EndSplineSet
EndChar

StartChar: Q
Encoding: 81 81 51
Width: 468
GlyphClass: 2
Flags: MW
HStem: 560.729 139.651<234.214 253.594>
VStem: 40.2861 151.051<198.779 212.079 212.079 475.229> 295.837 151.05<212.08 475.229 475.229 491.115>
LayerCount: 2
Fore
SplineSet
40.2861328125 198.779296875 m 2
 40.2861328125 494.229492188 l 2
 40.2861328125 559.421875 58.828125 611.864257812 98.0771484375 647.90234375 c 0
 136.559570312 683.236328125 187.155273438 700.379882812 247.38671875 700.379882812 c 0
 305.841796875 700.379882812 354.864257812 683.120117188 391.76171875 647.627929688 c 0
 429.30859375 611.51171875 446.88671875 559.24609375 446.88671875 494.229492188 c 2
 446.88671875 198.779296875 l 2
 446.88671875 157.298828125 438.8515625 120.911132812 421.969726562 90.3125 c 0
 407.78515625 64.603515625 388.681640625 43.6162109375 365.12109375 27.998046875 c 1
 408.89453125 -93.59375 l 1
 277.931640625 -141.4453125 l 1
 229.564453125 -6.2158203125 l 1
 174.913085938 -4.177734375 129.249023438 13.0068359375 94.876953125 46.3876953125 c 0
 57.712890625 82.48046875 40.2861328125 134.385742188 40.2861328125 198.779296875 c 2
191.336914062 212.079101562 m 2
 191.336914062 134.344726562 228.05078125 133.228515625 244.536132812 133.228515625 c 0
 262.071289062 133.228515625 272.872070312 138.9609375 281.330078125 151.076171875 c 0
 290.224609375 163.81640625 295.836914062 183.764648438 295.836914062 212.080078125 c 2
 295.836914062 475.229492188 l 2
 295.836914062 507.000976562 290.162109375 529.150390625 281.518554688 542.356445312 c 0
 273.369140625 554.805664062 262.65234375 560.728515625 244.536132812 560.728515625 c 0
 223.892578125 560.728515625 212.686523438 554.413085938 205.221679688 542.895507812 c 0
 196.9453125 530.126953125 191.336914062 507.740234375 191.336914062 475.228515625 c 2
 191.336914062 212.079101562 l 2
EndSplineSet
EndChar

StartChar: R
Encoding: 82 82 52
Width: 461
GlyphClass: 2
Flags: MW
HStem: 552.18 138.7<195.137 195.137 195.137 238.837>
VStem: 44.0869 151.05<1.17969 264.33 1.17969 403.029 403.029 552.18> 283.486 151.05<463.654 492.537>
LayerCount: 2
Fore
SplineSet
434.536132812 478.080078125 m 0
 434.536132812 361.58984375 393.817382812 317.525390625 361.157226562 295.744140625 c 1
 462.291015625 1.1796875 l 1
 304.1796875 1.1796875 l 1
 221.530273438 264.330078125 l 1
 195.13671875 264.330078125 l 1
 195.13671875 1.1796875 l 1
 44.0869140625 1.1796875 l 1
 44.0869140625 690.879882812 l 1
 239.786132812 690.879882812 l 2
 306.734375 690.879882812 358.302734375 674.951171875 389.983398438 638.424804688 c 0
 421.063476562 602.590820312 434.536132812 548.418945312 434.536132812 478.080078125 c 0
195.13671875 552.1796875 m 1
 195.13671875 403.029296875 l 1
 238.836914062 403.029296875 l 2
 258.571289062 403.029296875 267.33203125 408.75 272.428710938 417.669921875 c 0
 278.953125 429.088867188 283.486328125 449.228515625 283.486328125 478.080078125 c 0
 283.486328125 506.993164062 279.06640625 527.057617188 272.846679688 538.114257812 c 0
 268.232421875 546.318359375 259.530273438 552.1796875 238.836914062 552.1796875 c 2
 195.13671875 552.1796875 l 1
EndSplineSet
EndChar

StartChar: S
Encoding: 83 83 53
Width: 428
GlyphClass: 2
Flags: MW
HStem: -6.41992 134.898<196.062 230.482 196.062 248.666> 566.429 134.9<212.475 232.235>
VStem: 22.0625 143.917<222.529 222.529> 27.9355 148.2<498.36 532.004> 269.235 148.2<184.429 210.157>
LayerCount: 2
Fore
SplineSet
222.685546875 566.428710938 m 0xd8
 202.264648438 566.428710938 176.135742188 561.754882812 176.135742188 508.478515625 c 0xd8
 176.135742188 488.241210938 180.750976562 474.06640625 188.283203125 464.250976562 c 0
 196.0859375 454.083984375 211.157226562 443.03125 234.3671875 432.915039062 c 2
 277.1171875 413.9140625 l 2
 382.595703125 367.036132812 417.435546875 299.072265625 417.435546875 200.6796875 c 0
 417.435546875 136.991210938 400.719726562 85.2138671875 365.161132812 48.2314453125 c 0
 329.564453125 11.2099609375 279.39453125 -6.419921875 217.936523438 -6.419921875 c 0
 157.009765625 -6.419921875 107.549804688 11.6416015625 73.2099609375 49.5576171875 c 0
 23.2529296875 104.717773438 22.5205078125 177.25390625 22.0625 222.529296875 c 1
 165.979492188 222.529296875 l 1xe8
 167.978515625 171.526367188 171.337890625 128.478515625 220.78515625 128.478515625 c 0
 240.178710938 128.478515625 250.5390625 133.946289062 256.97265625 142.524414062 c 0
 263.853515625 151.69921875 269.235351562 170.079101562 269.235351562 198.779296875 c 0
 269.235351562 221.53515625 263.995117188 237.516601562 255.317382812 248.5390625 c 0
 246.211914062 260.106445312 228.923828125 272.762695312 202.424804688 284.807617188 c 0
 202.325195312 284.852539062 157.76171875 304.763671875 157.76171875 304.763671875 c 2
 61.6767578125 347.786132812 27.935546875 408.595703125 27.935546875 502.779296875 c 0
 27.935546875 561.229492188 45.1953125 610.133789062 80.744140625 646.73828125 c 0
 116.384765625 683.4375 164.708984375 701.329101562 222.685546875 701.329101562 c 0
 280.001953125 701.329101562 327.05859375 683.577148438 360.3046875 646.756835938 c 0
 408.68359375 593.17578125 410.868164062 522.538085938 412.272460938 477.12890625 c 1
 270.545898438 477.12890625 l 1
 269.924804688 506.296875 269.34375 533.583984375 257.325195312 551.806640625 c 0
 251.344726562 560.874023438 241.78515625 566.428710938 222.685546875 566.428710938 c 0xd8
EndSplineSet
EndChar

StartChar: T
Encoding: 84 84 54
Width: 373
GlyphClass: 2
Flags: MW
HStem: 551.229 139.65<7.98633 121.986 7.98633 385.137 272.087 272.087 272.087 385.137>
VStem: 121.986 150.101<1.17969 551.229 1.17969 551.229>
LayerCount: 2
Fore
SplineSet
121.986328125 551.229492188 m 1
 7.986328125 551.229492188 l 1
 7.986328125 690.879882812 l 1
 385.13671875 690.879882812 l 1
 385.13671875 551.229492188 l 1
 272.086914062 551.229492188 l 1
 272.086914062 1.1796875 l 1
 121.986328125 1.1796875 l 1
 121.986328125 551.229492188 l 1
EndSplineSet
EndChar

StartChar: U
Encoding: 85 85 55
Width: 461
GlyphClass: 2
Flags: MW
HStem: -6.41992 139.65<228.473 248.218 228.473 295.537> 670.881 20G<44.0869 195.137 195.137 195.137 284.437 435.486 435.486 435.486>
VStem: 44.0869 151.05<190.23 193.081 193.081 690.881> 284.437 151.05<193.081 690.881>
LayerCount: 2
Fore
SplineSet
239.786132812 -6.419921875 m 0
 125.897460938 -6.419921875 44.0869140625 74.302734375 44.0869140625 190.23046875 c 2
 44.0869140625 690.880859375 l 1
 195.13671875 690.880859375 l 1
 195.13671875 193.081054688 l 2
 195.13671875 139.25 217.16015625 133.23046875 239.786132812 133.23046875 c 0
 256.649414062 133.23046875 284.436523438 135.75 284.436523438 193.081054688 c 2
 284.436523438 690.880859375 l 1
 435.486328125 690.880859375 l 1
 435.486328125 190.23046875 l 2
 435.486328125 70.3828125 351.287109375 -6.419921875 239.786132812 -6.419921875 c 0
EndSplineSet
EndChar

StartChar: V
Encoding: 86 86 56
Width: 450
GlyphClass: 2
Flags: MW
HStem: 670.88 20G<5.61621 169.808 169.808 169.808 299.343 463.507 463.507 463.507>
LayerCount: 2
Fore
SplineSet
5.6162109375 690.879882812 m 1
 169.807617188 690.879882812 l 1
 234.1875 290.639648438 l 1
 299.342773438 690.879882812 l 1
 463.506835938 690.879882812 l 1
 308.57421875 1.1796875 l 1
 160.548828125 1.1796875 l 1
 5.6162109375 690.879882812 l 1
EndSplineSet
EndChar

StartChar: W
Encoding: 87 87 57
Width: 665
GlyphClass: 2
Flags: MW
HStem: 670.88 20G<6.56641 160.762 160.762 160.762 256.054 428.719 428.719 428.719 524.012 676.307 676.307 676.307>
LayerCount: 2
Fore
SplineSet
398.34375 1.1796875 m 1
 341.325195312 323.5234375 l 1
 283.545898438 1.1796875 l 1
 129.512695312 1.1796875 l 1
 6.56640625 690.879882812 l 1
 160.76171875 690.879882812 l 1
 209.129882812 318.373046875 l 1
 256.053710938 690.879882812 l 1
 428.71875 690.879882812 l 1
 475.643554688 318.373046875 l 1
 524.01171875 690.879882812 l 1
 676.306640625 690.879882812 l 1
 553.360351562 1.1796875 l 1
 398.34375 1.1796875 l 1
EndSplineSet
EndChar

StartChar: X
Encoding: 88 88 58
Width: 417
GlyphClass: 2
Flags: MW
HStem: 670.88 20G<11.3525 163.819 163.819 163.819 272.949 425.47 425.47 425.47>
LayerCount: 2
Fore
SplineSet
1.8701171875 1.1796875 m 1
 142.552734375 358.374023438 l 1
 11.3525390625 690.879882812 l 1
 163.819335938 690.879882812 l 1
 218.771484375 523.702148438 l 1
 272.94921875 690.879882812 l 1
 425.469726562 690.879882812 l 1
 294.270507812 358.374023438 l 1
 434.953125 1.1796875 l 1
 282.541992188 1.1796875 l 1
 218.786132812 193.245117188 l 1
 154.232421875 1.1796875 l 1
 1.8701171875 1.1796875 l 1
EndSplineSet
EndChar

StartChar: Y
Encoding: 89 89 59
Width: 417
GlyphClass: 2
Flags: MW
HStem: 670.88 20G<3.24023 168.591 168.591 168.591 267.282 433.547 433.547 433.547>
VStem: 142.887 151.05<1.17969 271.051 1.17969 272.938 1.17969 272.938>
LayerCount: 2
Fore
SplineSet
267.282226562 690.879882812 m 1
 433.546875 690.879882812 l 1
 293.936523438 271.05078125 l 1
 293.936523438 1.1796875 l 1
 142.88671875 1.1796875 l 1
 142.88671875 272.938476562 l 1
 3.240234375 690.879882812 l 1
 168.590820312 690.879882812 l 1
 217.936523438 493.498046875 l 1
 267.282226562 690.879882812 l 1
EndSplineSet
EndChar

StartChar: Z
Encoding: 90 90 60
Width: 364
GlyphClass: 2
Flags: MW
HStem: 1.17969 139.65<182.688 361.387 182.688 361.387> 551.229 139.65<33.6367 199.935 33.6367 357.587>
LayerCount: 2
Fore
SplineSet
361.38671875 140.830078125 m 1
 361.38671875 1.1796875 l 1
 24.13671875 1.1796875 l 1
 24.13671875 127.140625 l 1
 199.934570312 551.229492188 l 1
 33.63671875 551.229492188 l 1
 33.63671875 690.879882812 l 1
 357.586914062 690.879882812 l 1
 357.586914062 564.935546875 l 1
 182.688476562 140.830078125 l 1
 361.38671875 140.830078125 l 1
EndSplineSet
EndChar

StartChar: bracketleft
Encoding: 91 91 61
Width: 292
GlyphClass: 2
Flags: MW
HStem: -78.6201 139.649<186.587 271.137 186.587 271.137> 598.729 139.65<186.587 271.137 186.587 186.587>
VStem: 44.0869 142.5<61.0293 598.729 61.0293 738.38 61.0293 738.38> 44.0869 227.05<-78.6201 61.0293 598.729 738.38>
LayerCount: 2
Fore
SplineSet
44.0869140625 738.379882812 m 1xd0
 271.13671875 738.379882812 l 1
 271.13671875 598.729492188 l 1xd0
 186.586914062 598.729492188 l 1
 186.586914062 61.029296875 l 1xe0
 271.13671875 61.029296875 l 1
 271.13671875 -78.6201171875 l 1
 44.0869140625 -78.6201171875 l 1
 44.0869140625 738.379882812 l 1xd0
EndSplineSet
Substitution2: "'rtla' Right to Left Alternates lookup 0 subtable" bracketright
EndChar

StartChar: backslash
Encoding: 92 92 62
Width: 306
GlyphClass: 2
Flags: MW
HStem: -8.32031 21G<166.638 288.843 166.638 166.638> 678.479 20G<36.8584 158.065 158.065 158.065>
VStem: 36.8584 251.984
LayerCount: 2
Fore
SplineSet
36.8583984375 698.479492188 m 1
 158.065429688 698.479492188 l 1
 288.842773438 -8.3203125 l 1
 166.637695312 -8.3203125 l 1
 36.8583984375 698.479492188 l 1
EndSplineSet
EndChar

StartChar: bracketright
Encoding: 93 93 63
Width: 292
GlyphClass: 2
Flags: MW
HStem: -78.6201 139.649<40.2861 123.887 40.2861 267.337 40.2861 123.887> 598.729 139.65<40.2861 123.887 40.2861 267.337>
VStem: 40.2861 227.051<-78.6201 61.0293 61.0293 61.0293 598.729 738.38 -78.6201 738.38> 123.887 143.45<61.0293 598.729 598.729 598.729>
LayerCount: 2
Fore
SplineSet
123.88671875 598.729492188 m 1xd0
 40.2861328125 598.729492188 l 1
 40.2861328125 738.379882812 l 1
 267.336914062 738.379882812 l 1
 267.336914062 -78.6201171875 l 1
 40.2861328125 -78.6201171875 l 1
 40.2861328125 61.029296875 l 1xe0
 123.88671875 61.029296875 l 1
 123.88671875 598.729492188 l 1xd0
EndSplineSet
Substitution2: "'rtla' Right to Left Alternates lookup 0 subtable" bracketleft
EndChar

StartChar: asciicircum
Encoding: 94 94 64
Width: 422
GlyphClass: 2
Flags: MW
HStem: 678.479 20G<159.705 272.367 272.367 272.367>
LayerCount: 2
Fore
SplineSet
159.705078125 698.479492188 m 1
 272.3671875 698.479492188 l 1
 405.446289062 266.229492188 l 1
 283.096679688 266.229492188 l 1
 216.036132812 490.563476562 l 1
 148.975585938 266.229492188 l 1
 26.6259765625 266.229492188 l 1
 159.705078125 698.479492188 l 1
EndSplineSet
EndChar

StartChar: underscore
Encoding: 95 95 65
Width: 428
GlyphClass: 2
Flags: MW
HStem: -109.971 99.75<4.18652 442.137 4.18652 442.137>
LayerCount: 2
Fore
SplineSet
4.1865234375 -10.220703125 m 1
 442.13671875 -10.220703125 l 1
 442.13671875 -109.970703125 l 1
 4.1865234375 -109.970703125 l 1
 4.1865234375 -10.220703125 l 1
EndSplineSet
EndChar

StartChar: grave
Encoding: 96 96 66
Width: 499
GlyphClass: 2
Flags: MW
HStem: 561.68 163.4<262.6 278.887 114.819 397.833 262.6 262.6>
VStem: 114.819 283.014<561.68 725.08>
LayerCount: 2
Fore
SplineSet
114.819335938 725.080078125 m 1
 278.88671875 725.080078125 l 1
 397.833007812 561.6796875 l 1
 262.599609375 561.6796875 l 1
 114.819335938 725.080078125 l 1
EndSplineSet
EndChar

StartChar: a
Encoding: 97 97 67
Width: 408
GlyphClass: 2
Flags: MW
HStem: -6.4209 130.148<153.347 218.039> 218.729 111.15<218.537 228.389 228.389 239.788> 413.479 131.101<203.903 216.384>
VStem: 32.6885 144.399<160.866 180.731 160.866 190.712> 239.788 144.4<168.379 218.729 218.729 218.729 329.879 367.879 1.17871 376.429 1.17871 393.84>
LayerCount: 2
Fore
SplineSet
210.337890625 413.479492188 m 0
 197.46875 413.479492188 181.836914062 407.965820312 181.836914062 381.1796875 c 2
 181.836914062 356.479492188 l 1
 45.9873046875 356.479492188 l 1
 45.9873046875 377.379882812 l 2
 45.9873046875 429.922851562 61.0654296875 472.747070312 93.3916015625 502.134765625 c 0
 124.813476562 530.701171875 165.541015625 544.580078125 213.1875 544.580078125 c 0
 265.334960938 544.580078125 308.467773438 528.833007812 339.208984375 495.921875 c 0
 369.6328125 463.350585938 384.188476562 419.797851562 384.188476562 367.87890625 c 2
 384.188476562 1.1787109375 l 1
 247.388671875 1.1787109375 l 1
 247.388671875 17.2880859375 l 1
 233.88671875 6.21484375 214.688476562 -6.4208984375 176.138671875 -6.4208984375 c 0
 130.5546875 -6.4208984375 93.068359375 9.00390625 68.1162109375 41.033203125 c 0
 43.751953125 72.3076171875 32.6884765625 114.385742188 32.6884765625 165.529296875 c 0
 32.6884765625 215.89453125 48.3974609375 257.578125 81.1064453125 287.016601562 c 0
 113.755859375 316.400390625 159.2578125 329.87890625 215.087890625 329.87890625 c 2
 239.788085938 329.87890625 l 1
 239.788085938 376.428710938 l 2
 239.788085938 411.251953125 222.4296875 413.479492188 210.337890625 413.479492188 c 0
208.438476562 123.727539062 m 0
 227.638671875 123.727539062 239.788085938 140.765625 239.788085938 168.37890625 c 2
 239.788085938 218.728515625 l 1
 228.388671875 218.728515625 l 2
 208.685546875 218.728515625 196.233398438 214.172851562 188.741210938 207.69140625 c 0
 182.356445312 202.169921875 177.087890625 191.18359375 177.087890625 170.278320312 c 0
 177.087890625 151.453125 181.008789062 139.5859375 185.928710938 133.15234375 c 0
 190.5703125 127.083007812 196.622070312 123.727539062 208.438476562 123.727539062 c 0
EndSplineSet
EndChar

StartChar: b
Encoding: 98 98 68
Width: 412
GlyphClass: 2
Flags: MW
HStem: -6.41992 132.999<214.2 273.312> 411.579 132.999<212.462 275.479> 670.878 20G<43.1357 187.535 187.535 187.535>
VStem: 43.1357 142.499<181.107 191.179 191.179 346.979> 247.386 144.4<191.179 346.979 346.979 360.527>
LayerCount: 2
Fore
SplineSet
187.53515625 524.102539062 m 1
 199.751953125 532.895507812 221.112304688 544.578125 254.985351562 544.578125 c 0
 295.971679688 544.578125 330.666015625 529.444335938 355.5546875 499.432617188 c 0
 381.03125 468.711914062 391.786132812 423.291992188 391.786132812 365.029296875 c 2
 391.786132812 173.12890625 l 2
 391.786132812 114.776367188 380.483398438 69.154296875 353.892578125 38.4453125 c 0
 328.1796875 8.7490234375 293.538085938 -6.419921875 253.086914062 -6.419921875 c 0
 218.677734375 -6.419921875 197.2890625 5.2060546875 183.735351562 14.689453125 c 1
 183.735351562 1.177734375 l 1
 43.1357421875 1.177734375 l 1
 43.1357421875 690.877929688 l 1
 187.53515625 690.877929688 l 1
 187.53515625 524.102539062 l 1
216.984375 126.579101562 m 0
 226.97265625 126.579101562 247.385742188 126.579101562 247.385742188 191.178710938 c 2
 247.385742188 346.978515625 l 2
 247.385742188 374.075195312 243.120117188 391.920898438 237.999023438 400.3203125 c 0
 233.083007812 408.3828125 227.665039062 411.579101562 216.985351562 411.579101562 c 0
 207.939453125 411.579101562 185.634765625 411.579101562 185.634765625 346.978515625 c 2
 185.634765625 191.178710938 l 2
 185.634765625 171.03515625 188.216796875 138.309570312 204.268554688 129.435546875 c 0
 207.426757812 127.689453125 211.415039062 126.579101562 216.984375 126.579101562 c 0
EndSplineSet
EndChar

StartChar: c
Encoding: 99 99 69
Width: 409
GlyphClass: 2
Flags: MW
HStem: -6.41992 133<210.695 220.661 210.695 243.542> 411.58 133<211.923 222.379>
VStem: 40.2861 144.401<192.13 346.029 346.029 346.979> 248.337 140.601<176.93 210.18 147.799 210.18 327.979 362.18 362.18 364.08>
LayerCount: 2
Fore
SplineSet
216.037109375 126.580078125 m 0
 225.28515625 126.580078125 248.336914062 126.580078125 248.336914062 176.9296875 c 2
 248.336914062 210.1796875 l 1
 388.9375 210.1796875 l 1
 388.9375 176.9296875 l 2
 388.9375 118.668945312 375.077148438 72.0712890625 344.23828125 40.130859375 c 0
 313.618164062 8.4169921875 270.096679688 -6.419921875 216.987304688 -6.419921875 c 0
 162.000976562 -6.419921875 117.163085938 8.8759765625 85.8740234375 41.6201171875 c 0
 54.05078125 74.923828125 40.2861328125 126.067382812 40.2861328125 192.129882812 c 2
 40.2861328125 346.029296875 l 2
 40.2861328125 412.091796875 54.05078125 463.236328125 85.8740234375 496.5390625 c 0
 117.163085938 529.284179688 162.000976562 544.580078125 216.987304688 544.580078125 c 0
 271.600585938 544.580078125 388.9375 528.735351562 388.9375 364.080078125 c 2
 388.9375 327.979492188 l 1
 248.336914062 327.979492188 l 1
 248.336914062 362.1796875 l 2
 248.336914062 382.342773438 244.1875 394.984375 239.065429688 401.624023438 c 0
 233.838867188 408.399414062 227.770507812 411.580078125 216.987304688 411.580078125 c 0
 206.859375 411.580078125 184.6875 411.580078125 184.6875 346.979492188 c 2
 184.6875 191.1796875 l 2
 184.6875 164.12890625 189.096679688 146.44140625 194.388671875 138.094726562 c 0
 199.625 129.837890625 205.353515625 126.580078125 216.037109375 126.580078125 c 0
EndSplineSet
EndChar

StartChar: d
Encoding: 100 100 70
Width: 412
GlyphClass: 2
Flags: MW
HStem: -6.41992 133.002<159.441 222.021> 411.582 132.998<157.544 220.878> 670.88 20G<245.486 388.937 388.937 388.937>
VStem: 40.2881 144.401<177.284 191.182 191.182 346.981> 247.389 141.548<191.182 346.981 346.981 360.507>
LayerCount: 2
Fore
SplineSet
178.038085938 544.580078125 m 0
 192.858398438 544.580078125 219.7109375 542.278320312 245.486328125 523.87890625 c 1
 245.486328125 690.879882812 l 1
 388.936523438 690.879882812 l 1
 388.936523438 1.1796875 l 1
 249.286132812 1.1796875 l 1
 249.286132812 14.9091796875 l 1
 228.702148438 0.939453125 205.370117188 -6.419921875 179.9375 -6.419921875 c 0
 138.944335938 -6.419921875 103.95703125 8.67578125 78.1806640625 38.4453125 c 0
 51.5888671875 69.1552734375 40.2880859375 114.778320312 40.2880859375 173.130859375 c 2
 40.2880859375 365.030273438 l 2
 40.2880859375 423.323242188 51.2255859375 468.811523438 77.07421875 499.529296875 c 0
 102.258789062 529.458984375 137.049804688 544.580078125 178.038085938 544.580078125 c 0
247.388671875 191.181640625 m 2
 247.388671875 346.981445312 l 2
 247.388671875 374.032226562 242.98046875 391.720703125 237.6875 400.06640625 c 0
 232.594726562 408.09765625 226.666992188 411.58203125 215.088867188 411.58203125 c 0
 204.41015625 411.58203125 198.991210938 408.385742188 194.075195312 400.323242188 c 0
 188.954101562 391.923828125 184.689453125 374.078125 184.689453125 346.981445312 c 2
 184.689453125 191.181640625 l 2
 184.689453125 163.38671875 189.05078125 145.407226562 193.975585938 137.526367188 c 0
 198.659179688 130.032226562 204.298828125 126.58203125 216.038085938 126.58203125 c 0
 228.002929688 126.58203125 234.595703125 131.76171875 239.458984375 142.01171875 c 0
 244.170898438 151.943359375 247.388671875 168.428710938 247.388671875 191.181640625 c 2
EndSplineSet
EndChar

StartChar: e
Encoding: 101 101 71
Width: 413
GlyphClass: 2
Flags: MW
HStem: -6.41992 131.099<210.625 222.154 210.625 243.496> 213.029 114<184.686 248.336 184.686 392.736 184.686 248.336>
VStem: 40.2852 144.399<173.911 329.88 173.911 365.037> 248.335 140.6<171.229 193.079 142.623 193.079>
LayerCount: 2
Fore
SplineSet
216.984375 124.678710938 m 0
 227.323242188 124.678710938 248.334960938 124.678710938 248.334960938 171.228515625 c 2
 248.334960938 193.079101562 l 1
 388.934570312 193.079101562 l 1
 388.934570312 170.279296875 l 2
 388.934570312 114.966796875 374.874023438 70.1826171875 344.095703125 39.0380859375 c 0
 313.44140625 8.0185546875 270.0078125 -6.419921875 216.984375 -6.419921875 c 0
 162.874023438 -6.419921875 118.249023438 10.181640625 86.5791015625 44.7314453125 c 0
 54.169921875 80.0869140625 40.28515625 135.13671875 40.28515625 207.330078125 c 2
 40.28515625 329.879882812 l 2
 40.28515625 400.193359375 53.4326171875 454.48828125 83.6474609375 490.890625 c 0
 113.83984375 527.266601562 158.737304688 544.580078125 214.13671875 544.580078125 c 0
 269.094726562 544.580078125 314.35546875 526.81640625 346.249023438 490.263671875 c 0
 378.423828125 453.390625 392.736328125 399.166015625 392.736328125 329.879882812 c 2
 392.736328125 213.029296875 l 1
 184.685546875 213.029296875 l 1
 184.685546875 203.529296875 184.684570312 194.029296875 184.684570312 184.529296875 c 0
 184.684570312 163.291992188 187.935546875 148.135742188 192.563476562 139.124023438 c 0
 197.936523438 128.663085938 204.265625 124.678710938 216.984375 124.678710938 c 0
216.03515625 411.579101562 m 0
 206.987304688 411.579101562 184.685546875 411.579101562 184.685546875 346.978515625 c 2
 184.685546875 327.029296875 l 1
 248.3359375 327.029296875 l 1
 248.3359375 346.978515625 l 2
 248.3359375 374.029296875 243.926757812 391.717773438 238.633789062 400.063476562 c 0
 233.541015625 408.094726562 227.61328125 411.579101562 216.03515625 411.579101562 c 0
EndSplineSet
EndChar

StartChar: f
Encoding: 102 102 72
Width: 295
GlyphClass: 2
Flags: MW
HStem: 425.83 111.149<29.8369 80.1865 29.8369 80.1865 223.637 291.087> 578.779 112.101<250.879 259.736 259.736 291.087>
VStem: 80.1865 143.45<1.17969 425.83 1.17969 425.83 536.979 540.779 1.17969 548.38 1.17969 573.192>
LayerCount: 2
Fore
SplineSet
80.1865234375 548.379882812 m 2
 80.1865234375 598.00390625 94.48828125 690.879882812 226.486328125 690.879882812 c 2
 291.086914062 690.879882812 l 1
 291.086914062 578.779296875 l 1
 259.736328125 578.779296875 l 2
 242.022460938 578.779296875 233.56640625 574.625 230.737304688 571.682617188 c 0
 227.780273438 568.606445312 223.63671875 559.272460938 223.63671875 540.779296875 c 2
 223.63671875 536.979492188 l 1
 291.086914062 536.979492188 l 1
 291.086914062 425.830078125 l 1
 223.63671875 425.830078125 l 1
 223.63671875 1.1796875 l 1
 80.1865234375 1.1796875 l 1
 80.1865234375 425.830078125 l 1
 29.8369140625 425.830078125 l 1
 29.8369140625 536.979492188 l 1
 80.1865234375 536.979492188 l 1
 80.1865234375 548.379882812 l 2
EndSplineSet
EndChar

StartChar: g
Encoding: 103 103 73
Width: 412
GlyphClass: 2
Flags: MW
HStem: -158.42 129.199<206.168 222.502 206.168 242.187> 40.1309 133<159.444 222.021> 411.581 132.998<157.545 220.879> 516.979 20G<245.487 388.938 388.938 388.938>
VStem: 40.2891 144.401<223.833 237.73 237.73 346.98 223.833 365.029 223.833 394.176> 247.39 141.548<237.73 346.98 346.98 360.506>
LayerCount: 2
Fore
SplineSet
178.0390625 544.579101562 m 0xec
 192.859375 544.579101562 219.711914062 542.278320312 245.487304688 523.877929688 c 1
 245.487304688 536.978515625 l 1
 388.9375 536.978515625 l 1xdc
 388.9375 23.978515625 l 2
 388.9375 -29.7822265625 374.116210938 -74.728515625 343.063476562 -108.279296875 c 0
 311.791992188 -142.06640625 268.3359375 -158.419921875 216.037109375 -158.419921875 c 0
 164.299804688 -158.419921875 52.697265625 -141.83203125 48.845703125 0.7099609375 c 2
 48.37109375 18.279296875 l 1
 185.639648438 18.279296875 l 1
 185.639648438 1.1796875 l 2
 185.639648438 -20.3544921875 195.346679688 -29.220703125 216.989257812 -29.220703125 c 0
 228.014648438 -29.220703125 249.2890625 -27.626953125 249.2890625 13.5302734375 c 2
 249.2890625 61.4609375 l 1
 228.705078125 47.490234375 205.373046875 40.130859375 179.940429688 40.130859375 c 0
 138.947265625 40.130859375 103.959960938 55.2265625 78.18359375 84.99609375 c 0
 51.5927734375 115.706054688 40.2890625 161.327148438 40.2890625 219.6796875 c 2
 40.2890625 365.029296875 l 2
 40.2890625 423.322265625 51.2265625 468.810546875 77.0751953125 499.528320312 c 0
 102.259765625 529.458007812 137.05078125 544.579101562 178.0390625 544.579101562 c 0xec
247.389648438 237.73046875 m 2
 247.389648438 346.98046875 l 2
 247.389648438 374.03125 242.981445312 391.719726562 237.688476562 400.065429688 c 0
 232.595703125 408.096679688 226.66796875 411.581054688 215.08984375 411.581054688 c 0xec
 204.411132812 411.581054688 198.9921875 408.384765625 194.076171875 400.322265625 c 0
 188.955078125 391.922851562 184.690429688 374.077148438 184.690429688 346.98046875 c 2
 184.690429688 237.73046875 l 2
 184.690429688 209.935546875 189.051757812 191.956054688 193.9765625 184.075195312 c 0
 198.66015625 176.581054688 204.298828125 173.130859375 216.0390625 173.130859375 c 0
 228.00390625 173.130859375 234.596679688 178.310546875 239.459960938 188.560546875 c 0
 244.171875 198.4921875 247.389648438 214.977539062 247.389648438 237.73046875 c 2
EndSplineSet
EndChar

StartChar: h
Encoding: 104 104 74
Width: 412
GlyphClass: 2
Flags: MW
HStem: 411.58 132.999<211.808 269.688> 670.88 20G<43.1367 187.535 187.535 187.535>
VStem: 43.1367 144.399<1.17969 375.479 1.17969 690.88> 244.537 144.4<1.17969 375.479 375.479 376.43 1.17969 382.878>
LayerCount: 2
Fore
SplineSet
216.037109375 411.580078125 m 0
 207.579101562 411.580078125 187.536132812 410.048828125 187.536132812 375.479492188 c 2
 187.536132812 1.1796875 l 1
 43.13671875 1.1796875 l 1
 43.13671875 690.879882812 l 1
 187.53515625 690.879882812 l 1
 187.53515625 525.393554688 l 1
 206.330078125 537.875976562 227.05078125 544.579101562 249.286132812 544.579101562 c 0
 290.088867188 544.579101562 388.9375 535.23828125 388.9375 376.4296875 c 2
 388.9375 1.1796875 l 1
 244.537109375 1.1796875 l 1
 244.537109375 375.479492188 l 2
 244.537109375 390.27734375 240.3203125 411.580078125 216.037109375 411.580078125 c 0
EndSplineSet
EndChar

StartChar: i
Encoding: 105 105 75
Width: 217
GlyphClass: 2
Flags: MW
HStem: 516.979 20G<46.9365 191.337 191.337 191.337> 564.529 126.351<46.9365 191.337 46.9365 191.337>
VStem: 46.9365 144.4<1.17969 536.979 1.17969 536.979 564.529 690.88>
LayerCount: 2
Fore
SplineSet
46.9365234375 536.979492188 m 1
 191.336914062 536.979492188 l 1
 191.336914062 1.1796875 l 1
 46.9365234375 1.1796875 l 1
 46.9365234375 536.979492188 l 1
46.9365234375 690.879882812 m 1
 191.336914062 690.879882812 l 1
 191.336914062 564.529296875 l 1
 46.9365234375 564.529296875 l 1
 46.9365234375 690.879882812 l 1
EndSplineSet
EndChar

StartChar: j
Encoding: 106 106 76
Width: 217
GlyphClass: 2
Flags: MW
HStem: 516.979 20G<46.9365 191.337 191.337 191.337> 564.529 126.351<46.9365 191.337 46.9365 191.337>
VStem: 46.9365 144.4<30.6299 536.979 564.529 690.88>
LayerCount: 2
Fore
SplineSet
46.9365234375 690.879882812 m 1
 191.336914062 690.879882812 l 1
 191.336914062 564.529296875 l 1
 46.9365234375 564.529296875 l 1
 46.9365234375 690.879882812 l 1
191.336914062 23.9794921875 m 2
 191.336914062 -58.216796875 156.76953125 -148.919921875 4.1865234375 -148.919921875 c 2
 -18.61328125 -148.919921875 l 1
 -18.61328125 -15.919921875 l 1
 3.236328125 -15.919921875 l 2
 29.14453125 -15.919921875 46.9365234375 -7.220703125 46.9365234375 30.6298828125 c 2
 46.9365234375 536.979492188 l 1
 191.336914062 536.979492188 l 1
 191.336914062 23.9794921875 l 2
EndSplineSet
EndChar

StartChar: k
Encoding: 107 107 77
Width: 422
GlyphClass: 2
Flags: MW
HStem: 516.979 20G<280.338 436.652 436.652 436.652> 670.88 20G<43.1367 187.536 187.536 187.536>
VStem: 43.1367 144.399<1.17969 154.725 378.629 690.88>
LayerCount: 2
Fore
SplineSet
276.65625 1.1796875 m 1
 204.7421875 180.963867188 l 1
 187.536132812 154.724609375 l 1
 187.536132812 1.1796875 l 1
 43.13671875 1.1796875 l 1
 43.13671875 690.879882812 l 1
 187.536132812 690.879882812 l 1
 187.536132812 378.62890625 l 1
 280.337890625 536.979492188 l 1
 436.65234375 536.979492188 l 1
 296.198242188 321.616210938 l 1
 435.952148438 1.1796875 l 1
 276.65625 1.1796875 l 1
EndSplineSet
EndChar

StartChar: l
Encoding: 108 108 78
Width: 250
GlyphClass: 2
Flags: MW
HStem: 1.17969 133<206.107 253.087 231.236 253.087 231.236 253.087> 670.88 20G<43.1367 187.536 187.536 187.536>
VStem: 43.1367 144.399<174.08 180.729 180.729 690.88>
LayerCount: 2
Fore
SplineSet
230.286132812 1.1796875 m 2
 181.927734375 1.1796875 43.13671875 7.5927734375 43.13671875 174.080078125 c 2
 43.13671875 690.879882812 l 1
 187.536132812 690.879882812 l 1
 187.536132812 180.729492188 l 2
 187.536132812 142.8828125 205.32421875 134.1796875 231.236328125 134.1796875 c 2
 253.086914062 134.1796875 l 1
 253.086914062 1.1796875 l 1
 230.286132812 1.1796875 l 2
EndSplineSet
EndChar

StartChar: m
Encoding: 109 109 79
Width: 616
GlyphClass: 2
Flags: MW
HStem: 411.58 133.001<211.808 261.174 424.566 429.579> 516.979 20G<43.1367 182.787 182.787 182.787>
VStem: 43.1367 144.399<1.17969 375.479 1.17969 536.979> 244.537 144.4<1.17969 375.479 1.17969 382.878> 445.938 144.399<1.17969 375.479 375.479 376.43 1.17969 382.878>
LayerCount: 2
Fore
SplineSet
216.037109375 411.580078125 m 0xb8
 207.579101562 411.580078125 187.536132812 410.048828125 187.536132812 375.479492188 c 2
 187.536132812 1.1796875 l 1
 43.13671875 1.1796875 l 1
 43.13671875 536.979492188 l 1
 182.787109375 536.979492188 l 1x78
 182.787109375 523.202148438 l 1
 202.5546875 537.180664062 225.260742188 544.581054688 250.237304688 544.581054688 c 0
 272.111328125 544.581054688 315.099609375 539.170898438 349.331054688 501.506835938 c 1
 367.5390625 518.763671875 402.245117188 544.581054688 446.887695312 544.581054688 c 0
 521.54296875 544.581054688 590.336914062 513.89453125 590.336914062 376.4296875 c 2
 590.336914062 1.1796875 l 1
 445.9375 1.1796875 l 1
 445.9375 375.479492188 l 2
 445.9375 390.27734375 441.720703125 411.580078125 417.4375 411.580078125 c 0
 405.75390625 411.580078125 388.9375 406.237304688 388.9375 375.479492188 c 2
 388.9375 1.1796875 l 1
 244.537109375 1.1796875 l 1
 244.537109375 375.479492188 l 2
 244.537109375 390.27734375 240.3203125 411.580078125 216.037109375 411.580078125 c 0xb8
EndSplineSet
EndChar

StartChar: n
Encoding: 110 110 80
Width: 412
GlyphClass: 2
Flags: MW
HStem: 411.58 133<211.808 281.436> 516.979 20G<43.1367 182.787 182.787 182.787>
VStem: 43.1367 144.399<1.17969 375.479 1.17969 536.979> 244.537 144.4<1.17969 375.479 375.479 376.43 1.17969 382.878>
LayerCount: 2
Fore
SplineSet
216.037109375 411.580078125 m 0xb0
 207.579101562 411.580078125 187.536132812 410.048828125 187.536132812 375.479492188 c 2
 187.536132812 1.1796875 l 1
 43.13671875 1.1796875 l 1
 43.13671875 536.979492188 l 1
 182.787109375 536.979492188 l 1x70
 182.787109375 522.993164062 l 1
 202.508789062 537.059570312 224.861328125 544.580078125 249.287109375 544.580078125 c 0
 313.583984375 544.580078125 388.9375 515.016601562 388.9375 376.4296875 c 2
 388.9375 1.1796875 l 1
 244.537109375 1.1796875 l 1
 244.537109375 375.479492188 l 2
 244.537109375 390.27734375 240.3203125 411.580078125 216.037109375 411.580078125 c 0xb0
EndSplineSet
EndChar

StartChar: o
Encoding: 111 111 81
Width: 413
GlyphClass: 2
Flags: MW
HStem: -6.41992 21G<189.494 244.476>
VStem: 40.2861 144.4<192.13 346.029 346.029 346.979> 248.337 144.4<191.18 192.13 192.13 346.029>
LayerCount: 2
Fore
SplineSet
40.2861328125 192.129882812 m 2
 40.2861328125 346.029296875 l 2
 40.2861328125 412.091796875 54.05078125 463.236328125 85.8740234375 496.5390625 c 0
 117.163085938 529.284179688 162.000976562 544.580078125 216.987304688 544.580078125 c 0
 271.96484375 544.580078125 316.696289062 529.288085938 347.694335938 496.465820312 c 0
 379.157226562 463.15234375 392.737304688 412.063476562 392.737304688 346.029296875 c 2
 392.737304688 192.129882812 l 2
 392.737304688 126.095703125 379.157226562 75.0078125 347.694335938 41.693359375 c 0
 316.696289062 8.8720703125 271.96484375 -6.419921875 216.987304688 -6.419921875 c 0
 162.000976562 -6.419921875 117.163085938 8.8759765625 85.8740234375 41.6201171875 c 0
 54.05078125 74.923828125 40.2861328125 126.067382812 40.2861328125 192.129882812 c 2
216.036132812 126.580078125 m 0
 226.163085938 126.580078125 248.336914062 126.580078125 248.336914062 191.1796875 c 2
 248.336914062 346.979492188 l 2
 248.336914062 374.030273438 243.928710938 391.71875 238.635742188 400.064453125 c 0
 233.54296875 408.095703125 227.614257812 411.580078125 216.037109375 411.580078125 c 0
 206.991210938 411.580078125 184.686523438 411.580078125 184.686523438 346.979492188 c 2
 184.686523438 191.1796875 l 2
 184.686523438 164.12890625 189.095703125 146.44140625 194.387695312 138.094726562 c 0
 199.624023438 129.837890625 205.352539062 126.580078125 216.036132812 126.580078125 c 0
EndSplineSet
EndChar

StartChar: p
Encoding: 112 112 82
Width: 412
GlyphClass: 2
Flags: MW
HStem: -6.41992 132.998<214.201 273.312> 411.578 133<212.463 275.479> 516.98 20G<43.1367 183.735 183.735 183.735>
VStem: 43.1367 144.399<-148.92 11.5 -148.92 536.98> 247.387 144.399<191.178 346.978 346.978 360.526>
LayerCount: 2
Fore
SplineSet
254.985351562 544.578125 m 0xd8
 295.971679688 544.578125 330.666015625 529.444335938 355.5546875 499.432617188 c 0
 381.03125 468.711914062 391.786132812 423.291992188 391.786132812 365.029296875 c 2
 391.786132812 173.12890625 l 2
 391.786132812 114.776367188 380.483398438 69.154296875 353.892578125 38.4453125 c 0
 328.1796875 8.7490234375 293.538085938 -6.419921875 253.086914062 -6.419921875 c 0
 228.850585938 -6.419921875 206.74609375 -0.3447265625 187.536132812 11.5 c 1
 187.536132812 -148.919921875 l 1
 43.13671875 -148.919921875 l 1
 43.13671875 536.98046875 l 1
 183.735351562 536.98046875 l 1xb8
 183.735351562 522.282226562 l 1
 203.946289062 536.9453125 228.005859375 544.578125 254.985351562 544.578125 c 0xd8
216.985351562 126.578125 m 0
 226.973632812 126.578125 247.38671875 126.578125 247.38671875 191.177734375 c 2
 247.38671875 346.977539062 l 2
 247.38671875 374.07421875 243.12109375 391.919921875 238 400.319335938 c 0
 233.083984375 408.381835938 227.666015625 411.578125 216.986328125 411.578125 c 0xd8
 207.940429688 411.578125 185.635742188 411.578125 185.635742188 346.977539062 c 2
 185.635742188 191.177734375 l 2
 185.635742188 171.034179688 188.217773438 138.30859375 204.26953125 129.434570312 c 0
 207.427734375 127.688476562 211.416015625 126.578125 216.985351562 126.578125 c 0
EndSplineSet
EndChar

StartChar: q
Encoding: 113 113 83
Width: 412
GlyphClass: 2
Flags: MW
HStem: -6.41797 133<159.441 222.02> 411.582 132.998<157.542 220.877> 516.979 20G<249.286 388.937 388.937 388.937>
VStem: 40.2861 144.402<177.284 191.182 191.182 346.981> 245.486 143.45<-148.92 11.501 11.501 11.501>
LayerCount: 2
Fore
SplineSet
249.286132812 536.979492188 m 1xb8
 388.936523438 536.979492188 l 1xb8
 388.936523438 -148.919921875 l 1
 245.486328125 -148.919921875 l 1
 245.486328125 11.5009765625 l 1
 226.27734375 -0.34375 204.172851562 -6.41796875 179.9375 -6.41796875 c 0
 138.944335938 -6.41796875 103.95703125 8.677734375 78.1806640625 38.447265625 c 0
 51.58984375 69.15625 40.2861328125 114.778320312 40.2861328125 173.130859375 c 2
 40.2861328125 365.030273438 l 2
 40.2861328125 423.323242188 51.2236328125 468.811523438 77.072265625 499.529296875 c 0
 102.256835938 529.458984375 137.047851562 544.580078125 178.036132812 544.580078125 c 0xd8
 204.75 544.580078125 228.766601562 536.677734375 249.286132812 521.661132812 c 1
 249.286132812 536.979492188 l 1xb8
247.387695312 191.181640625 m 2
 247.387695312 346.981445312 l 2
 247.387695312 374.032226562 242.979492188 391.720703125 237.686523438 400.06640625 c 0
 232.59375 408.09765625 226.666015625 411.58203125 215.087890625 411.58203125 c 0xd8
 204.409179688 411.58203125 198.990234375 408.385742188 194.07421875 400.323242188 c 0
 188.953125 391.923828125 184.688476562 374.078125 184.688476562 346.981445312 c 2
 184.688476562 191.181640625 l 2
 184.688476562 163.38671875 189.049804688 145.407226562 193.974609375 137.526367188 c 0
 198.659179688 130.032226562 204.297851562 126.58203125 216.037109375 126.58203125 c 0
 228.001953125 126.58203125 234.594726562 131.76171875 239.458007812 142.01171875 c 0
 244.169921875 151.943359375 247.387695312 168.428710938 247.387695312 191.181640625 c 2
EndSplineSet
EndChar

StartChar: r
Encoding: 114 114 84
Width: 313
GlyphClass: 2
Flags: MW
HStem: 402.08 144.399<241.049 259.15> 516.979 20G<43.1367 182.786 182.786 182.786>
VStem: 43.1367 144.399<1.17969 333.68 1.17969 536.979>
LayerCount: 2
Fore
SplineSet
248.336914062 402.080078125 m 0xa0
 227.201171875 402.080078125 187.536132812 394.0390625 187.536132812 333.6796875 c 2
 187.536132812 1.1796875 l 1
 43.13671875 1.1796875 l 1
 43.13671875 536.979492188 l 1
 182.786132812 536.979492188 l 1x60
 182.786132812 519.509765625 l 1
 191.717773438 526.872070312 217.612304688 546.479492188 264.486328125 546.479492188 c 0
 285.606445312 546.479492188 294.626953125 544.224609375 315.786132812 538.93359375 c 1
 315.786132812 385.107421875 l 1
 279.958007812 398.377929688 269.963867188 402.080078125 248.336914062 402.080078125 c 0xa0
EndSplineSet
EndChar

StartChar: s
Encoding: 115 115 85
Width: 395
GlyphClass: 2
Flags: MW
HStem: -6.41992 126.349<204.467 219.562 204.467 234.439> 419.18 125.399<192.553 211.919>
VStem: 32.6846 140.6<162.679 185.479 142.391 185.479> 243.585 141.551<141.515 163.494>
LayerCount: 2
Fore
SplineSet
206.534179688 419.1796875 m 0
 178.572265625 419.1796875 176.134765625 400.045898438 176.134765625 388.779296875 c 0
 176.134765625 378.20703125 178.560546875 370.91015625 182.458007812 365.454101562 c 0
 185.786132812 360.794921875 194.994140625 353.568359375 211.387695312 346.54296875 c 2
 273.241210938 319.8984375 l 2
 350.458007812 286.030273438 385.135742188 238.603515625 385.135742188 158.879882812 c 0
 385.135742188 111.259765625 368.965820312 70.5673828125 336.623046875 39.6455078125 c 0
 304.075195312 8.5283203125 260.442382812 -6.419921875 208.436523438 -6.419921875 c 0
 156.5234375 -6.419921875 113.084960938 8.1318359375 80.7998046875 38.623046875 c 0
 48.3359375 69.283203125 32.6845703125 111.71875 32.6845703125 162.678710938 c 2
 32.6845703125 185.478515625 l 1
 173.284179688 185.478515625 l 1
 173.284179688 162.678710938 l 2
 173.284179688 122.103515625 198.599609375 119.928710938 210.334960938 119.928710938 c 0
 228.7890625 119.928710938 243.584960938 126.05078125 243.584960938 156.979492188 c 0
 243.584960938 170.008789062 239.693359375 186.439453125 204.498046875 202.081054688 c 0
 204.353515625 202.145507812 147.591796875 226.741210938 147.591796875 226.741210938 c 2
 107.311523438 243.909179688 77.521484375 264.670898438 60.18359375 291.055664062 c 0
 43.3837890625 316.62109375 35.5341796875 347.994140625 35.5341796875 384.029296875 c 0
 35.5341796875 429.356445312 51.728515625 468.560546875 83.5751953125 498.991210938 c 0
 115.65234375 529.643554688 157.828125 544.579101562 207.484375 544.579101562 c 0
 257.141601562 544.579101562 299.31640625 529.643554688 331.393554688 498.991210938 c 0
 363.465820312 468.344726562 379.434570312 427.794921875 379.434570312 380.228515625 c 2
 379.434570312 353.62890625 l 1
 238.834960938 353.62890625 l 1
 238.834960938 376.428710938 l 2
 238.834960938 416.702148438 217.3046875 419.1796875 206.534179688 419.1796875 c 0
EndSplineSet
EndChar

StartChar: t
Encoding: 116 116 86
Width: 310
GlyphClass: 2
Flags: MW
HStem: 1.17969 133<216.51 290.137 269.236 290.137> 425.83 111.149<22.2363 78.2861 22.2363 78.2861 222.687 302.486>
VStem: 78.2861 144.4<174.08 180.729 180.729 425.83 536.979 619.755 619.755 619.755>
LayerCount: 2
Fore
SplineSet
269.236328125 1.1796875 m 2
 163.784179688 1.1796875 78.2861328125 41.927734375 78.2861328125 174.080078125 c 2
 78.2861328125 425.830078125 l 1
 22.236328125 425.830078125 l 1
 22.236328125 536.979492188 l 1
 78.2861328125 536.979492188 l 1
 78.2861328125 619.754882812 l 1
 222.686523438 678.26171875 l 1
 222.686523438 536.979492188 l 1
 302.486328125 536.979492188 l 1
 302.486328125 425.830078125 l 1
 222.686523438 425.830078125 l 1
 222.686523438 180.729492188 l 2
 222.686523438 145.763671875 238.518554688 134.1796875 269.236328125 134.1796875 c 2
 290.13671875 134.1796875 l 1
 290.13671875 1.1796875 l 1
 269.236328125 1.1796875 l 2
EndSplineSet
EndChar

StartChar: u
Encoding: 117 117 87
Width: 412
GlyphClass: 2
Flags: MW
HStem: -6.41992 21G<184.846 237.512> 516.979 20G<244.536 388.937 388.937 388.937>
VStem: 43.1357 144.399<186.43 209.229 209.229 536.979> 244.536 144.4<209.229 536.979>
LayerCount: 2
Fore
SplineSet
187.53515625 209.229492188 m 2
 187.53515625 133.974609375 192.96875 126.580078125 216.03515625 126.580078125 c 0
 228.3515625 126.580078125 233.4453125 129.607421875 235.00390625 131.244140625 c 0
 240.484375 136.998046875 244.536132812 144.544921875 244.536132812 209.228515625 c 2
 244.536132812 536.978515625 l 1
 388.936523438 536.978515625 l 1
 388.936523438 186.428710938 l 2
 388.936523438 90.845703125 365.528320312 43.8271484375 320.3515625 16.466796875 c 0
 293.918945312 0.458984375 258.98828125 -6.419921875 216.036132812 -6.419921875 c 0
 153.655273438 -6.419921875 106.004882812 8.646484375 79.2705078125 44.6806640625 c 0
 54.1611328125 78.5224609375 43.1357421875 126.20703125 43.1357421875 186.4296875 c 2
 43.1357421875 536.979492188 l 1
 187.53515625 536.979492188 l 1
 187.53515625 209.229492188 l 2
EndSplineSet
EndChar

StartChar: v
Encoding: 118 118 88
Width: 411
GlyphClass: 2
Flags: MW
HStem: 516.979 20G<9.83203 167.462 167.462 167.462 263.62 421.291 421.291 421.291>
LayerCount: 2
Fore
SplineSet
9.83203125 536.979492188 m 1
 167.461914062 536.979492188 l 1
 215.908203125 285.208007812 l 1
 263.620117188 536.979492188 l 1
 421.291015625 536.979492188 l 1
 287.340820312 1.1796875 l 1
 143.782226562 1.1796875 l 1
 9.83203125 536.979492188 l 1
EndSplineSet
EndChar

StartChar: w
Encoding: 119 119 89
Width: 603
GlyphClass: 2
Flags: MW
HStem: 516.979 20G<10.3105 167.999 167.999 167.999 250.279 369.894 369.894 369.894 452.174 610.852 610.852 610.852>
LayerCount: 2
Fore
SplineSet
10.310546875 536.979492188 m 1
 167.999023438 536.979492188 l 1
 205.271484375 295.764648438 l 1
 250.279296875 536.979492188 l 1
 369.893554688 536.979492188 l 1
 414.901367188 295.764648438 l 1
 452.173828125 536.979492188 l 1
 610.8515625 536.979492188 l 1
 488.064453125 1.1796875 l 1
 352.868164062 1.1796875 l 1
 309.947265625 232.234375 l 1
 266.311523438 1.1796875 l 1
 132.083984375 1.1796875 l 1
 10.310546875 536.979492188 l 1
EndSplineSet
EndChar

StartChar: x
Encoding: 120 120 90
Width: 384
GlyphClass: 2
Flags: MW
HStem: 516.979 20G<12.1553 161.61 161.61 161.61 241.159 392.835 392.835 392.835>
LayerCount: 2
Fore
SplineSet
248.567382812 1.1796875 m 1
 199.165039062 113.666015625 l 1
 156.602539062 1.1796875 l 1
 5.6640625 1.1796875 l 1
 126.118164062 278.528320312 l 1
 12.1552734375 536.979492188 l 1
 161.610351562 536.979492188 l 1
 205.067382812 439.016601562 l 1
 241.159179688 536.979492188 l 1
 392.834960938 536.979492188 l 1
 274.698242188 280.337890625 l 1
 398.09375 1.1796875 l 1
 248.567382812 1.1796875 l 1
EndSplineSet
EndChar

StartChar: y
Encoding: 121 121 91
Width: 411
GlyphClass: 2
Flags: MW
HStem: -148.92 131.1<50.7363 71.6367 50.7363 107.736> 516.979 20G<9.53418 167.07 167.07 167.07 269.542 421.348 421.348 421.348>
LayerCount: 2
Fore
SplineSet
71.63671875 -148.919921875 m 2
 50.736328125 -148.919921875 l 1
 50.736328125 -17.8203125 l 1
 107.736328125 -17.8203125 l 2
 132.795898438 -17.8203125 146.07421875 -12.474609375 152.776367188 -5.7802734375 c 1
 9.5341796875 536.979492188 l 1
 167.0703125 536.979492188 l 1
 220.17578125 296.8828125 l 1
 269.541992188 536.979492188 l 1
 421.34765625 536.979492188 l 1
 280.146484375 -21.896484375 l 2
 272.154296875 -54.533203125 251.890625 -119.6328125 170.69140625 -139.411132812 c 0
 144.040039062 -145.90234375 111.173828125 -148.919921875 71.63671875 -148.919921875 c 2
EndSplineSet
EndChar

StartChar: z
Encoding: 122 122 92
Width: 388
GlyphClass: 2
Flags: MW
HStem: 1.17969 127.3<199.849 367.087 199.849 367.087> 409.68 127.3<40.2861 367.087 40.2861 210.144>
VStem: 40.2861 326.801<1.17969 115.969 115.969 115.969 422.253 536.979>
LayerCount: 2
Fore
SplineSet
40.2861328125 409.6796875 m 1
 40.2861328125 536.979492188 l 1
 367.086914062 536.979492188 l 1
 367.086914062 422.252929688 l 1
 199.848632812 128.479492188 l 1
 367.086914062 128.479492188 l 1
 367.086914062 1.1796875 l 1
 40.2861328125 1.1796875 l 1
 40.2861328125 115.96875 l 1
 210.143554688 409.6796875 l 1
 40.2861328125 409.6796875 l 1
EndSplineSet
EndChar

StartChar: braceleft
Encoding: 123 123 93
Width: 326
GlyphClass: 2
Flags: MW
HStem: -78.6201 132.05<214.848 305.337 269.236 305.337 269.236 305.337> 606.329 132.05<264.096 269.236 269.236 305.337>
VStem: 102.986 143.45<67.5479 80.0293 80.0293 205.43 67.5479 214.929 67.5479 226.442 450.529 459.079 459.079 579.729>
LayerCount: 2
Fore
SplineSet
246.436523438 80.029296875 m 2
 246.436523438 55.06640625 258.956054688 53.4296875 269.236328125 53.4296875 c 2
 305.336914062 53.4296875 l 1
 305.336914062 -78.6201171875 l 1
 235.036132812 -78.6201171875 l 2
 194.659179688 -78.6201171875 160.958984375 -67.482421875 137.255859375 -43.0146484375 c 0
 113.65234375 -18.650390625 102.986328125 15.4296875 102.986328125 56.279296875 c 2
 102.986328125 214.928710938 l 2
 102.986328125 237.955078125 98.30078125 251.228515625 93.7431640625 256.600585938 c 0
 90.076171875 260.922851562 79.58984375 266.228515625 57.3876953125 266.228515625 c 2
 40.287109375 266.228515625 l 1
 40.287109375 398.279296875 l 1
 57.3876953125 398.279296875 l 2
 79.58984375 398.279296875 90.076171875 403.584960938 93.7431640625 407.907226562 c 0
 98.2177734375 413.180664062 102.986328125 426.791992188 102.986328125 450.529296875 c 2
 102.986328125 603.478515625 l 2
 102.986328125 644.328125 113.651367188 678.409179688 137.255859375 702.7734375 c 0
 160.958984375 727.240234375 194.659179688 738.37890625 235.036132812 738.37890625 c 2
 305.336914062 738.37890625 l 1
 305.336914062 606.329101562 l 1
 269.236328125 606.329101562 l 2
 258.955078125 606.329101562 246.436523438 604.69140625 246.436523438 579.728515625 c 2
 246.436523438 459.079101562 l 2
 246.436523438 379.25390625 234.291015625 352.134765625 207.303710938 332.375976562 c 1
 233.705078125 312.404296875 246.436523438 285.383789062 246.436523438 205.4296875 c 2
 246.436523438 80.029296875 l 2
EndSplineSet
Substitution2: "'rtla' Right to Left Alternates lookup 0 subtable" braceright
EndChar

StartChar: bar
Encoding: 124 124 94
Width: 274
GlyphClass: 2
Flags: MW
VStem: 76.3867 140.6<-78.6201 738.38 -78.6201 738.38>
LayerCount: 2
Fore
SplineSet
76.38671875 738.379882812 m 1
 216.986328125 738.379882812 l 1
 216.986328125 -78.6201171875 l 1
 76.38671875 -78.6201171875 l 1
 76.38671875 738.379882812 l 1
EndSplineSet
EndChar

StartChar: braceright
Encoding: 125 125 95
Width: 326
GlyphClass: 2
Flags: MW
HStem: -78.6201 132.05<40.2861 76.3877 76.3877 81.5278 40.2861 111.536 40.2861 76.3877> 606.33 132.05<40.2871 76.3877 40.2871 111.537>
VStem: 99.1875 143.448<80.0293 205.43 205.43 214.93>
LayerCount: 2
Fore
SplineSet
99.1875 579.729492188 m 2
 99.1875 604.692382812 86.66796875 606.330078125 76.3876953125 606.330078125 c 2
 40.287109375 606.330078125 l 1
 40.287109375 738.379882812 l 1
 111.537109375 738.379882812 l 2
 151.901367188 738.379882812 185.516601562 727.248046875 208.939453125 702.672851562 c 0
 232.178710938 678.291015625 242.63671875 644.274414062 242.63671875 603.479492188 c 2
 242.63671875 450.529296875 l 2
 242.63671875 426.79296875 247.405273438 413.181640625 251.879882812 407.908203125 c 0
 255.546875 403.5859375 266.033203125 398.279296875 288.235351562 398.279296875 c 2
 305.3359375 398.279296875 l 1
 305.3359375 266.229492188 l 1
 288.235351562 266.229492188 l 2
 266.032226562 266.229492188 255.545898438 260.922851562 251.87890625 256.6015625 c 0
 247.321289062 251.229492188 242.635742188 237.955078125 242.635742188 214.9296875 c 2
 242.635742188 56.279296875 l 2
 242.635742188 15.484375 232.177734375 -18.53125 208.938476562 -42.9140625 c 0
 185.515625 -67.48828125 151.900390625 -78.6201171875 111.536132812 -78.6201171875 c 2
 40.2861328125 -78.6201171875 l 1
 40.2861328125 53.4296875 l 1
 76.3876953125 53.4296875 l 2
 86.66796875 53.4296875 99.1875 55.0673828125 99.1875 80.029296875 c 2
 99.1875 205.4296875 l 2
 99.1875 282.96875 111.645507812 311.396484375 138.600585938 332.172851562 c 1
 111.321289062 351.998046875 99.1875 379.2265625 99.1875 459.080078125 c 2
 99.1875 579.729492188 l 2
EndSplineSet
Substitution2: "'rtla' Right to Left Alternates lookup 0 subtable" braceleft
EndChar

StartChar: asciitilde
Encoding: 126 126 96
Width: 422
GlyphClass: 2
Flags: MW
HStem: 193.079 118.749<265.465 272.459 265.465 316.875> 235.83 118.748<161.981 166.151 117.14 170.044>
LayerCount: 2
Fore
SplineSet
155.23828125 354.578125 m 0x40
 177.063476562 354.578125 197.109375 350.090820312 235.274414062 326.499023438 c 0
 245.227539062 320.701171875 261.692382812 311.828125 269.237304688 311.828125 c 0
 275.681640625 311.828125 279.330078125 313.473632812 282.624023438 316.610351562 c 0
 290.138671875 323.768554688 300.171875 341.60546875 314.037109375 366.891601562 c 1
 409.986328125 310.1328125 l 1
 387.514648438 261.442382812 355.961914062 193.079101562 277.787109375 193.079101562 c 0x80
 239.84765625 193.079101562 207.3046875 214.768554688 197.071289062 221.58984375 c 0
 194.552734375 223.267578125 175.350585938 235.830078125 164.737304688 235.830078125 c 0
 159.225585938 235.830078125 155.15234375 234.329101562 150.774414062 230.522460938 c 0
 142.598632812 223.413085938 133.095703125 205.951171875 120.251953125 181.870117188 c 1
 22.7119140625 237.4140625 l 1
 46.388671875 286.661132812 79.041015625 354.578125 155.23828125 354.578125 c 0x40
EndSplineSet
EndChar

StartChar: exclamdown
Encoding: 161 161 98
Width: 219
GlyphClass: 2
Flags: MW
HStem: 378.33 158.649<47.8867 192.286 47.8867 192.286>
VStem: 47.8867 144.399<378.33 536.979 378.33 536.979> 66.7959 106.581<327.029 327.029>
LayerCount: 2
Fore
SplineSet
47.88671875 536.979492188 m 1xc0
 192.286132812 536.979492188 l 1
 192.286132812 378.330078125 l 1
 47.88671875 378.330078125 l 1
 47.88671875 536.979492188 l 1xc0
173.376953125 327.029296875 m 1xa0
 197.942382812 -148.919921875 l 1
 42.23046875 -148.919921875 l 1
 66.7958984375 327.029296875 l 1
 173.376953125 327.029296875 l 1xa0
EndSplineSet
EndChar

StartChar: cent
Encoding: 162 162 99
Width: 445
GlyphClass: 2
Flags: MW
VStem: 40.2861 144.4<192.131 346.03 346.03 346.98> 191.337 90.25<-93.8193 -5.45898 -5.45898 -5.45898 543.62 638.631> 248.337 140.6<176.931 210.181 162.883 210.181 327.979 362.181 362.181 364.08>
LayerCount: 2
Fore
SplineSet
281.586914062 535.940429688 m 1xc0
 338.686523438 518.7265625 388.936523438 472.71875 388.936523438 364.080078125 c 2
 388.936523438 327.979492188 l 1
 248.336914062 327.979492188 l 1
 248.336914062 362.180664062 l 2
 248.336914062 382.34375 244.186523438 394.985351562 239.064453125 401.625 c 0
 233.837890625 408.400390625 227.76953125 411.581054688 216.986328125 411.581054688 c 0
 206.858398438 411.581054688 184.686523438 411.581054688 184.686523438 346.98046875 c 2
 184.686523438 191.180664062 l 2
 184.686523438 164.129882812 189.095703125 146.44140625 194.387695312 138.095703125 c 0
 199.624023438 129.838867188 205.352539062 126.581054688 216.036132812 126.581054688 c 0
 225.284179688 126.581054688 248.336914062 126.581054688 248.336914062 176.930664062 c 2
 248.336914062 210.180664062 l 1
 388.936523438 210.180664062 l 1
 388.936523438 176.930664062 l 2xa0
 388.936523438 148.8359375 388.7734375 34.7470703125 281.586914062 2.2158203125 c 1
 281.586914062 -93.8193359375 l 1
 191.336914062 -93.8193359375 l 1
 191.336914062 -5.458984375 l 1
 146.373046875 -1.38671875 109.484375 14.63671875 83.1494140625 43.8984375 c 0
 53.2021484375 77.1728515625 40.2861328125 127.404296875 40.2861328125 192.130859375 c 2
 40.2861328125 346.030273438 l 2
 40.2861328125 410.756835938 53.2021484375 460.98828125 83.1494140625 494.262695312 c 0
 109.484375 523.524414062 146.373046875 539.547851562 191.336914062 543.620117188 c 1
 191.336914062 638.630859375 l 1
 281.586914062 638.630859375 l 1
 281.586914062 535.940429688 l 1xc0
EndSplineSet
EndChar

StartChar: sterling
Encoding: 163 163 100
Width: 423
GlyphClass: 2
Flags: MW
HStem: 1.18164 139.65<216.909 411.737 216.909 411.737> 275.729 139.65<231.236 345.236 231.236 345.236>
VStem: 80.1875 151.049<211.132 275.729 192.601 275.731 192.601 275.731 415.382 530.332 530.332 538.88>
LayerCount: 2
Fore
SplineSet
80.1875 530.33203125 m 2
 80.1875 581.87109375 94.1396484375 700.381835938 250.237304688 700.381835938 c 0
 304.405273438 700.381835938 348.024414062 685.872070312 377.306640625 653.993164062 c 0
 406.065429688 622.685546875 419.336914062 579.321289062 419.336914062 526.530273438 c 2
 419.336914062 509.430664062 l 1
 273.987304688 509.430664062 l 1
 273.987304688 526.530273438 l 2
 273.987304688 548.791015625 270.577148438 562.627929688 267.86328125 567.151367188 c 0
 265.666992188 570.811523438 263.110351562 573.081054688 254.037109375 573.081054688 c 0
 243.346679688 573.081054688 239.409179688 570.29296875 237.197265625 567.41796875 c 0
 234.495117188 563.904296875 231.236328125 554.834960938 231.236328125 538.879882812 c 2
 231.236328125 415.379882812 l 1
 345.236328125 415.379882812 l 1
 345.236328125 275.729492188 l 1
 231.236328125 275.729492188 l 1
 231.236328125 209.229492188 l 2
 231.236328125 175.97265625 224.552734375 155.158203125 216.909179688 140.83203125 c 1
 411.737304688 140.83203125 l 1
 411.737304688 1.181640625 l 1
 38.3876953125 1.181640625 l 1
 38.3876953125 137.536132812 l 1
 58.0380859375 144.815429688 68.369140625 148.641601562 73.5283203125 160.4765625 c 0
 77.2490234375 169.010742188 80.1875 186.30078125 80.1875 211.131835938 c 2
 80.1875 275.731445312 l 1
 22.2373046875 275.731445312 l 1
 22.2373046875 415.381835938 l 1
 80.1875 415.381835938 l 1
 80.1875 530.33203125 l 2
EndSplineSet
EndChar

StartChar: currency
Encoding: 164 164 101
Width: 566
GlyphClass: 2
Flags: MW
HStem: 102.83 132.05<280.81 303.262 280.81 308.962> 392.58 132.05<280.81 303.262>
VStem: 81.1357 135.851<302.011 325.449 302.011 330.072> 368.036 135.851<302.05 325.409>
LayerCount: 2
Fore
SplineSet
292.036132812 102.830078125 m 0
 257.305664062 102.830078125 225.165039062 110.01953125 196.2109375 124.514648438 c 1
 130.362304688 59.6630859375 l 1
 36.228515625 155.068359375 l 1
 101.127929688 220.966796875 l 1
 87.7607421875 249.173828125 81.1357421875 280.267578125 81.1357421875 313.729492188 c 0
 81.1357421875 346.4140625 88.15234375 377.5 102.0625 406.506835938 c 1
 36.1474609375 473.419921875 l 1
 131.578125 568.850585938 l 1
 196.587890625 502.840820312 l 1
 226.676757812 517.303710938 258.646484375 524.629882812 292.036132812 524.629882812 c 0
 325.401367188 524.629882812 357.1484375 517.309570312 386.782226562 502.8203125 c 1
 453.708007812 568.748046875 l 1
 547.93359375 473.249023438 l 1
 482.125 407.440429688 l 1
 496.564453125 377.9375 503.88671875 346.541992188 503.88671875 313.729492188 c 0
 503.88671875 281.045898438 496.869140625 249.959960938 482.958984375 220.953125 c 1
 548.874023438 154.0390625 l 1
 453.536132812 58.701171875 l 1
 387.638671875 124.599609375 l 1
 357.92578125 110.118164062 325.887695312 102.830078125 292.036132812 102.830078125 c 0
368.036132812 313.729492188 m 0
 368.036132812 337.087890625 360.836914062 355.133789062 346.235351562 370.255859375 c 0
 331.688476562 385.322265625 314.487304688 392.580078125 292.036132812 392.580078125 c 0
 269.583984375 392.580078125 252.614257812 385.336914062 238.419921875 370.368164062 c 0
 224.098632812 355.266601562 216.986328125 337.16796875 216.986328125 313.729492188 c 0
 216.986328125 290.291992188 224.098632812 272.193359375 238.419921875 257.091796875 c 0
 252.614257812 242.123046875 269.583984375 234.879882812 292.036132812 234.879882812 c 0
 314.487304688 234.879882812 331.688476562 242.137695312 346.235351562 257.203125 c 0
 360.836914062 272.326171875 368.036132812 290.37109375 368.036132812 313.729492188 c 0
EndSplineSet
EndChar

StartChar: yen
Encoding: 165 165 102
Width: 411
GlyphClass: 2
Flags: MW
HStem: 105.68 114.95<42.1865 140.036 42.1865 140.036 291.087 388.937> 236.779 114.95<42.1865 121.563 42.1865 140.036 42.1865 121.563 309.559 388.937> 670.88 20G<1.86426 162.64 162.64 162.64 270.24 429.259 429.259 429.259>
VStem: 140.036 151.051<1.17969 105.68 1.17969 105.68 220.63 236.779 1.17969 236.779>
LayerCount: 2
Fore
SplineSet
291.086914062 105.6796875 m 1
 291.086914062 1.1796875 l 1
 140.036132812 1.1796875 l 1
 140.036132812 105.6796875 l 1
 42.1865234375 105.6796875 l 1
 42.1865234375 220.629882812 l 1
 140.036132812 220.629882812 l 1
 140.036132812 236.779296875 l 1
 42.1865234375 236.779296875 l 1
 42.1865234375 351.729492188 l 1
 121.563476562 351.729492188 l 1
 1.8642578125 690.879882812 l 1
 162.639648438 690.879882812 l 1
 217.584960938 487.125 l 1
 270.240234375 690.879882812 l 1
 429.258789062 690.879882812 l 1
 309.55859375 351.729492188 l 1
 388.936523438 351.729492188 l 1
 388.936523438 236.779296875 l 1
 291.086914062 236.779296875 l 1
 291.086914062 220.629882812 l 1
 388.936523438 220.629882812 l 1
 388.936523438 105.6796875 l 1
 291.086914062 105.6796875 l 1
EndSplineSet
EndChar

StartChar: brokenbar
Encoding: 166 166 103
Width: 274
GlyphClass: 2
Flags: MW
VStem: 76.3867 140.6<-78.6201 289.979 -78.6201 289.979 369.779 738.38>
LayerCount: 2
Fore
SplineSet
76.38671875 738.379882812 m 1
 216.986328125 738.379882812 l 1
 216.986328125 369.779296875 l 1
 76.38671875 369.779296875 l 1
 76.38671875 738.379882812 l 1
76.38671875 289.979492188 m 1
 216.986328125 289.979492188 l 1
 216.986328125 -78.6201171875 l 1
 76.38671875 -78.6201171875 l 1
 76.38671875 289.979492188 l 1
EndSplineSet
EndChar

StartChar: section
Encoding: 167 167 104
Width: 411
GlyphClass: 2
Flags: MW
VStem: 44.085 138.7<262.672 292.611 262.672 323.562> 56.4355 140.601<529.493 555.293 529.493 572.204> 236.936 139.651<-4.30908 23.9185> 248.336 138.7<262.672 292.921>
LayerCount: 2
Fore
SplineSet
376.586914062 7.830078125 m 0x20
 376.586914062 -37.06640625 369.17578125 -158.419921875 214.13671875 -158.419921875 c 0
 159.72265625 -158.419921875 117.08203125 -144.703125 91.4951171875 -112.525390625 c 0
 66.8505859375 -81.5322265625 56.435546875 -36.138671875 56.435546875 22.0810546875 c 2
 56.435546875 39.1806640625 l 1x60
 190.385742188 39.1806640625 l 1
 190.385742188 22.0810546875 l 2
 190.385742188 -4.8408203125 193.188476562 -23.0205078125 196.203125 -30.25390625 c 0
 197.508789062 -33.38671875 199.618164062 -36.8193359375 213.185546875 -36.8193359375 c 0
 225.55859375 -36.8193359375 228.7578125 -33.5771484375 230.5703125 -30.3544921875 c 0
 234.123046875 -24.0380859375 236.935546875 -12.6484375 236.935546875 4.0302734375 c 0
 236.935546875 43.806640625 226.659179688 56.0322265625 212.836914062 64.478515625 c 0
 203.0859375 70.4375 186.391601562 78.1416015625 163.572265625 86.78125 c 0
 120.78125 102.181640625 88.6630859375 124.989257812 70.1845703125 156.40234375 c 0
 52.095703125 187.153320312 44.0849609375 227.705078125 44.0849609375 277.62890625 c 0xa0
 44.0849609375 369.49609375 76.7646484375 402.717773438 100.7734375 419.658203125 c 1
 90.4150390625 427.990234375 56.435546875 455.321289062 56.435546875 546.478515625 c 0
 56.435546875 597.9296875 69.3330078125 639.60546875 98.021484375 668.29296875 c 0
 126.505859375 696.77734375 166.890625 709.87890625 216.036132812 709.87890625 c 0
 270.365234375 709.87890625 312.801757812 696.396484375 337.82421875 664.336914062 c 0
 361.766601562 633.66015625 371.836914062 588.828125 371.836914062 531.279296875 c 2
 371.836914062 514.178710938 l 1
 237.88671875 514.178710938 l 1
 237.88671875 531.279296875 l 2
 237.88671875 557.641601562 235.446289062 575.618164062 232.775390625 582.807617188 c 0
 232.017578125 584.84765625 230.861328125 588.279296875 216.986328125 588.279296875 c 0
 205.3984375 588.279296875 203.711914062 585.40625 202.553710938 582.936523438 c 0
 199.5 576.419921875 197.036132812 564.107421875 197.036132812 546.478515625 c 0
 197.036132812 512.506835938 205.473632812 499.346679688 221.134765625 489.0546875 c 0
 230.186523438 483.106445312 245.771484375 475.94921875 267.334960938 468.5546875 c 0
 310.758789062 453.190429688 343.178710938 430.587890625 361.443359375 399.276367188 c 0
 379.237304688 368.770507812 387.036132812 328.115234375 387.036132812 277.62890625 c 0x50
 387.036132812 187.647460938 356.770507812 154.084960938 330.418945312 136.014648438 c 1
 346.84765625 122.90625 376.586914062 94.2841796875 376.586914062 7.830078125 c 0x20
248.3359375 277.630859375 m 0x90
 248.3359375 308.2109375 244.844726562 329.3515625 240.30078125 339.57421875 c 0
 237.420898438 346.052734375 232.237304688 350.780273438 215.0859375 350.780273438 c 0
 198.064453125 350.780273438 193.251953125 346.12109375 190.522460938 339.513671875 c 0
 186.048828125 328.682617188 182.78515625 307.590820312 182.78515625 277.630859375 c 0
 182.78515625 247.713867188 186.215820312 226.752929688 190.875 216.036132812 c 0
 193.958007812 208.946289062 198.963867188 204.48046875 215.0859375 204.48046875 c 0
 232.080078125 204.48046875 237.265625 209.182617188 240.245117188 216.036132812 c 0
 244.905273438 226.752929688 248.3359375 247.713867188 248.3359375 277.630859375 c 0x90
193.235351562 687.081054688 m 1024
EndSplineSet
EndChar

StartChar: dieresis
Encoding: 168 168 105
Width: 499
GlyphClass: 2
Flags: MW
HStem: 562.63 142.5<122.937 245.486 122.937 245.486 122.937 271.137 271.137 393.687>
VStem: 122.937 122.55<562.63 705.13 562.63 705.13> 271.137 122.55<562.63 705.13 562.63 705.13>
LayerCount: 2
Fore
SplineSet
122.936523438 705.129882812 m 1
 245.486328125 705.129882812 l 1
 245.486328125 562.629882812 l 1
 122.936523438 562.629882812 l 1
 122.936523438 705.129882812 l 1
271.13671875 705.129882812 m 1
 393.686523438 705.129882812 l 1
 393.686523438 562.629882812 l 1
 271.13671875 562.629882812 l 1
 271.13671875 705.129882812 l 1
EndSplineSet
EndChar

StartChar: copyright
Encoding: 169 169 106
Width: 693
GlyphClass: 2
Flags: MW
HStem: -4.52051 98.7998<320.086 391.271 320.086 404.679> 593.979 98.7998<320.102 390.946>
VStem: 40.2861 106.399<302.583 385.344 302.583 397.758> 225.534 113.051<289.979 400.179 400.179 401.13 279.255 424.019> 374.685 110.2<279.529 308.029 258.314 308.029 383.079 411.579 411.579 413.479> 563.735 106.401<302.905 385.676>
LayerCount: 2
Fore
SplineSet
40.2861328125 344.129882812 m 0
 40.2861328125 451.385742188 67.0126953125 537.375976562 122.518554688 599.650390625 c 0
 178.225585938 662.149414062 257.149414062 692.779296875 355.686523438 692.779296875 c 0
 454.268554688 692.779296875 533.09765625 661.784179688 588.475585938 598.591796875 c 0
 643.538085938 535.7578125 670.13671875 450.154296875 670.13671875 344.129882812 c 0
 670.13671875 238.084960938 643.364257812 152.458007812 587.965820312 89.62890625 c 0
 532.305664062 26.5029296875 453.671875 -4.5205078125 355.686523438 -4.5205078125 c 0
 257.1015625 -4.5205078125 178.141601562 26.474609375 122.45703125 89.62890625 c 0
 67.05859375 152.458007812 40.2861328125 238.084960938 40.2861328125 344.129882812 c 0
563.735351562 344.129882812 m 0
 563.735351562 427.22265625 545.204101562 488.8046875 510.619140625 530.8828125 c 0
 476.454101562 572.451171875 426.206054688 593.979492188 355.685546875 593.979492188 c 0
 284.518554688 593.979492188 233.987304688 572.286132812 199.837890625 530.452148438 c 0
 165.188476562 488.006835938 146.685546875 426.557617188 146.685546875 344.129882812 c 0
 146.685546875 261.037109375 165.216796875 199.455078125 199.801757812 157.376953125 c 0
 233.934570312 115.84765625 284.486328125 94.279296875 355.685546875 94.279296875 c 0
 426.857421875 94.279296875 477.192382812 115.97265625 511.014648438 157.752929688 c 0
 545.374023438 200.196289062 563.735351562 261.6796875 563.735351562 344.129882812 c 0
356.634765625 546.478515625 m 0
 400.21484375 546.478515625 484.884765625 533.911132812 484.884765625 413.478515625 c 2
 484.884765625 383.079101562 l 1
 374.684570312 383.079101562 l 1
 374.684570312 411.579101562 l 2
 374.684570312 425.295898438 371.75 433.333007812 368.723632812 437.267578125 c 0
 365.540039062 441.405273438 362.708007812 442.9296875 356.634765625 442.9296875 c 0
 349.895507812 442.9296875 346.672851562 440.373046875 343.869140625 434.499023438 c 0
 340.924804688 428.33203125 338.584960938 417.119140625 338.584960938 401.129882812 c 2
 338.584960938 289.029296875 l 2
 338.584960938 269.481445312 341.815429688 257.349609375 344.57421875 252.904296875 c 0
 347.012695312 248.9765625 349.2734375 247.229492188 356.634765625 247.229492188 c 0
 364.83203125 247.229492188 367.3515625 249.217773438 369.969726562 253.817382812 c 0
 372.428710938 258.13671875 374.684570312 266.61328125 374.684570312 279.529296875 c 2
 374.684570312 308.029296875 l 1
 484.884765625 308.029296875 l 1
 484.884765625 279.529296875 l 2
 484.884765625 237.098632812 474.8203125 202.27734375 451.666992188 177.965820312 c 0
 428.629882812 153.77734375 395.81640625 142.729492188 356.634765625 142.729492188 c 0
 316.211914062 142.729492188 282.538085938 154.076171875 259.140625 179.008789062 c 0
 235.349609375 204.361328125 225.534179688 242.278320312 225.534179688 289.978515625 c 2
 225.534179688 400.178710938 l 2
 225.534179688 447.859375 235.326171875 485.69140625 259.232421875 510.772460938 c 0
 282.655273438 535.346679688 316.270507812 546.478515625 356.634765625 546.478515625 c 0
EndSplineSet
EndChar

StartChar: ordfeminine
Encoding: 170 170 107
Width: 314
GlyphClass: 2
Flags: MW
HStem: 404.93 99.751<108.695 164.466>
VStem: 178.037 106.4<517.03 534.131 534.131 534.131 620.58 630.08 409.68 633.88 409.68 637.206>
LayerCount: 2
Fore
SplineSet
39.3369140625 515.129882812 m 0
 39.3369140625 542.905273438 48.7861328125 601.165039062 125.4453125 616.779296875 c 1
 47.8876953125 616.779296875 l 1
 47.8876953125 635.779296875 l 2
 47.8876953125 669.595703125 58.5087890625 698.2109375 81.6455078125 717.358398438 c 0
 103.689453125 735.6015625 132.063476562 744.080078125 164.736328125 744.080078125 c 0
 200.135742188 744.080078125 230.286132812 734.147460938 252.2421875 712.576171875 c 0
 273.897460938 691.30078125 284.4375 662.842773438 284.4375 630.080078125 c 2
 284.4375 409.6796875 l 1
 181.836914062 409.6796875 l 1
 181.814453125 414.33203125 l 1
 170.098632812 407.573242188 156.283203125 404.9296875 140.987304688 404.9296875 c 0
 76.4033203125 404.9296875 39.3369140625 445.240234375 39.3369140625 515.129882812 c 0
178.037109375 620.580078125 m 1
 178.037109375 633.879882812 l 2
 178.037109375 640.53125 176.5 641.38671875 175.642578125 641.989257812 c 0
 174.5078125 642.787109375 170.958007812 644.330078125 163.787109375 644.330078125 c 0
 156.90234375 644.330078125 153.387695312 642.763671875 151.47265625 641.275390625 c 0
 149.900390625 640.051757812 149.537109375 639.749023438 149.537109375 636.729492188 c 2
 149.537109375 619.994140625 l 1
 155.080078125 620.387695312 160.782226562 620.580078125 166.637695312 620.580078125 c 2
 178.037109375 620.580078125 l 1
161.887695312 504.680664062 m 0
 167.043945312 504.680664062 178.037109375 505.977539062 178.037109375 517.030273438 c 2
 178.037109375 534.130859375 l 1
 175.1875 534.130859375 l 2
 163.4375 534.130859375 155.920898438 532.016601562 152.259765625 529.880859375 c 0
 148.46875 527.669921875 146.6875 525.640625 146.6875 517.98046875 c 0
 146.6875 506.911132812 154.134765625 504.680664062 161.887695312 504.680664062 c 0
154.287109375 822.930664062 m 1024
EndSplineSet
EndChar

StartChar: guillemotleft
Encoding: 171 171 108
Width: 444
GlyphClass: 2
Flags: W
LayerCount: 2
Fore
SplineSet
235.986328125 499.061523438 m 1
 235.986328125 345.716796875 l 1
 161.091796875 269.080078125 l 1
 235.986328125 192.443359375 l 1
 235.986328125 39.0986328125 l 1
 10.6513671875 269.080078125 l 1
 235.986328125 499.061523438 l 1
419.336914062 499.061523438 m 1
 419.336914062 345.658203125 l 1
 343.627929688 269.080078125 l 1
 419.336914062 192.500976562 l 1
 419.336914062 39.0986328125 l 1
 194.000976562 269.080078125 l 1
 419.336914062 499.061523438 l 1
EndSplineSet
EndChar

StartChar: logicalnot
Encoding: 172 172 109
Width: 422
GlyphClass: 2
Flags: MW
HStem: 148.43 228.95<257.837 402.236 257.837 257.837> 244.38 133<37.4365 257.837 37.4365 402.236>
VStem: 257.837 144.399<148.43 244.38 244.38 244.38>
LayerCount: 2
Fore
SplineSet
257.836914062 244.379882812 m 1x60
 37.4365234375 244.379882812 l 1
 37.4365234375 377.379882812 l 1x60
 402.236328125 377.379882812 l 1
 402.236328125 148.4296875 l 1
 257.836914062 148.4296875 l 1xa0
 257.836914062 244.379882812 l 1x60
EndSplineSet
EndChar

StartChar: uni00AD
Encoding: 173 173 110
Width: 356
GlyphClass: 2
Flags: MW
HStem: 277.63 138.7<40.2861 335.736 40.2861 335.736>
VStem: 40.2861 295.45<277.63 416.33 277.63 416.33>
LayerCount: 2
Fore
SplineSet
40.2861328125 416.330078125 m 1
 335.736328125 416.330078125 l 1
 335.736328125 277.629882812 l 1
 40.2861328125 277.629882812 l 1
 40.2861328125 416.330078125 l 1
EndSplineSet
EndChar

StartChar: registered
Encoding: 174 174 111
Width: 430
GlyphClass: 2
Flags: MW
HStem: 300.43 70.3008<206.563 236.334 206.563 251.408> 624.381 70.2988<205.138 251.43 196.484 265.639>
VStem: 44.0879 73.1504<468.454 519.579 438.05 527.64> 153.338 149.15<528.573 573.72 528.573 616.78 528.573 616.78> 330.038 75.0488<468.707 526.767 468.707 530.636>
LayerCount: 2
Fore
SplineSet
44.087890625 498.030273438 m 0
 44.087890625 557.25 59.3408203125 605.951171875 91.7646484375 641.58203125 c 0
 124.245117188 677.275390625 169.331054688 694.6796875 223.637695312 694.6796875 c 0
 279.221679688 694.6796875 325.064453125 676.771484375 357.580078125 639.96875 c 0
 389.7109375 603.598632812 405.086914062 555.50390625 405.086914062 498.029296875 c 0
 405.086914062 439.384765625 389.7890625 390.767578125 357.525390625 354.603515625 c 0
 324.989257812 318.134765625 279.177734375 300.4296875 223.637695312 300.4296875 c 0
 168.15234375 300.4296875 122.58984375 317.936523438 90.62890625 354.208007812 c 0
 58.9638671875 390.141601562 44.087890625 438.876953125 44.087890625 498.030273438 c 0
223.638671875 370.73046875 m 0
 249.029296875 370.73046875 330.038085938 372.65625 330.038085938 498.030273438 c 0
 330.038085938 563.241210938 307.638671875 624.380859375 223.638671875 624.380859375 c 0
 186.63671875 624.380859375 161.663085938 613.40625 144.616210938 593.002929688 c 0
 127.140625 572.084960938 117.23828125 541.127929688 117.23828125 498.030273438 c 0
 117.23828125 378.0703125 189.487304688 370.73046875 223.638671875 370.73046875 c 0
226.48828125 616.780273438 m 2
 253.1796875 616.780273438 302.48828125 607.608398438 302.48828125 539.831054688 c 0
 302.48828125 517.315429688 296.033203125 497.270507812 282.299804688 482.418945312 c 1
 315.6875 381.180664062 l 1
 292.038085938 381.180664062 l 1
 235.772460938 381.180664062 l 1
 229.337890625 401.719726562 l 1
 229.337890625 381.180664062 l 1
 153.337890625 381.180664062 l 1
 153.337890625 616.780273438 l 1
 226.48828125 616.780273438 l 2
EndSplineSet
EndChar

StartChar: macron
Encoding: 175 175 112
Width: 499
GlyphClass: 2
Flags: MW
HStem: 567.38 133<128.637 387.986 128.637 387.986>
VStem: 128.637 259.35<567.38 700.38 567.38 700.38>
LayerCount: 2
Fore
SplineSet
128.63671875 700.379882812 m 1
 387.986328125 700.379882812 l 1
 387.986328125 567.379882812 l 1
 128.63671875 567.379882812 l 1
 128.63671875 700.379882812 l 1
EndSplineSet
EndChar

StartChar: degree
Encoding: 176 176 113
Width: 332
GlyphClass: 2
Flags: MW
HStem: 431.529 95<169.305 181.066 169.305 194.244> 606.33 95<169.305 181.066>
VStem: 40.2861 97.8496<560.006 572.85 560.006 585.215> 213.187 97.8496<560.075 572.786>
LayerCount: 2
Fore
SplineSet
40.2861328125 566.4296875 m 0
 40.2861328125 604 53.31640625 636.887695312 79.0224609375 662.59375 c 0
 104.728515625 688.299804688 137.616210938 701.330078125 175.186523438 701.330078125 c 0
 213.30078125 701.330078125 246.528320312 688.366210938 272.30078125 662.59375 c 0
 298.006835938 636.887695312 311.036132812 604 311.036132812 566.4296875 c 0
 311.036132812 528.859375 298.006835938 495.971679688 272.30078125 470.265625 c 0
 246.528320312 444.493164062 213.30078125 431.529296875 175.186523438 431.529296875 c 0
 137.616210938 431.529296875 104.728515625 444.559570312 79.0224609375 470.265625 c 0
 53.31640625 495.971679688 40.2861328125 528.859375 40.2861328125 566.4296875 c 0
213.186523438 566.430664062 m 0
 213.186523438 579.141601562 209.54296875 587.954101562 202.341796875 595.374023438 c 0
 195.123046875 602.811523438 186.946289062 606.330078125 175.186523438 606.330078125 c 0
 163.422851562 606.330078125 155.530273438 602.834960938 148.6875 595.564453125 c 0
 141.735351562 588.176757812 138.135742188 579.270507812 138.135742188 566.4296875 c 0
 138.135742188 553.583007812 141.73828125 544.676757812 148.686523438 537.295898438 c 0
 155.529296875 530.026367188 163.422851562 526.529296875 175.186523438 526.529296875 c 0
 186.946289062 526.529296875 195.123046875 530.047851562 202.341796875 537.486328125 c 0
 209.54296875 544.904296875 213.186523438 553.71875 213.186523438 566.430664062 c 0
EndSplineSet
EndChar

StartChar: plusminus
Encoding: 177 177 114
Width: 422
GlyphClass: 2
Flags: MW
HStem: 9.72949 139.65<34.5869 406.036 34.5869 406.036> 274.779 139.65<34.5869 150.486 34.5869 150.486 290.137 406.036> 510.33 20G<150.486 290.137 290.137 290.137>
VStem: 34.5869 371.449<9.72949 149.38 9.72949 149.38 274.779 414.43 9.72949 414.43> 150.486 139.65<158.88 274.779 158.88 274.779 414.43 530.33>
LayerCount: 2
Fore
SplineSet
290.13671875 274.779296875 m 1xe8
 290.13671875 158.879882812 l 1
 150.486328125 158.879882812 l 1
 150.486328125 274.779296875 l 1xe8
 34.5869140625 274.779296875 l 1
 34.5869140625 414.4296875 l 1xf0
 150.486328125 414.4296875 l 1
 150.486328125 530.330078125 l 1
 290.13671875 530.330078125 l 1
 290.13671875 414.4296875 l 1xe8
 406.036132812 414.4296875 l 1
 406.036132812 274.779296875 l 1xf0
 290.13671875 274.779296875 l 1xe8
34.5869140625 149.379882812 m 1xf0
 406.036132812 149.379882812 l 1
 406.036132812 9.7294921875 l 1
 34.5869140625 9.7294921875 l 1
 34.5869140625 149.379882812 l 1xf0
EndSplineSet
EndChar

StartChar: uni00B2
Encoding: 178 178 115
Width: 292
GlyphClass: 2
Flags: MW
HStem: 409.68 104.5<171.219 276.837 171.219 276.837>
VStem: 36.4863 110.2<688.98 735.53 688.98 743.131 688.98 774.091> 165.687 110.2<711.781 732.682 732.682 736.739>
LayerCount: 2
Fore
SplineSet
36.486328125 743.130859375 m 2
 36.486328125 805.051757812 84.0966796875 845.73046875 157.13671875 845.73046875 c 0
 191.530273438 845.73046875 220.852539062 837.236328125 242.849609375 818.327148438 c 0
 265.020507812 799.268554688 275.88671875 772.380859375 275.88671875 741.23046875 c 2
 275.88671875 711.780273438 l 2
 275.88671875 677.32421875 269.76953125 654.825195312 242.540039062 614.779296875 c 2
 171.21875 514.1796875 l 1
 276.836914062 514.1796875 l 1
 276.836914062 409.6796875 l 1
 33.63671875 409.6796875 l 1
 33.63671875 496.604492188 l 1
 148.853515625 667.48046875 l 2
 163.975585938 688.90234375 165.686523438 696.208007812 165.686523438 711.78125 c 2
 165.686523438 732.681640625 l 2
 165.686523438 740.795898438 160.361328125 741.23046875 155.236328125 741.23046875 c 0
 147.98046875 741.23046875 147.365234375 739.861328125 147.365234375 739.861328125 c 2
 147.3046875 739.75390625 146.686523438 738.584960938 146.686523438 735.530273438 c 2
 146.686523438 688.98046875 l 1
 36.486328125 688.98046875 l 1
 36.486328125 743.130859375 l 2
EndSplineSet
EndChar

StartChar: uni00B3
Encoding: 179 179 116
Width: 287
GlyphClass: 2
Flags: MW
HStem: 577.83 104.5<113.437 145.736 113.437 147.637>
VStem: 30.7861 110.2<513.834 517.029 517.029 556.93 513.834 556.93 690.88 731.729> 160.937 112.1<520.83 557.88 557.88 562.63 501.457 563.177 697.529 704.18 704.18 727.93 727.93 731.564>
LayerCount: 2
Fore
SplineSet
245.530273438 633.618164062 m 1
 262.217773438 620.666992188 273.036132812 602.3203125 273.036132812 562.629882812 c 2
 273.036132812 518.9296875 l 2
 273.036132812 483.984375 262.590820312 454.3515625 239.915039062 433.629882812 c 0
 217.560546875 413.202148438 187.20703125 403.979492188 151.436523438 403.979492188 c 0
 115.374023438 403.979492188 85.1875 412.274414062 63.234375 431.482421875 c 0
 41.2138671875 450.749023438 30.7861328125 478.28125 30.7861328125 510.379882812 c 2
 30.7861328125 556.9296875 l 1
 140.986328125 556.9296875 l 1
 140.986328125 517.029296875 l 2
 140.986328125 510.639648438 142.520507812 509.999023438 142.52734375 509.993164062 c 0
 142.846679688 509.747070312 144.939453125 508.479492188 150.486328125 508.479492188 c 0
 155.603515625 508.479492188 158.405273438 509.208007812 159.49609375 509.576171875 c 0
 160.005859375 510.956054688 160.936523438 514.752929688 160.936523438 520.830078125 c 2
 160.936523438 557.879882812 l 2
 160.936523438 568.474609375 158.983398438 574.366210938 158.208007812 575.990234375 c 0
 157.208007812 576.416015625 153.237304688 577.830078125 145.736328125 577.830078125 c 2
 113.436523438 577.830078125 l 1
 113.436523438 682.330078125 l 1
 147.63671875 682.330078125 l 2
 155.4453125 682.330078125 158.030273438 683.418945312 158.700195312 683.8046875 c 0
 159.186523438 684.749023438 160.936523438 688.9453125 160.936523438 697.529296875 c 2
 160.936523438 727.9296875 l 2
 160.936523438 735.198242188 159.37109375 738.3359375 159.0078125 738.951171875 c 0
 158.498046875 739.205078125 155.899414062 740.279296875 150.486328125 740.279296875 c 0
 144.939453125 740.279296875 142.846679688 739.012695312 142.52734375 738.766601562 c 0
 142.520507812 738.760742188 140.986328125 738.119140625 140.986328125 731.729492188 c 2
 140.986328125 690.879882812 l 1
 30.7861328125 690.879882812 l 1
 30.7861328125 736.479492188 l 2
 30.7861328125 801.994140625 74.583984375 845.729492188 151.436523438 845.729492188 c 0
 187.629882812 845.729492188 218.06640625 837.004882812 240.255859375 817.150390625 c 0
 262.47265625 797.272460938 273.036132812 769.202148438 273.036132812 736.479492188 c 2
 273.036132812 704.1796875 l 2
 273.036132812 665.216796875 261.173828125 646.635742188 245.530273438 633.618164062 c 1
EndSplineSet
EndChar

StartChar: acute
Encoding: 180 180 117
Width: 499
GlyphClass: 2
Flags: MW
HStem: 561.68 163.4<238.686 254.973 119.74 402.754>
VStem: 119.74 283.014<561.68 725.08>
LayerCount: 2
Fore
SplineSet
238.685546875 725.080078125 m 1
 402.75390625 725.080078125 l 1
 254.97265625 561.6796875 l 1
 119.740234375 561.6796875 l 1
 238.685546875 725.080078125 l 1
EndSplineSet
EndChar

StartChar: uni00B5
Encoding: 181 181 118
Width: 412
GlyphClass: 2
Flags: MW
HStem: -3.57031 130.15<203.895 212.427> 516.979 20G<43.1367 187.536 187.536 187.536 244.536 388.937 388.937 388.937>
VStem: 43.1367 144.399<155.281 162.68 162.68 536.979> 244.536 144.4<162.68 536.979 1.17969 536.979>
LayerCount: 2
Fore
SplineSet
249.286132812 10.220703125 m 1
 238.123046875 3.322265625 222.118164062 -3.5703125 202.736328125 -3.5703125 c 0
 195.149414062 -3.5703125 187.848632812 -2.9482421875 180.88671875 -1.638671875 c 1
 180.88671875 -148.919921875 l 1
 43.13671875 -148.919921875 l 1
 43.13671875 536.979492188 l 1
 187.536132812 536.979492188 l 1
 187.536132812 162.6796875 l 2
 187.536132812 147.881835938 191.75390625 126.580078125 216.036132812 126.580078125 c 0
 227.719726562 126.580078125 244.536132812 131.921875 244.536132812 162.6796875 c 2
 244.536132812 536.979492188 l 1
 388.936523438 536.979492188 l 1
 388.936523438 1.1796875 l 1
 249.286132812 1.1796875 l 1
 249.286132812 10.220703125 l 1
EndSplineSet
EndChar

StartChar: paragraph
Encoding: 182 182 119
Width: 549
GlyphClass: 2
Flags: MW
HStem: 670.88 20G<251.187 503.887 503.887 503.887>
VStem: 44.0869 297.35<411.948 530.421> 201.786 139.65<-148.92 250.874 250.874 250.874> 365.187 138.7<-148.92 567.38 567.38 567.38>
LayerCount: 2
Fore
SplineSet
44.0869140625 470.479492188 m 0xd0
 44.0869140625 590.36328125 122.741210938 690.879882812 251.186523438 690.879882812 c 2
 503.88671875 690.879882812 l 1
 503.88671875 -148.919921875 l 1
 365.186523438 -148.919921875 l 1
 365.186523438 567.379882812 l 1
 341.436523438 567.379882812 l 1
 341.436523438 -148.919921875 l 1
 201.786132812 -148.919921875 l 1
 201.786132812 250.874023438 l 1xb0
 111.46875 264.756835938 44.0869140625 353.416015625 44.0869140625 470.479492188 c 0xd0
EndSplineSet
EndChar

StartChar: periodcentered
Encoding: 183 183 120
Width: 188
GlyphClass: 2
Flags: MW
HStem: 204.479 159.601<31.7363 177.087 31.7363 177.087>
VStem: 31.7363 145.351<204.479 364.08 204.479 364.08>
LayerCount: 2
Fore
SplineSet
31.736328125 364.080078125 m 1
 177.086914062 364.080078125 l 1
 177.086914062 204.479492188 l 1
 31.736328125 204.479492188 l 1
 31.736328125 364.080078125 l 1
EndSplineSet
EndChar

StartChar: cedilla
Encoding: 184 184 121
Width: 499
GlyphClass: 2
Flags: MW
HStem: -148.92 193.8<225.72 276.608 141.509 344.669>
VStem: 141.509 203.16<-148.92 44.8799>
LayerCount: 2
Fore
SplineSet
344.668945312 44.8798828125 m 1
 276.608398438 -148.919921875 l 1
 141.508789062 -148.919921875 l 1
 225.719726562 44.8798828125 l 1
 344.668945312 44.8798828125 l 1
EndSplineSet
EndChar

StartChar: uni00B9
Encoding: 185 185 122
Width: 226
GlyphClass: 2
Flags: MW
VStem: 26.9863 173.851<658.791 791.19 791.19 791.19> 87.7861 113.051<409.68 699.641 699.641 699.641>
LayerCount: 2
Fore
SplineSet
26.986328125 658.791015625 m 1x80
 26.986328125 791.190429688 l 1x80
 99.677734375 840.029296875 l 1
 200.836914062 840.029296875 l 1
 200.836914062 409.6796875 l 1
 87.7861328125 409.6796875 l 1
 87.7861328125 699.640625 l 1x40
 26.986328125 658.791015625 l 1x80
EndSplineSet
EndChar

StartChar: ordmasculine
Encoding: 186 186 123
Width: 317
GlyphClass: 2
Flags: MW
VStem: 45.0361 107.351<530.331 533.18 533.18 615.83 527.463 618.681 527.463 638.764> 183.736 108.3<533.18 615.83 615.83 618.68 509.855 622.929>
LayerCount: 2
Fore
SplineSet
169.486328125 404.9296875 m 0
 51.806640625 404.9296875 45.0361328125 490.161132812 45.0361328125 530.331054688 c 2
 45.0361328125 618.680664062 l 2
 45.0361328125 658.846679688 51.8037109375 744.081054688 169.486328125 744.081054688 c 0
 206.359375 744.081054688 237.270507812 734.999023438 259.5 714.329101562 c 0
 282.645507812 692.807617188 292.036132812 659.629882812 292.036132812 618.6796875 c 2
 292.036132812 530.330078125 l 2
 292.036132812 489.379882812 282.645507812 456.202148438 259.5 434.680664062 c 0
 237.270507812 414.01171875 206.359375 404.9296875 169.486328125 404.9296875 c 0
168.536132812 643.379882812 m 0
 161.774414062 643.379882812 152.38671875 643.379882812 152.38671875 615.830078125 c 2
 152.38671875 533.1796875 l 2
 152.38671875 521.747070312 154.484375 514.522460938 156.555664062 511.043945312 c 0
 158.686523438 507.46875 160.737304688 505.629882812 168.536132812 505.629882812 c 0
 175.560546875 505.629882812 177.609375 507.333984375 179.223632812 509.422851562 c 0
 180.801757812 511.46484375 183.736328125 518.981445312 183.736328125 533.1796875 c 2
 183.736328125 615.830078125 l 2
 183.736328125 630.028320312 180.801757812 637.544921875 179.223632812 639.586914062 c 0
 177.609375 641.67578125 175.560546875 643.379882812 168.536132812 643.379882812 c 0
156.186523438 822.9296875 m 1024
EndSplineSet
EndChar

StartChar: guillemotright
Encoding: 187 187 124
Width: 444
GlyphClass: 2
Flags: W
LayerCount: 2
Fore
SplineSet
43.13671875 345.716796875 m 1
 43.13671875 499.061523438 l 1
 268.471679688 269.080078125 l 1
 43.13671875 39.0986328125 l 1
 43.13671875 192.443359375 l 1
 118.03125 269.080078125 l 1
 43.13671875 345.716796875 l 1
226.486328125 345.716796875 m 1
 226.486328125 499.061523438 l 1
 451.821289062 269.080078125 l 1
 226.486328125 39.0986328125 l 1
 226.486328125 192.443359375 l 1
 301.380859375 269.080078125 l 1
 226.486328125 345.716796875 l 1
EndSplineSet
EndChar

StartChar: onequarter
Encoding: 188 188 125
Width: 686
GlyphClass: 3
Flags: MW
HStem: 670.88 21G
VStem: 26.9863 173.851<509.641 642.04 642.04 642.04> 87.7861 113.051<260.529 550.491 550.491 550.491> 540.937 112.1<1.17969 61.9795 1.17969 61.9795 166.479 202.634 202.634 202.634>
LayerCount: 2
Fore
SplineSet
26.986328125 509.640625 m 1xd0
 26.986328125 642.040039062 l 1xd0
 99.677734375 690.879882812 l 1
 200.836914062 690.879882812 l 1
 200.836914062 260.529296875 l 1
 87.7861328125 260.529296875 l 1
 87.7861328125 550.491210938 l 1xb0
 26.986328125 509.640625 l 1xd0
653.036132812 166.479492188 m 1
 680.586914062 166.479492188 l 1
 680.586914062 61.9794921875 l 1
 653.036132812 61.9794921875 l 1
 653.036132812 1.1796875 l 1
 540.936523438 1.1796875 l 1
 540.936523438 61.9794921875 l 1
 409.836914062 61.9794921875 l 1
 409.836914062 152.108398438 l 1
 500.973632812 431.529296875 l 1
 614.7734375 431.529296875 l 1
 554.096679688 243.4296875 l 1
 653.036132812 243.4296875 l 1
 653.036132812 166.479492188 l 1
540.936523438 166.479492188 m 1
 540.936523438 202.633789062 l 1
 529.2734375 166.479492188 l 1
 540.936523438 166.479492188 l 1
390.35546875 698.479492188 m 1
 504.756835938 698.479492188 l 1
 245.017578125 1.1796875 l 1
 130.616210938 1.1796875 l 1
 390.35546875 698.479492188 l 1
EndSplineSet
Ligature2: "'frac' Diagonal Fractions lookup 2 subtable" one slash four
EndChar

StartChar: onehalf
Encoding: 189 189 126
Width: 682
GlyphClass: 3
Flags: MW
HStem: 1.17969 104.5<559.769 665.387 559.769 665.387> 670.88 21G
VStem: 26.9863 173.851<509.641 642.04 642.04 642.04> 87.7861 113.051<260.529 550.491 550.491 550.491> 425.036 110.2<280.48 327.03 280.48 334.631 280.48 365.591> 554.236 110.2<303.28 324.181 324.181 328.238>
LayerCount: 2
Fore
SplineSet
26.986328125 509.640625 m 1xec
 26.986328125 642.040039062 l 1xec
 99.677734375 690.879882812 l 1
 200.836914062 690.879882812 l 1
 200.836914062 260.529296875 l 1
 87.7861328125 260.529296875 l 1
 87.7861328125 550.491210938 l 1xdc
 26.986328125 509.640625 l 1xec
425.036132812 334.630859375 m 2
 425.036132812 396.551757812 472.646484375 437.23046875 545.686523438 437.23046875 c 0
 580.080078125 437.23046875 609.40234375 428.736328125 631.399414062 409.827148438 c 0
 653.5703125 390.768554688 664.436523438 363.880859375 664.436523438 332.73046875 c 2
 664.436523438 303.280273438 l 2
 664.436523438 268.82421875 658.319335938 246.325195312 631.08984375 206.279296875 c 2
 559.768554688 105.6796875 l 1
 665.38671875 105.6796875 l 1
 665.38671875 1.1796875 l 1
 422.186523438 1.1796875 l 1
 422.186523438 88.1044921875 l 1
 537.403320312 258.979492188 l 2
 552.525390625 280.401367188 554.236328125 287.70703125 554.236328125 303.280273438 c 2
 554.236328125 324.180664062 l 2
 554.236328125 332.294921875 548.915039062 332.73046875 543.786132812 332.73046875 c 0
 536.53125 332.73046875 535.916015625 331.361328125 535.916015625 331.361328125 c 2
 535.854492188 331.25390625 535.236328125 330.084960938 535.236328125 327.030273438 c 2
 535.236328125 280.48046875 l 1
 425.036132812 280.48046875 l 1
 425.036132812 334.630859375 l 2
390.35546875 698.481445312 m 1
 504.756835938 698.481445312 l 1
 245.017578125 1.181640625 l 1
 130.616210938 1.181640625 l 1
 390.35546875 698.481445312 l 1
EndSplineSet
Ligature2: "'frac' Diagonal Fractions lookup 2 subtable" one slash two
EndChar

StartChar: threequarters
Encoding: 190 190 127
Width: 746
GlyphClass: 3
Flags: MW
HStem: 428.68 104.5<113.437 145.736 113.437 147.637>
VStem: 30.7861 110.2<364.685 367.88 367.88 407.779 364.685 407.779 541.729 582.58> 160.937 112.1<371.68 408.729 408.729 413.479 352.307 414.027 548.38 555.029 555.029 578.779 578.779 582.414> 600.786 112.101<1.17969 61.9795 1.17969 61.9795 166.479 202.634 202.634 202.634>
LayerCount: 2
Fore
SplineSet
245.530273438 484.467773438 m 1
 262.217773438 471.517578125 273.036132812 453.169921875 273.036132812 413.479492188 c 2
 273.036132812 369.779296875 l 2
 273.036132812 334.833984375 262.590820312 305.202148438 239.915039062 284.48046875 c 0
 217.560546875 264.051757812 187.20703125 254.830078125 151.436523438 254.830078125 c 0
 115.374023438 254.830078125 85.1875 263.125 63.234375 282.33203125 c 0
 41.2138671875 301.599609375 30.7861328125 329.130859375 30.7861328125 361.229492188 c 2
 30.7861328125 407.779296875 l 1
 140.986328125 407.779296875 l 1
 140.986328125 367.879882812 l 2
 140.986328125 361.490234375 142.520507812 360.848632812 142.52734375 360.84375 c 0
 142.846679688 360.596679688 144.939453125 359.330078125 150.486328125 359.330078125 c 0
 155.603515625 359.330078125 158.405273438 360.057617188 159.49609375 360.426757812 c 0
 160.005859375 361.805664062 160.936523438 365.602539062 160.936523438 371.6796875 c 2
 160.936523438 408.729492188 l 2
 160.936523438 419.32421875 158.983398438 425.215820312 158.208007812 426.83984375 c 0
 157.208007812 427.265625 153.237304688 428.6796875 145.736328125 428.6796875 c 2
 113.436523438 428.6796875 l 1
 113.436523438 533.1796875 l 1
 147.63671875 533.1796875 l 2
 155.4453125 533.1796875 158.030273438 534.26953125 158.700195312 534.655273438 c 0
 159.186523438 535.599609375 160.936523438 539.794921875 160.936523438 548.379882812 c 2
 160.936523438 578.779296875 l 2
 160.936523438 586.047851562 159.37109375 589.186523438 159.0078125 589.80078125 c 0
 158.498046875 590.0546875 155.899414062 591.129882812 150.486328125 591.129882812 c 0
 144.939453125 591.129882812 142.846679688 589.862304688 142.52734375 589.616210938 c 0
 142.520507812 589.610351562 140.986328125 588.969726562 140.986328125 582.580078125 c 2
 140.986328125 541.729492188 l 1
 30.7861328125 541.729492188 l 1
 30.7861328125 587.330078125 l 2
 30.7861328125 652.84375 74.583984375 696.580078125 151.436523438 696.580078125 c 0
 187.629882812 696.580078125 218.06640625 687.854492188 240.255859375 668.000976562 c 0
 262.47265625 648.122070312 273.036132812 620.052734375 273.036132812 587.330078125 c 2
 273.036132812 555.029296875 l 2
 273.036132812 516.067382812 261.173828125 497.485351562 245.530273438 484.467773438 c 1
712.88671875 166.479492188 m 1
 740.436523438 166.479492188 l 1
 740.436523438 61.9794921875 l 1
 712.88671875 61.9794921875 l 1
 712.88671875 1.1796875 l 1
 600.786132812 1.1796875 l 1
 600.786132812 61.9794921875 l 1
 469.686523438 61.9794921875 l 1
 469.686523438 152.108398438 l 1
 560.82421875 431.529296875 l 1
 674.624023438 431.529296875 l 1
 613.946289062 243.4296875 l 1
 712.88671875 243.4296875 l 1
 712.88671875 166.479492188 l 1
600.786132812 166.479492188 m 1
 600.786132812 202.633789062 l 1
 589.124023438 166.479492188 l 1
 600.786132812 166.479492188 l 1
450.205078125 698.479492188 m 1
 564.607421875 698.479492188 l 1
 304.868164062 1.1796875 l 1
 190.465820312 1.1796875 l 1
 450.205078125 698.479492188 l 1
EndSplineSet
Ligature2: "'frac' Diagonal Fractions lookup 2 subtable" three slash four
EndChar

StartChar: questiondown
Encoding: 191 191 128
Width: 380
GlyphClass: 2
Flags: MW
HStem: 382.13 154.85<134.337 272.087 134.337 272.087>
VStem: 28.8867 146.3<10.3315 35.4268 10.3315 47.4312> 134.337 137.75<293.779 348.88 260.055 348.88 382.13 536.979> 232.187 144.4<51.5293 68.6299 -6.33496 68.6299>
LayerCount: 2
Fore
SplineSet
134.336914062 536.979492188 m 1xa0
 272.086914062 536.979492188 l 1
 272.086914062 382.129882812 l 1
 134.336914062 382.129882812 l 1
 134.336914062 536.979492188 l 1xa0
376.586914062 51.529296875 m 2xd0
 376.586914062 -64.19921875 339.473632812 -158.419921875 202.737304688 -158.419921875 c 0
 151.2734375 -158.419921875 108.149414062 -143.227539062 76.2412109375 -111.677734375 c 0
 44.181640625 -79.9794921875 28.88671875 -36.2724609375 28.88671875 16.37890625 c 0xd0
 28.88671875 78.4833984375 42.78125 112.510742188 73.779296875 157.286132812 c 2
 111.899414062 211.606445312 l 2
 129.04296875 235.416992188 134.336914062 249.494140625 134.336914062 293.779296875 c 2
 134.336914062 348.879882812 l 1
 272.086914062 348.879882812 l 1
 272.086914062 293.779296875 l 2xa0
 272.086914062 226.331054688 264.637695312 202.755859375 232.374023438 152.567382812 c 0
 232.331054688 152.500976562 199.099609375 100.279296875 199.099609375 100.279296875 c 2
 180.271484375 70.8603515625 175.186523438 52.57421875 175.186523438 18.279296875 c 0
 175.186523438 2.3837890625 178.078125 -8.263671875 181.706054688 -14.216796875 c 0
 185.783203125 -20.904296875 191.166015625 -24.470703125 203.686523438 -24.470703125 c 0
 210.618164062 -24.470703125 215.447265625 -23.32421875 218.439453125 -21.9306640625 c 0
 222.00390625 -20.2705078125 223.71484375 -18.5009765625 225.25390625 -14.515625 c 0
 229.096679688 -4.5712890625 232.186523438 18.2255859375 232.186523438 51.529296875 c 2
 232.186523438 68.6298828125 l 1
 376.586914062 68.6298828125 l 1
 376.586914062 51.529296875 l 2xd0
EndSplineSet
EndChar

StartChar: Agrave
Encoding: 192 192 129
Width: 485
GlyphClass: 2
Flags: MW
HStem: 128.479 138.7<218.045 286.229 218.045 314.237 189.086 286.229> 670.88 20G<181.866 322.426 322.426 322.426>
LayerCount: 2
Fore
SplineSet
4.943359375 1.1796875 m 1
 181.866210938 690.879882812 l 1
 322.42578125 690.879882812 l 1
 498.348632812 1.1796875 l 1
 340.836914062 1.1796875 l 1
 314.237304688 128.479492188 l 1
 189.0859375 128.479492188 l 1
 162.485351562 1.1796875 l 1
 4.943359375 1.1796875 l 1
218.044921875 267.1796875 m 1
 286.228515625 267.1796875 l 1
 252.13671875 431.76171875 l 1
 218.044921875 267.1796875 l 1
79.6689453125 878.979492188 m 1
 243.737304688 878.979492188 l 1
 362.682617188 715.580078125 l 1
 227.450195312 715.580078125 l 1
 79.6689453125 878.979492188 l 1
EndSplineSet
EndChar

StartChar: Aacute
Encoding: 193 193 130
Width: 485
GlyphClass: 2
Flags: MW
HStem: 128.479 138.7<218.045 286.229 218.045 314.237 189.086 286.229> 670.88 20G<181.866 322.426 322.426 322.426>
LayerCount: 2
Fore
SplineSet
4.943359375 1.1796875 m 1
 181.866210938 690.879882812 l 1
 322.42578125 690.879882812 l 1
 498.348632812 1.1796875 l 1
 340.836914062 1.1796875 l 1
 314.237304688 128.479492188 l 1
 189.0859375 128.479492188 l 1
 162.485351562 1.1796875 l 1
 4.943359375 1.1796875 l 1
218.044921875 267.1796875 m 1
 286.228515625 267.1796875 l 1
 252.13671875 431.76171875 l 1
 218.044921875 267.1796875 l 1
260.536132812 878.979492188 m 1
 424.603515625 878.979492188 l 1
 276.823242188 715.580078125 l 1
 141.58984375 715.580078125 l 1
 260.536132812 878.979492188 l 1
EndSplineSet
EndChar

StartChar: Acircumflex
Encoding: 194 194 131
Width: 485
GlyphClass: 2
Flags: MW
HStem: 128.479 138.7<218.045 286.229 218.045 314.237 189.086 286.229> 670.88 20G<181.866 322.426 322.426 322.426>
LayerCount: 2
Fore
SplineSet
4.943359375 1.1796875 m 1
 181.866210938 690.879882812 l 1
 322.42578125 690.879882812 l 1
 498.348632812 1.1796875 l 1
 340.836914062 1.1796875 l 1
 314.237304688 128.479492188 l 1
 189.0859375 128.479492188 l 1
 162.485351562 1.1796875 l 1
 4.943359375 1.1796875 l 1
218.044921875 267.1796875 m 1
 286.228515625 267.1796875 l 1
 252.13671875 431.76171875 l 1
 218.044921875 267.1796875 l 1
202.254882812 884.6796875 m 1
 299.067382812 884.6796875 l 1
 420.71875 709.879882812 l 1
 296.435546875 709.879882812 l 1
 252.012695312 773.33984375 l 1
 206.796875 709.879882812 l 1
 82.9658203125 709.879882812 l 1
 202.254882812 884.6796875 l 1
EndSplineSet
EndChar

StartChar: Atilde
Encoding: 195 195 132
Width: 485
GlyphClass: 2
Flags: MW
HStem: 128.479 138.7<218.045 286.229 218.045 314.237 189.086 286.229> 670.88 20G<181.866 322.426 322.426 322.426> 718.429 119.7<286.314 304.307 284.872 314.617> 751.679 119.7<198.589 208.059>
LayerCount: 2
Fore
SplineSet
4.943359375 1.1796875 m 1xc0
 181.866210938 690.879882812 l 1
 322.42578125 690.879882812 l 1
 498.348632812 1.1796875 l 1
 340.836914062 1.1796875 l 1
 314.237304688 128.479492188 l 1
 189.0859375 128.479492188 l 1
 162.485351562 1.1796875 l 1
 4.943359375 1.1796875 l 1xc0
218.044921875 267.1796875 m 1
 286.228515625 267.1796875 l 1
 252.13671875 431.76171875 l 1
 218.044921875 267.1796875 l 1
207.486328125 871.37890625 m 0xd0
 256.985351562 871.37890625 269.157226562 838.12890625 300.586914062 838.12890625 c 0
 308.026367188 838.12890625 312.9453125 839.786132812 316.622070312 842.29296875 c 0
 321.383789062 845.5390625 332.010742188 855.108398438 346.190429688 869.905273438 c 2
 375.63671875 900.634765625 l 1
 375.63671875 764.095703125 l 1
 348.669921875 734.291992188 332.448242188 718.428710938 296.786132812 718.428710938 c 0xe0
 275.842773438 718.428710938 264.639648438 722.161132812 236.866210938 738.809570312 c 0
 214.704101562 751.46484375 212.431640625 751.678710938 203.686523438 751.678710938 c 0
 193.4921875 751.678710938 185.53125 750.986328125 157.4140625 720.204101562 c 2
 127.686523438 687.658203125 l 1
 127.686523438 826.915039062 l 1
 153.63671875 854.1640625 171.270507812 871.37890625 207.486328125 871.37890625 c 0xd0
EndSplineSet
EndChar

StartChar: Adieresis
Encoding: 196 196 133
Width: 485
GlyphClass: 2
Flags: MW
HStem: 128.479 138.7<218.045 286.229 218.045 314.237 189.086 286.229> 670.88 20G<181.866 322.426 322.426 322.426> 716.529 142.5<116.286 238.837 116.286 238.837 116.286 264.486 264.486 387.036>
VStem: 116.286 122.551<716.529 859.029 716.529 859.029> 264.486 122.55<716.529 859.029 716.529 859.029>
LayerCount: 2
Fore
SplineSet
4.943359375 1.1796875 m 1
 181.866210938 690.879882812 l 1
 322.42578125 690.879882812 l 1
 498.348632812 1.1796875 l 1
 340.836914062 1.1796875 l 1
 314.237304688 128.479492188 l 1
 189.0859375 128.479492188 l 1
 162.485351562 1.1796875 l 1
 4.943359375 1.1796875 l 1
218.044921875 267.1796875 m 1
 286.228515625 267.1796875 l 1
 252.13671875 431.76171875 l 1
 218.044921875 267.1796875 l 1
116.286132812 859.029296875 m 1
 238.836914062 859.029296875 l 1
 238.836914062 716.529296875 l 1
 116.286132812 716.529296875 l 1
 116.286132812 859.029296875 l 1
264.486328125 859.029296875 m 1
 387.036132812 859.029296875 l 1
 387.036132812 716.529296875 l 1
 264.486328125 716.529296875 l 1
 264.486328125 859.029296875 l 1
EndSplineSet
EndChar

StartChar: Aring
Encoding: 197 197 134
Width: 485
GlyphClass: 2
Flags: MW
HStem: 128.48 138.7<189.086 286.227> 769.73 80.751<243.109 256.101>
VStem: 145.736 80.748<739.167 750.195 739.167 774.345> 276.836 81.7002<739.078 747.62>
LayerCount: 2
Fore
SplineSet
358.536132812 743.131835938 m 0
 358.536132812 708.584960938 343.3359375 683.333984375 328.245117188 668.064453125 c 1
 498.348632812 1.1796875 l 1
 340.836914062 1.1796875 l 1
 314.237304688 128.479492188 l 1
 272.520507812 128.479492188 230.802734375 128.48046875 189.0859375 128.48046875 c 1
 162.485351562 1.1806640625 l 1
 4.943359375 1.1806640625 l 1
 176.016601562 668.077148438 l 1
 168.045898438 676.14453125 145.736328125 701.250976562 145.736328125 743.131835938 c 0
 145.736328125 805.55859375 192.520507812 850.481445312 252.13671875 850.481445312 c 0
 311.751953125 850.481445312 358.536132812 805.559570312 358.536132812 743.131835938 c 0
252.135742188 769.73046875 m 0
 234.083007812 769.73046875 226.484375 757.258789062 226.484375 743.130859375 c 0
 226.484375 735.203125 228.737304688 729.905273438 233.82421875 724.819335938 c 0
 238.91015625 719.732421875 244.208007812 717.479492188 252.135742188 717.479492188 c 0
 260.06640625 717.479492188 265.045898438 719.701171875 269.734375 724.577148438 c 0
 274.579101562 729.618164062 276.8359375 735.024414062 276.8359375 743.130859375 c 0
 276.8359375 752.109375 274.40234375 757.778320312 269.734375 762.6328125 c 0
 265.045898438 767.509765625 260.06640625 769.73046875 252.135742188 769.73046875 c 0
218.04296875 267.180664062 m 1
 286.2265625 267.180664062 l 1
 252.134765625 431.762695312 l 1
 218.04296875 267.180664062 l 1
276.834960938 653.831054688 m 1024
EndSplineSet
EndChar

StartChar: AE
Encoding: 198 198 135
Width: 670
GlyphClass: 2
Flags: MW
HStem: 1.17969 138.7<483.937 659.687 483.937 659.687> 127.529 138.7<257.584 332.887 257.584 332.887 207.063 332.887> 282.38 138.7<483.937 635.937 483.937 635.937> 551.229 139.65<483.937 659.687 483.937 483.937>
LayerCount: 2
Fore
SplineSet
2.265625 1.1796875 m 1xb0
 262.153320312 690.879882812 l 1
 659.686523438 690.879882812 l 1
 659.686523438 551.229492188 l 1
 483.936523438 551.229492188 l 1
 483.936523438 421.080078125 l 1
 635.936523438 421.080078125 l 1
 635.936523438 282.379882812 l 1
 483.936523438 282.379882812 l 1
 483.936523438 139.879882812 l 1
 659.686523438 139.879882812 l 1
 659.686523438 1.1796875 l 1
 332.88671875 1.1796875 l 1xb0
 332.88671875 127.529296875 l 1
 207.063476562 127.529296875 l 1x70
 160.513671875 1.1796875 l 1
 2.265625 1.1796875 l 1xb0
332.88671875 266.229492188 m 1x70
 332.88671875 472.544921875 l 1
 257.583984375 266.229492188 l 1
 332.88671875 266.229492188 l 1x70
EndSplineSet
EndChar

StartChar: Ccedilla
Encoding: 199 199 136
Width: 468
GlyphClass: 2
Flags: MW
HStem: 560.729 139.65<234.215 261.116>
VStem: 40.2871 151.05<198.779 212.08 212.08 475.229> 295.836 151.051<454.33 490.43 490.43 491.38 454.33 514.817>
LayerCount: 2
Fore
SplineSet
295.8359375 490.4296875 m 2
 295.8359375 539.204101562 277.6953125 560.729492188 244.537109375 560.729492188 c 0
 223.893554688 560.729492188 212.6875 554.4140625 205.22265625 542.896484375 c 0
 196.946289062 530.127929688 191.336914062 507.741210938 191.336914062 475.229492188 c 2
 191.336914062 212.080078125 l 2
 191.336914062 134.345703125 228.051757812 133.229492188 244.537109375 133.229492188 c 0
 259.7109375 133.229492188 295.836914062 137.177734375 295.836914062 202.580078125 c 2
 295.836914062 236.779296875 l 1
 445.9375 236.779296875 l 1
 445.9375 201.629882812 l 2
 445.9375 147.775390625 433.616210938 102.754882812 407.290039062 68.2470703125 c 0
 383.272460938 36.7646484375 350.974609375 14.9501953125 311.872070312 3.234375 c 1
 258.569335938 -148.919921875 l 1
 123.466796875 -148.919921875 l 1
 187.709960938 -0.966796875 l 1
 133.583007812 9.9716796875 40.287109375 50.3544921875 40.287109375 198.779296875 c 2
 40.287109375 494.229492188 l 2
 40.287109375 559.421875 58.8291015625 611.864257812 98.078125 647.90234375 c 0
 136.560546875 683.236328125 187.15625 700.379882812 247.387695312 700.379882812 c 0
 305.224609375 700.379882812 354.006835938 683.2734375 391.166015625 648.21875 c 0
 429.283203125 612.258789062 446.88671875 558.776367188 446.88671875 491.379882812 c 2
 446.88671875 454.330078125 l 1
 295.8359375 454.330078125 l 1
 295.8359375 490.4296875 l 2
EndSplineSet
EndChar

StartChar: Egrave
Encoding: 200 200 137
Width: 379
GlyphClass: 2
Flags: MW
HStem: 1.17969 138.7<194.187 370.887 194.187 370.887> 282.38 138.7<194.187 346.187 194.187 346.187> 551.229 139.65<194.187 370.887 194.187 194.187>
VStem: 44.0869 150.1<139.88 139.88 139.88 282.38 421.08 551.229> 44.0869 326.8<1.17969 139.88 551.229 690.88>
LayerCount: 2
Fore
SplineSet
194.186523438 139.879882812 m 1xf0
 370.88671875 139.879882812 l 1
 370.88671875 1.1796875 l 1
 44.0869140625 1.1796875 l 1
 44.0869140625 690.879882812 l 1
 370.88671875 690.879882812 l 1
 370.88671875 551.229492188 l 1xe8
 194.186523438 551.229492188 l 1
 194.186523438 421.080078125 l 1
 346.186523438 421.080078125 l 1
 346.186523438 282.379882812 l 1
 194.186523438 282.379882812 l 1
 194.186523438 139.879882812 l 1xf0
38.8193359375 878.979492188 m 1
 202.88671875 878.979492188 l 1
 321.833007812 715.580078125 l 1
 186.599609375 715.580078125 l 1
 38.8193359375 878.979492188 l 1
EndSplineSet
EndChar

StartChar: Eacute
Encoding: 201 201 138
Width: 379
GlyphClass: 2
Flags: MW
HStem: 1.17969 138.7<194.187 370.887 194.187 370.887> 282.38 138.7<194.187 346.187 194.187 346.187> 551.229 139.65<194.187 370.887 194.187 194.187>
VStem: 44.0869 150.1<139.88 139.88 139.88 282.38 421.08 551.229> 44.0869 326.8<1.17969 139.88 551.229 690.88>
LayerCount: 2
Fore
SplineSet
194.186523438 139.879882812 m 1xf0
 370.88671875 139.879882812 l 1
 370.88671875 1.1796875 l 1
 44.0869140625 1.1796875 l 1
 44.0869140625 690.879882812 l 1
 370.88671875 690.879882812 l 1
 370.88671875 551.229492188 l 1xe8
 194.186523438 551.229492188 l 1
 194.186523438 421.080078125 l 1
 346.186523438 421.080078125 l 1
 346.186523438 282.379882812 l 1
 194.186523438 282.379882812 l 1
 194.186523438 139.879882812 l 1xf0
219.685546875 878.979492188 m 1
 383.75390625 878.979492188 l 1
 235.97265625 715.580078125 l 1
 100.740234375 715.580078125 l 1
 219.685546875 878.979492188 l 1
EndSplineSet
EndChar

StartChar: Ecircumflex
Encoding: 202 202 139
Width: 379
GlyphClass: 2
Flags: MW
HStem: 1.17969 138.7<194.187 370.887 194.187 370.887> 282.38 138.7<194.187 346.187 194.187 346.187> 551.229 139.65<194.187 370.887 194.187 194.187>
VStem: 44.0869 150.1<139.88 139.88 139.88 282.38 421.08 551.229> 44.0869 326.8<1.17969 139.88 551.229 690.88>
LayerCount: 2
Fore
SplineSet
194.186523438 139.879882812 m 1xf0
 370.88671875 139.879882812 l 1
 370.88671875 1.1796875 l 1
 44.0869140625 1.1796875 l 1
 44.0869140625 690.879882812 l 1
 370.88671875 690.879882812 l 1
 370.88671875 551.229492188 l 1xe8
 194.186523438 551.229492188 l 1
 194.186523438 421.080078125 l 1
 346.186523438 421.080078125 l 1
 346.186523438 282.379882812 l 1
 194.186523438 282.379882812 l 1
 194.186523438 139.879882812 l 1xf0
161.405273438 884.6796875 m 1
 258.217773438 884.6796875 l 1
 379.869140625 709.879882812 l 1
 255.584960938 709.879882812 l 1
 211.163085938 773.33984375 l 1
 165.947265625 709.879882812 l 1
 42.1162109375 709.879882812 l 1
 161.405273438 884.6796875 l 1
EndSplineSet
EndChar

StartChar: Edieresis
Encoding: 203 203 140
Width: 379
GlyphClass: 2
Flags: MW
HStem: 1.17969 138.7<194.187 370.887 194.187 370.887> 282.38 138.7<194.187 346.187 194.187 346.187> 551.229 139.65<194.187 370.887 194.187 194.187> 716.529 142.5<75.4365 197.986 75.4365 197.986 75.4365 223.637 223.637 346.187>
VStem: 44.0869 150.1<139.88 139.88 139.88 282.38 421.08 551.229> 44.0869 326.8<1.17969 139.88 551.229 690.88> 75.4365 122.55<716.529 859.029 716.529 859.029> 223.637 122.55<716.529 859.029>
LayerCount: 2
Fore
SplineSet
194.186523438 139.879882812 m 1xf9
 370.88671875 139.879882812 l 1
 370.88671875 1.1796875 l 1
 44.0869140625 1.1796875 l 1
 44.0869140625 690.879882812 l 1
 370.88671875 690.879882812 l 1
 370.88671875 551.229492188 l 1xf4
 194.186523438 551.229492188 l 1
 194.186523438 421.080078125 l 1
 346.186523438 421.080078125 l 1
 346.186523438 282.379882812 l 1
 194.186523438 282.379882812 l 1
 194.186523438 139.879882812 l 1xf9
75.4365234375 859.029296875 m 1xf2
 197.986328125 859.029296875 l 1
 197.986328125 716.529296875 l 1
 75.4365234375 716.529296875 l 1
 75.4365234375 859.029296875 l 1xf2
223.63671875 859.029296875 m 1xf1
 346.186523438 859.029296875 l 1
 346.186523438 716.529296875 l 1
 223.63671875 716.529296875 l 1
 223.63671875 859.029296875 l 1xf1
EndSplineSet
EndChar

StartChar: Igrave
Encoding: 204 204 141
Width: 225
GlyphClass: 2
Flags: MW
HStem: 670.88 20G<47.8867 197.986 197.986 197.986>
VStem: 47.8867 150.1<1.17969 690.88 1.17969 690.88>
LayerCount: 2
Fore
SplineSet
47.88671875 690.879882812 m 1
 197.986328125 690.879882812 l 1
 197.986328125 1.1796875 l 1
 47.88671875 1.1796875 l 1
 47.88671875 690.879882812 l 1
-49.53125 878.979492188 m 1
 114.537109375 878.979492188 l 1
 233.482421875 715.580078125 l 1
 98.25 715.580078125 l 1
 -49.53125 878.979492188 l 1
EndSplineSet
EndChar

StartChar: Iacute
Encoding: 205 205 142
Width: 225
GlyphClass: 2
Flags: MW
HStem: 670.88 20G<47.8867 197.986 197.986 197.986>
VStem: 47.8867 150.1<1.17969 690.88 1.17969 690.88>
LayerCount: 2
Fore
SplineSet
47.88671875 690.879882812 m 1
 197.986328125 690.879882812 l 1
 197.986328125 1.1796875 l 1
 47.88671875 1.1796875 l 1
 47.88671875 690.879882812 l 1
131.3359375 878.979492188 m 1
 295.403320312 878.979492188 l 1
 147.623046875 715.580078125 l 1
 12.3896484375 715.580078125 l 1
 131.3359375 878.979492188 l 1
EndSplineSet
EndChar

StartChar: Icircumflex
Encoding: 206 206 143
Width: 225
GlyphClass: 2
Flags: MW
HStem: 670.88 20G<47.8867 197.986 197.986 197.986>
VStem: 47.8867 150.1<1.17969 690.88 1.17969 690.88>
LayerCount: 2
Fore
SplineSet
47.88671875 690.879882812 m 1
 197.986328125 690.879882812 l 1
 197.986328125 1.1796875 l 1
 47.88671875 1.1796875 l 1
 47.88671875 690.879882812 l 1
73.0556640625 884.6796875 m 1
 169.8671875 884.6796875 l 1
 291.518554688 709.879882812 l 1
 167.235351562 709.879882812 l 1
 122.8125 773.33984375 l 1
 77.5966796875 709.879882812 l 1
 -46.234375 709.879882812 l 1
 73.0556640625 884.6796875 l 1
EndSplineSet
EndChar

StartChar: Idieresis
Encoding: 207 207 144
Width: 225
GlyphClass: 2
Flags: MW
HStem: 670.88 20G<47.8867 197.986 197.986 197.986> 716.529 142.5<-12.9131 109.637 -12.9131 109.637 -12.9131 135.286 135.286 257.837>
VStem: -12.9131 122.55<716.529 859.029 716.529 859.029> 47.8867 150.1<1.17969 690.88 1.17969 690.88> 135.286 122.551<716.529 859.029 716.529 859.029>
LayerCount: 2
Fore
SplineSet
47.88671875 690.879882812 m 1xd0
 197.986328125 690.879882812 l 1
 197.986328125 1.1796875 l 1
 47.88671875 1.1796875 l 1
 47.88671875 690.879882812 l 1xd0
-12.9130859375 859.029296875 m 1xe0
 109.63671875 859.029296875 l 1
 109.63671875 716.529296875 l 1
 -12.9130859375 716.529296875 l 1
 -12.9130859375 859.029296875 l 1xe0
135.286132812 859.029296875 m 1xc8
 257.836914062 859.029296875 l 1
 257.836914062 716.529296875 l 1
 135.286132812 716.529296875 l 1
 135.286132812 859.029296875 l 1xc8
EndSplineSet
EndChar

StartChar: Eth
Encoding: 208 208 145
Width: 483
GlyphClass: 2
Flags: MW
HStem: 1.17969 138.701<213.187 255.937> 286.181 138.7<213.187 294.887 213.187 294.887> 551.23 139.649<213.187 258.786 213.187 213.187>
VStem: 63.0869 150.1<139.881 286.18 286.18 286.18 424.881 551.23> 310.087 151.05<219.681 465.73 465.73 481.616>
LayerCount: 2
Fore
SplineSet
461.13671875 485.680664062 m 2
 461.13671875 206.380859375 l 2
 461.13671875 141.772460938 442.551757812 89.65625 403.345703125 53.6572265625 c 0
 364.944335938 18.3984375 314.995117188 1.1796875 255.936523438 1.1796875 c 2
 63.0869140625 1.1796875 l 1
 63.0869140625 286.1796875 l 1
 23.1865234375 286.1796875 l 1
 23.1865234375 424.879882812 l 1
 63.0869140625 424.879882812 l 1
 63.0869140625 690.879882812 l 1
 261.63671875 690.879882812 l 2
 320.052734375 690.879882812 369.041992188 673.8125 405.950195312 638.662109375 c 0
 443.5625 602.83984375 461.13671875 550.688476562 461.13671875 485.680664062 c 2
310.086914062 465.73046875 m 2
 310.086914062 497.501953125 304.412109375 519.65234375 295.768554688 532.858398438 c 0
 287.619140625 545.307617188 276.90234375 551.23046875 258.786132812 551.23046875 c 2
 213.186523438 551.23046875 l 1
 213.186523438 424.880859375 l 1
 294.88671875 424.880859375 l 1
 294.88671875 286.180664062 l 1
 213.186523438 286.180664062 l 1
 213.186523438 139.880859375 l 1
 258.786132812 139.880859375 l 2
 276.206054688 139.880859375 286.977539062 145.647460938 295.495117188 158.079101562 c 0
 304.494140625 171.212890625 310.086914062 191.37890625 310.086914062 219.680664062 c 2
 310.086914062 465.73046875 l 2
EndSplineSet
EndChar

StartChar: Ntilde
Encoding: 209 209 146
Width: 474
GlyphClass: 2
Flags: MW
HStem: 670.88 20G<44.0869 189.89 189.89 189.89 297.736 448.786 448.786 448.786> 718.429 119.7<280.615 298.606 279.172 308.916> 751.679 119.7<192.889 202.359>
VStem: 44.0869 151.05<1.17969 277.245 1.17969 690.88> 297.736 151.05<403.289 690.88 1.17969 690.88>
LayerCount: 2
Fore
SplineSet
448.786132812 690.879882812 m 1x98
 448.786132812 1.1796875 l 1
 303.162109375 1.1796875 l 1
 195.13671875 277.245117188 l 1
 195.13671875 1.1796875 l 1
 44.0869140625 1.1796875 l 1
 44.0869140625 690.879882812 l 1
 189.889648438 690.879882812 l 1
 297.736328125 403.2890625 l 1
 297.736328125 690.879882812 l 1
 448.786132812 690.879882812 l 1x98
201.786132812 871.37890625 m 0xb8
 251.28515625 871.37890625 263.458007812 838.12890625 294.88671875 838.12890625 c 0
 302.326171875 838.12890625 307.244140625 839.786132812 310.920898438 842.29296875 c 0
 315.682617188 845.5390625 326.310546875 855.108398438 340.491210938 869.90625 c 2
 369.936523438 900.6328125 l 1
 369.936523438 764.095703125 l 1
 342.963867188 734.287109375 326.745117188 718.428710938 291.086914062 718.428710938 c 0xd8
 270.142578125 718.428710938 258.940429688 722.161132812 231.166992188 738.809570312 c 0
 209.004882812 751.46484375 206.731445312 751.678710938 197.986328125 751.678710938 c 0
 187.791992188 751.678710938 179.831054688 750.986328125 151.713867188 720.204101562 c 2
 121.986328125 687.658203125 l 1
 121.986328125 826.915039062 l 1
 147.9375 854.1640625 165.5703125 871.37890625 201.786132812 871.37890625 c 0xb8
EndSplineSet
EndChar

StartChar: Ograve
Encoding: 210 210 147
Width: 468
GlyphClass: 2
Flags: MW
HStem: -6.41992 139.648<236.293 253.304 236.293 270.287> 560.729 139.651<234.214 253.594>
VStem: 40.2861 151.051<198.779 212.079 212.079 475.229> 295.837 151.05<212.08 475.229 475.229 491.115>
LayerCount: 2
Fore
SplineSet
40.2861328125 198.779296875 m 2
 40.2861328125 494.229492188 l 2
 40.2861328125 559.421875 58.828125 611.864257812 98.0771484375 647.90234375 c 0
 136.559570312 683.236328125 187.155273438 700.379882812 247.38671875 700.379882812 c 0
 305.841796875 700.379882812 354.864257812 683.120117188 391.76171875 647.627929688 c 0
 429.30859375 611.51171875 446.88671875 559.24609375 446.88671875 494.229492188 c 2
 446.88671875 198.779296875 l 2
 446.88671875 134.712890625 428.0625 82.77734375 388.625976562 46.537109375 c 0
 349.94140625 10.9892578125 299.837890625 -6.419921875 240.736328125 -6.419921875 c 0
 181.120117188 -6.419921875 131.565429688 10.7587890625 94.876953125 46.388671875 c 0
 57.712890625 82.48046875 40.2861328125 134.385742188 40.2861328125 198.779296875 c 2
191.336914062 212.079101562 m 2
 191.336914062 134.344726562 228.05078125 133.228515625 244.536132812 133.228515625 c 0
 262.071289062 133.228515625 272.873046875 138.959960938 281.330078125 151.075195312 c 0
 290.223632812 163.815429688 295.836914062 183.764648438 295.836914062 212.080078125 c 2
 295.836914062 475.229492188 l 2
 295.836914062 507.000976562 290.162109375 529.150390625 281.518554688 542.356445312 c 0
 273.369140625 554.805664062 262.65234375 560.728515625 244.536132812 560.728515625 c 0
 223.892578125 560.728515625 212.686523438 554.413085938 205.221679688 542.895507812 c 0
 196.9453125 530.126953125 191.336914062 507.740234375 191.336914062 475.228515625 c 2
 191.336914062 212.079101562 l 2
71.119140625 878.979492188 m 1
 235.1875 878.979492188 l 1
 354.1328125 715.580078125 l 1
 218.900390625 715.580078125 l 1
 71.119140625 878.979492188 l 1
EndSplineSet
EndChar

StartChar: Oacute
Encoding: 211 211 148
Width: 468
GlyphClass: 2
Flags: MW
HStem: -6.41992 139.648<236.293 253.304 236.293 270.287> 560.729 139.651<234.214 253.594>
VStem: 40.2861 151.051<198.779 212.079 212.079 475.229> 295.837 151.05<212.08 475.229 475.229 491.115>
LayerCount: 2
Fore
SplineSet
40.2861328125 198.779296875 m 2
 40.2861328125 494.229492188 l 2
 40.2861328125 559.421875 58.828125 611.864257812 98.0771484375 647.90234375 c 0
 136.559570312 683.236328125 187.155273438 700.379882812 247.38671875 700.379882812 c 0
 305.841796875 700.379882812 354.864257812 683.120117188 391.76171875 647.627929688 c 0
 429.30859375 611.51171875 446.88671875 559.24609375 446.88671875 494.229492188 c 2
 446.88671875 198.779296875 l 2
 446.88671875 134.712890625 428.0625 82.77734375 388.625976562 46.537109375 c 0
 349.94140625 10.9892578125 299.837890625 -6.419921875 240.736328125 -6.419921875 c 0
 181.120117188 -6.419921875 131.565429688 10.7587890625 94.876953125 46.388671875 c 0
 57.712890625 82.48046875 40.2861328125 134.385742188 40.2861328125 198.779296875 c 2
191.336914062 212.079101562 m 2
 191.336914062 134.344726562 228.05078125 133.228515625 244.536132812 133.228515625 c 0
 262.071289062 133.228515625 272.873046875 138.959960938 281.330078125 151.075195312 c 0
 290.223632812 163.815429688 295.836914062 183.764648438 295.836914062 212.080078125 c 2
 295.836914062 475.229492188 l 2
 295.836914062 507.000976562 290.162109375 529.150390625 281.518554688 542.356445312 c 0
 273.369140625 554.805664062 262.65234375 560.728515625 244.536132812 560.728515625 c 0
 223.892578125 560.728515625 212.686523438 554.413085938 205.221679688 542.895507812 c 0
 196.9453125 530.126953125 191.336914062 507.740234375 191.336914062 475.228515625 c 2
 191.336914062 212.079101562 l 2
251.985351562 878.979492188 m 1
 416.053710938 878.979492188 l 1
 268.272460938 715.580078125 l 1
 133.040039062 715.580078125 l 1
 251.985351562 878.979492188 l 1
EndSplineSet
EndChar

StartChar: Ocircumflex
Encoding: 212 212 149
Width: 468
GlyphClass: 2
Flags: MW
HStem: -6.41992 139.648<236.293 253.304 236.293 270.287> 560.729 139.651<234.214 253.594>
VStem: 40.2861 151.051<198.779 212.079 212.079 475.229> 295.837 151.05<212.08 475.229 475.229 491.115>
LayerCount: 2
Fore
SplineSet
40.2861328125 198.779296875 m 2
 40.2861328125 494.229492188 l 2
 40.2861328125 559.421875 58.828125 611.864257812 98.0771484375 647.90234375 c 0
 136.559570312 683.236328125 187.155273438 700.379882812 247.38671875 700.379882812 c 0
 305.841796875 700.379882812 354.864257812 683.120117188 391.76171875 647.627929688 c 0
 429.30859375 611.51171875 446.88671875 559.24609375 446.88671875 494.229492188 c 2
 446.88671875 198.779296875 l 2
 446.88671875 134.712890625 428.0625 82.77734375 388.625976562 46.537109375 c 0
 349.94140625 10.9892578125 299.837890625 -6.419921875 240.736328125 -6.419921875 c 0
 181.120117188 -6.419921875 131.565429688 10.7587890625 94.876953125 46.388671875 c 0
 57.712890625 82.48046875 40.2861328125 134.385742188 40.2861328125 198.779296875 c 2
191.336914062 212.079101562 m 2
 191.336914062 134.344726562 228.05078125 133.228515625 244.536132812 133.228515625 c 0
 262.071289062 133.228515625 272.873046875 138.959960938 281.330078125 151.075195312 c 0
 290.223632812 163.815429688 295.836914062 183.764648438 295.836914062 212.080078125 c 2
 295.836914062 475.229492188 l 2
 295.836914062 507.000976562 290.162109375 529.150390625 281.518554688 542.356445312 c 0
 273.369140625 554.805664062 262.65234375 560.728515625 244.536132812 560.728515625 c 0
 223.892578125 560.728515625 212.686523438 554.413085938 205.221679688 542.895507812 c 0
 196.9453125 530.126953125 191.336914062 507.740234375 191.336914062 475.228515625 c 2
 191.336914062 212.079101562 l 2
290.517578125 884.6796875 m 1
 412.168945312 709.879882812 l 1
 287.884765625 709.879882812 l 1
 243.462890625 773.33984375 l 1
 198.247070312 709.879882812 l 1
 74.416015625 709.879882812 l 1
 193.705078125 884.6796875 l 1
 290.517578125 884.6796875 l 1
EndSplineSet
EndChar

StartChar: Otilde
Encoding: 213 213 150
Width: 468
GlyphClass: 2
Flags: MW
HStem: -6.41992 139.648<236.293 253.304 236.293 270.287> 560.729 139.651<234.214 253.594> 718.429 119.7<277.764 295.756 276.322 306.067> 751.679 119.7<190.04 199.509>
VStem: 40.2861 151.051<198.779 212.079 212.079 475.229> 295.837 151.05<212.08 475.229 475.229 491.115>
LayerCount: 2
Fore
SplineSet
40.2861328125 198.779296875 m 2xcc
 40.2861328125 494.229492188 l 2
 40.2861328125 559.421875 58.828125 611.864257812 98.0771484375 647.90234375 c 0
 136.559570312 683.236328125 187.155273438 700.379882812 247.38671875 700.379882812 c 0
 305.841796875 700.379882812 354.864257812 683.120117188 391.76171875 647.627929688 c 0
 429.30859375 611.51171875 446.88671875 559.24609375 446.88671875 494.229492188 c 2
 446.88671875 198.779296875 l 2
 446.88671875 134.712890625 428.0625 82.77734375 388.625976562 46.537109375 c 0
 349.94140625 10.9892578125 299.837890625 -6.419921875 240.736328125 -6.419921875 c 0
 181.120117188 -6.419921875 131.565429688 10.7587890625 94.876953125 46.388671875 c 0
 57.712890625 82.48046875 40.2861328125 134.385742188 40.2861328125 198.779296875 c 2xcc
191.336914062 212.079101562 m 2
 191.336914062 134.344726562 228.05078125 133.228515625 244.536132812 133.228515625 c 0
 262.071289062 133.228515625 272.873046875 138.959960938 281.330078125 151.075195312 c 0
 290.223632812 163.815429688 295.836914062 183.764648438 295.836914062 212.080078125 c 2
 295.836914062 475.229492188 l 2
 295.836914062 507.000976562 290.162109375 529.150390625 281.518554688 542.356445312 c 0
 273.369140625 554.805664062 262.65234375 560.728515625 244.536132812 560.728515625 c 0
 223.892578125 560.728515625 212.686523438 554.413085938 205.221679688 542.895507812 c 0
 196.9453125 530.126953125 191.336914062 507.740234375 191.336914062 475.228515625 c 2
 191.336914062 212.079101562 l 2
198.936523438 871.37890625 m 0xdc
 248.434570312 871.37890625 260.607421875 838.12890625 292.036132812 838.12890625 c 0
 299.4765625 838.12890625 304.395507812 839.786132812 308.071289062 842.29296875 c 0
 312.833007812 845.5390625 323.4609375 855.108398438 337.640625 869.905273438 c 2
 367.086914062 900.634765625 l 1
 367.086914062 764.095703125 l 1
 340.120117188 734.291992188 323.8984375 718.428710938 288.236328125 718.428710938 c 0xec
 267.291992188 718.428710938 256.08984375 722.161132812 228.31640625 738.809570312 c 0
 206.154296875 751.46484375 203.881835938 751.678710938 195.13671875 751.678710938 c 0
 184.942382812 751.678710938 176.98046875 750.986328125 148.864257812 720.204101562 c 2
 119.13671875 687.658203125 l 1
 119.13671875 826.915039062 l 1
 145.086914062 854.1640625 162.720703125 871.37890625 198.936523438 871.37890625 c 0xdc
EndSplineSet
EndChar

StartChar: Odieresis
Encoding: 214 214 151
Width: 468
GlyphClass: 2
Flags: MW
HStem: -6.41992 139.648<236.293 253.304 236.293 270.287> 560.729 139.651<234.214 253.594> 716.529 142.5<107.736 230.286 107.736 230.286 107.736 255.937 255.937 378.486>
VStem: 40.2861 151.051<198.779 212.079 212.079 475.229> 107.736 122.55<716.529 859.029 716.529 859.029> 255.937 122.55<716.529 859.029 716.529 859.029> 295.837 151.05<212.08 475.229 475.229 491.115>
LayerCount: 2
Fore
SplineSet
40.2861328125 198.779296875 m 2xf2
 40.2861328125 494.229492188 l 2
 40.2861328125 559.421875 58.828125 611.864257812 98.0771484375 647.90234375 c 0
 136.559570312 683.236328125 187.155273438 700.379882812 247.38671875 700.379882812 c 0
 305.841796875 700.379882812 354.864257812 683.120117188 391.76171875 647.627929688 c 0
 429.30859375 611.51171875 446.88671875 559.24609375 446.88671875 494.229492188 c 2
 446.88671875 198.779296875 l 2
 446.88671875 134.712890625 428.0625 82.77734375 388.625976562 46.537109375 c 0
 349.94140625 10.9892578125 299.837890625 -6.419921875 240.736328125 -6.419921875 c 0
 181.120117188 -6.419921875 131.565429688 10.7587890625 94.876953125 46.388671875 c 0
 57.712890625 82.48046875 40.2861328125 134.385742188 40.2861328125 198.779296875 c 2xf2
191.336914062 212.079101562 m 2
 191.336914062 134.344726562 228.05078125 133.228515625 244.536132812 133.228515625 c 0
 262.071289062 133.228515625 272.873046875 138.959960938 281.330078125 151.075195312 c 0
 290.223632812 163.815429688 295.836914062 183.764648438 295.836914062 212.080078125 c 2
 295.836914062 475.229492188 l 2
 295.836914062 507.000976562 290.162109375 529.150390625 281.518554688 542.356445312 c 0
 273.369140625 554.805664062 262.65234375 560.728515625 244.536132812 560.728515625 c 0
 223.892578125 560.728515625 212.686523438 554.413085938 205.221679688 542.895507812 c 0
 196.9453125 530.126953125 191.336914062 507.740234375 191.336914062 475.228515625 c 2
 191.336914062 212.079101562 l 2
107.736328125 859.029296875 m 1xe8
 230.286132812 859.029296875 l 1
 230.286132812 716.529296875 l 1
 107.736328125 716.529296875 l 1
 107.736328125 859.029296875 l 1xe8
255.936523438 859.029296875 m 1xe4
 378.486328125 859.029296875 l 1
 378.486328125 716.529296875 l 1
 255.936523438 716.529296875 l 1
 255.936523438 859.029296875 l 1xe4
EndSplineSet
EndChar

StartChar: multiply
Encoding: 215 215 152
Width: 422
GlyphClass: 2
Flags: W
LayerCount: 2
Fore
SplineSet
220.72265625 186.887695312 m 1
 130.536132812 96.701171875 l 1
 37.0078125 190.229492188 l 1
 127.194335938 280.416015625 l 1
 36.9443359375 369.715820312 l 1
 130.47265625 463.244140625 l 1
 220.72265625 373.944335938 l 1
 310.086914062 463.307617188 l 1
 403.614257812 369.779296875 l 1
 314.250976562 280.416015625 l 1
 403.55078125 190.166015625 l 1
 310.022460938 96.6376953125 l 1
 220.72265625 186.887695312 l 1
EndSplineSet
EndChar

StartChar: Oslash
Encoding: 216 216 153
Width: 468
GlyphClass: 2
Flags: MW
HStem: -6.41992 139.649<232.336 253.303 232.336 270.286> 560.729 139.65<234.213 255.418>
VStem: 40.2861 151.05<338.115 475.229 338.115 494.229 338.115 526.826> 295.836 151.05<212.08 361.647 361.647 361.647>
LayerCount: 2
Fore
SplineSet
456.165039062 717.479492188 m 1
 413.252929688 621.493164062 l 1
 436.021484375 586.935546875 446.885742188 544.095703125 446.885742188 494.229492188 c 2
 446.885742188 198.779296875 l 2
 446.885742188 134.712890625 428.061523438 82.77734375 388.625 46.537109375 c 0
 349.940429688 10.9892578125 299.836914062 -6.419921875 240.735351562 -6.419921875 c 0
 202.743164062 -6.419921875 168.748046875 0.6005859375 139.376953125 15.1279296875 c 1
 124.471679688 -17.8203125 l 1
 31.0712890625 -17.8203125 l 1
 72.0712890625 74.4306640625 l 1
 50.478515625 107.887695312 40.2861328125 149.735351562 40.2861328125 198.779296875 c 2
 40.2861328125 494.229492188 l 2
 40.2861328125 559.421875 58.828125 611.864257812 98.0771484375 647.90234375 c 0
 136.559570312 683.236328125 187.155273438 700.379882812 247.38671875 700.379882812 c 0
 284.494140625 700.379882812 317.51171875 693.71875 345.822265625 679.828125 c 1
 362.645507812 717.479492188 l 1
 456.165039062 717.479492188 l 1
282.700195312 540.618164062 m 1
 276.631835938 551.57421875 266.301757812 560.729492188 244.53515625 560.729492188 c 0
 223.891601562 560.729492188 212.685546875 554.4140625 205.220703125 542.896484375 c 0
 196.944335938 530.127929688 191.3359375 507.741210938 191.3359375 475.229492188 c 2
 191.3359375 338.115234375 l 1
 282.700195312 540.618164062 l 1
202.581054688 155.250976562 m 1
 208.961914062 143.670898438 220.13671875 133.229492188 244.53515625 133.229492188 c 0
 262.0703125 133.229492188 272.872070312 138.9609375 281.329101562 151.076171875 c 0
 290.223632812 163.81640625 295.8359375 183.764648438 295.8359375 212.080078125 c 2
 295.8359375 361.647460938 l 1
 202.581054688 155.250976562 l 1
EndSplineSet
EndChar

StartChar: Ugrave
Encoding: 217 217 154
Width: 461
GlyphClass: 2
Flags: MW
HStem: -6.41992 139.65<228.473 248.218 228.473 295.537> 670.881 20G<44.0869 195.137 195.137 195.137 284.437 435.486 435.486 435.486>
VStem: 44.0869 151.05<190.23 193.081 193.081 690.881> 284.437 151.05<193.081 690.881>
LayerCount: 2
Fore
SplineSet
239.786132812 -6.419921875 m 0
 125.897460938 -6.419921875 44.0869140625 74.302734375 44.0869140625 190.23046875 c 2
 44.0869140625 690.880859375 l 1
 195.13671875 690.880859375 l 1
 195.13671875 193.081054688 l 2
 195.13671875 139.25 217.16015625 133.23046875 239.786132812 133.23046875 c 0
 256.649414062 133.23046875 284.436523438 135.75 284.436523438 193.081054688 c 2
 284.436523438 690.880859375 l 1
 435.486328125 690.880859375 l 1
 435.486328125 190.23046875 l 2
 435.486328125 70.3828125 351.287109375 -6.419921875 239.786132812 -6.419921875 c 0
67.318359375 878.979492188 m 1
 231.385742188 878.979492188 l 1
 350.33203125 715.580078125 l 1
 215.098632812 715.580078125 l 1
 67.318359375 878.979492188 l 1
EndSplineSet
EndChar

StartChar: Uacute
Encoding: 218 218 155
Width: 461
GlyphClass: 2
Flags: MW
HStem: -6.41992 139.65<228.473 248.218 228.473 295.537> 670.881 20G<44.0869 195.137 195.137 195.137 284.437 435.486 435.486 435.486>
VStem: 44.0869 151.05<190.23 193.081 193.081 690.881> 284.437 151.05<193.081 690.881>
LayerCount: 2
Fore
SplineSet
239.786132812 -6.419921875 m 0
 125.897460938 -6.419921875 44.0869140625 74.302734375 44.0869140625 190.23046875 c 2
 44.0869140625 690.880859375 l 1
 195.13671875 690.880859375 l 1
 195.13671875 193.081054688 l 2
 195.13671875 139.25 217.16015625 133.23046875 239.786132812 133.23046875 c 0
 256.649414062 133.23046875 284.436523438 135.75 284.436523438 193.081054688 c 2
 284.436523438 690.880859375 l 1
 435.486328125 690.880859375 l 1
 435.486328125 190.23046875 l 2
 435.486328125 70.3828125 351.287109375 -6.419921875 239.786132812 -6.419921875 c 0
248.184570312 878.979492188 m 1
 412.252929688 878.979492188 l 1
 264.471679688 715.580078125 l 1
 129.239257812 715.580078125 l 1
 248.184570312 878.979492188 l 1
EndSplineSet
EndChar

StartChar: Ucircumflex
Encoding: 219 219 156
Width: 461
GlyphClass: 2
Flags: MW
HStem: -6.41992 139.65<228.473 248.218 228.473 295.537> 670.881 20G<44.0869 195.137 195.137 195.137 284.437 435.486 435.486 435.486>
VStem: 44.0869 151.05<190.23 193.081 193.081 690.881> 284.437 151.05<193.081 690.881>
LayerCount: 2
Fore
SplineSet
239.786132812 -6.419921875 m 0
 125.897460938 -6.419921875 44.0869140625 74.302734375 44.0869140625 190.23046875 c 2
 44.0869140625 690.880859375 l 1
 195.13671875 690.880859375 l 1
 195.13671875 193.081054688 l 2
 195.13671875 139.25 217.16015625 133.23046875 239.786132812 133.23046875 c 0
 256.649414062 133.23046875 284.436523438 135.75 284.436523438 193.081054688 c 2
 284.436523438 690.880859375 l 1
 435.486328125 690.880859375 l 1
 435.486328125 190.23046875 l 2
 435.486328125 70.3828125 351.287109375 -6.419921875 239.786132812 -6.419921875 c 0
286.716796875 884.6796875 m 1
 408.368164062 709.879882812 l 1
 284.083984375 709.879882812 l 1
 239.662109375 773.33984375 l 1
 194.446289062 709.879882812 l 1
 70.615234375 709.879882812 l 1
 189.904296875 884.6796875 l 1
 286.716796875 884.6796875 l 1
EndSplineSet
EndChar

StartChar: Udieresis
Encoding: 220 220 157
Width: 461
GlyphClass: 2
Flags: MW
HStem: -6.41992 139.65<228.473 248.218 228.473 295.537> 670.881 20G<44.0869 195.137 195.137 195.137 284.437 435.486 435.486 435.486> 716.529 142.5<103.936 226.485 103.936 226.485 103.936 252.136 252.136 374.686>
VStem: 44.0869 151.05<190.23 193.081 193.081 690.881> 103.936 122.55<716.529 859.029 716.529 859.029> 252.136 122.55<716.529 859.029 716.529 859.029> 284.437 151.05<193.081 690.881>
LayerCount: 2
Fore
SplineSet
239.786132812 -6.419921875 m 0xf2
 125.897460938 -6.419921875 44.0869140625 74.302734375 44.0869140625 190.23046875 c 2
 44.0869140625 690.880859375 l 1
 195.13671875 690.880859375 l 1
 195.13671875 193.081054688 l 2
 195.13671875 139.25 217.16015625 133.23046875 239.786132812 133.23046875 c 0
 256.649414062 133.23046875 284.436523438 135.75 284.436523438 193.081054688 c 2
 284.436523438 690.880859375 l 1
 435.486328125 690.880859375 l 1
 435.486328125 190.23046875 l 2
 435.486328125 70.3828125 351.287109375 -6.419921875 239.786132812 -6.419921875 c 0xf2
103.935546875 859.029296875 m 1xe8
 226.485351562 859.029296875 l 1
 226.485351562 716.529296875 l 1
 103.935546875 716.529296875 l 1
 103.935546875 859.029296875 l 1xe8
252.135742188 859.029296875 m 1xe4
 374.685546875 859.029296875 l 1
 374.685546875 716.529296875 l 1
 252.135742188 716.529296875 l 1
 252.135742188 859.029296875 l 1xe4
EndSplineSet
EndChar

StartChar: Yacute
Encoding: 221 221 158
Width: 417
GlyphClass: 2
Flags: MW
HStem: 670.88 20G<3.24023 168.591 168.591 168.591 267.282 433.547 433.547 433.547>
VStem: 142.887 151.05<1.17969 271.051 1.17969 272.938 1.17969 272.938>
LayerCount: 2
Fore
SplineSet
267.282226562 690.879882812 m 1
 433.546875 690.879882812 l 1
 293.936523438 271.05078125 l 1
 293.936523438 1.1796875 l 1
 142.88671875 1.1796875 l 1
 142.88671875 272.938476562 l 1
 3.240234375 690.879882812 l 1
 168.590820312 690.879882812 l 1
 217.936523438 493.498046875 l 1
 267.282226562 690.879882812 l 1
226.3359375 878.979492188 m 1
 390.403320312 878.979492188 l 1
 242.623046875 715.580078125 l 1
 107.389648438 715.580078125 l 1
 226.3359375 878.979492188 l 1
EndSplineSet
EndChar

StartChar: Thorn
Encoding: 222 222 159
Width: 436
GlyphClass: 2
Flags: MW
HStem: 137.979 138.7<194.188 234.087 234.087 237.887 194.187 234.087> 445.779 139.65<194.188 234.087 194.188 194.188> 670.88 20G<44.0869 194.187 194.187 194.187>
VStem: 44.0869 150.101<276.68 445.779 276.68 690.88> 283.487 151.05<345.495 378.536>
LayerCount: 2
Fore
SplineSet
434.537109375 362.1796875 m 0
 434.537109375 191.48046875 353.653320312 137.979492188 237.88671875 137.979492188 c 2
 194.186523438 137.979492188 l 1
 194.186523438 1.1796875 l 1
 44.0869140625 1.1796875 l 1
 44.0869140625 690.879882812 l 1
 194.186523438 690.879882812 l 1
 194.186523438 585.4296875 l 1
 237.88671875 585.4296875 l 2
 305.206054688 585.4296875 357.389648438 567.524414062 389.434570312 527.745117188 c 0
 420.594726562 489.0625 434.537109375 433.280273438 434.537109375 362.1796875 c 0
283.487304688 362.1796875 m 0
 283.487304688 394.892578125 278.380859375 417.334960938 271.163085938 429.442382812 c 0
 265.104492188 439.60546875 255.016601562 445.779296875 234.086914062 445.779296875 c 2
 194.1875 445.779296875 l 1
 194.1875 276.6796875 l 1
 234.086914062 276.6796875 l 2
 254.903320312 276.6796875 264.95703125 282.881835938 271.090820312 293.369140625 c 0
 278.375 305.825195312 283.487304688 328.810546875 283.487304688 362.1796875 c 0
EndSplineSet
EndChar

StartChar: germandbls
Encoding: 223 223 160
Width: 423
GlyphClass: 2
Flags: MW
HStem: -3.57031 21G<205.587 247.387 205.587 205.587> 567.38 133<215.157 227.053>
VStem: 43.1348 144.399<1.17969 511.33 511.33 525.58 1.17969 536.907> 205.587 186.83 256.884 144.401<202.597 268.208>
LayerCount: 2
Fore
SplineSet
356.24609375 405.8359375 m 1xe8
 394.184570312 374.184570312 401.28515625 338.405273438 401.28515625 232.029296875 c 0xe8
 401.28515625 173.165039062 398.508789062 128.767578125 392.416992188 97.6328125 c 0
 386.134765625 65.51953125 371.6796875 39.2802734375 348.391601562 21.71875 c 0
 324.40234375 3.6279296875 290.327148438 -3.5703125 247.38671875 -3.5703125 c 2
 205.586914062 -3.5703125 l 1
 205.586914062 123.729492188 l 1xf0
 237.884765625 123.729492188 l 2
 245.213867188 123.729492188 246.716796875 125.432617188 248.173828125 127.708984375 c 0
 254.271484375 137.23046875 256.883789062 155.334960938 256.883789062 232.029296875 c 0
 256.883789062 304.385742188 254.053710938 319.6640625 248.009765625 329.486328125 c 0
 246.409179688 332.087890625 244.9765625 333.6796875 237.884765625 333.6796875 c 2
 203.684570312 333.6796875 l 1
 203.684570312 460.029296875 l 1
 235.984375 460.029296875 l 2
 245.505859375 460.029296875 246.516601562 463.060546875 247.307617188 465.434570312 c 0
 249.928710938 473.296875 252.134765625 491.573242188 252.134765625 517.979492188 c 0
 252.134765625 538.29296875 248.201171875 551.258789062 243.435546875 557.930664062 c 0
 239.204101562 563.85546875 233.322265625 567.379882812 220.784179688 567.379882812 c 0
 209.530273438 567.379882812 187.534179688 566.08203125 187.534179688 525.580078125 c 2
 187.534179688 1.1796875 l 1
 43.134765625 1.1796875 l 1
 43.134765625 511.330078125 l 2
 43.134765625 562.483398438 50.96875 700.379882812 220.784179688 700.379882812 c 0
 273.92578125 700.379882812 317.876953125 685.529296875 349.654296875 654.11328125 c 0
 381.341796875 622.78515625 396.534179688 579.881835938 396.534179688 528.4296875 c 0
 396.534179688 461.607421875 385.254882812 432.961914062 356.24609375 405.8359375 c 1xe8
EndSplineSet
EndChar

StartChar: agrave
Encoding: 224 224 161
Width: 408
GlyphClass: 2
Flags: MW
HStem: -6.4209 130.148<153.347 218.039> 218.729 111.15<218.537 228.389 228.389 239.788> 413.479 131.101<203.903 216.384>
VStem: 32.6885 144.399<160.866 180.731 160.866 190.712> 239.788 144.4<168.379 218.729 218.729 218.729 329.879 367.879 1.17871 376.429 1.17871 393.84>
LayerCount: 2
Fore
SplineSet
210.337890625 413.479492188 m 0
 197.46875 413.479492188 181.836914062 407.965820312 181.836914062 381.1796875 c 2
 181.836914062 356.479492188 l 1
 45.9873046875 356.479492188 l 1
 45.9873046875 377.379882812 l 2
 45.9873046875 429.922851562 61.0654296875 472.747070312 93.3916015625 502.134765625 c 0
 124.813476562 530.701171875 165.541015625 544.580078125 213.1875 544.580078125 c 0
 265.334960938 544.580078125 308.467773438 528.833007812 339.208984375 495.921875 c 0
 369.6328125 463.350585938 384.188476562 419.797851562 384.188476562 367.87890625 c 2
 384.188476562 1.1787109375 l 1
 247.388671875 1.1787109375 l 1
 247.388671875 17.2880859375 l 1
 233.88671875 6.21484375 214.688476562 -6.4208984375 176.138671875 -6.4208984375 c 0
 130.5546875 -6.4208984375 93.068359375 9.00390625 68.1162109375 41.033203125 c 0
 43.751953125 72.3076171875 32.6884765625 114.385742188 32.6884765625 165.529296875 c 0
 32.6884765625 215.89453125 48.3974609375 257.578125 81.1064453125 287.016601562 c 0
 113.755859375 316.400390625 159.2578125 329.87890625 215.087890625 329.87890625 c 2
 239.788085938 329.87890625 l 1
 239.788085938 376.428710938 l 2
 239.788085938 411.251953125 222.4296875 413.479492188 210.337890625 413.479492188 c 0
208.438476562 123.727539062 m 0
 227.638671875 123.727539062 239.788085938 140.765625 239.788085938 168.37890625 c 2
 239.788085938 218.728515625 l 1
 228.388671875 218.728515625 l 2
 208.685546875 218.728515625 196.233398438 214.172851562 188.741210938 207.69140625 c 0
 182.356445312 202.169921875 177.087890625 191.18359375 177.087890625 170.278320312 c 0
 177.087890625 151.453125 181.008789062 139.5859375 185.928710938 133.15234375 c 0
 190.5703125 127.083007812 196.622070312 123.727539062 208.438476562 123.727539062 c 0
40.720703125 725.079101562 m 1
 204.7890625 725.079101562 l 1
 323.734375 561.678710938 l 1
 188.501953125 561.678710938 l 1
 40.720703125 725.079101562 l 1
EndSplineSet
EndChar

StartChar: aacute
Encoding: 225 225 162
Width: 408
GlyphClass: 2
Flags: MW
HStem: -6.4209 130.148<153.347 218.039> 218.729 111.15<218.537 228.389 228.389 239.788> 413.479 131.101<203.903 216.384>
VStem: 32.6885 144.399<160.866 180.731 160.866 190.712> 239.788 144.4<168.379 218.729 218.729 218.729 329.879 367.879 1.17871 376.429 1.17871 393.84>
LayerCount: 2
Fore
SplineSet
210.337890625 413.479492188 m 0
 197.46875 413.479492188 181.836914062 407.965820312 181.836914062 381.1796875 c 2
 181.836914062 356.479492188 l 1
 45.9873046875 356.479492188 l 1
 45.9873046875 377.379882812 l 2
 45.9873046875 429.922851562 61.0654296875 472.747070312 93.3916015625 502.134765625 c 0
 124.813476562 530.701171875 165.541015625 544.580078125 213.1875 544.580078125 c 0
 265.334960938 544.580078125 308.467773438 528.833007812 339.208984375 495.921875 c 0
 369.6328125 463.350585938 384.188476562 419.797851562 384.188476562 367.87890625 c 2
 384.188476562 1.1787109375 l 1
 247.388671875 1.1787109375 l 1
 247.388671875 17.2880859375 l 1
 233.88671875 6.21484375 214.688476562 -6.4208984375 176.138671875 -6.4208984375 c 0
 130.5546875 -6.4208984375 93.068359375 9.00390625 68.1162109375 41.033203125 c 0
 43.751953125 72.3076171875 32.6884765625 114.385742188 32.6884765625 165.529296875 c 0
 32.6884765625 215.89453125 48.3974609375 257.578125 81.1064453125 287.016601562 c 0
 113.755859375 316.400390625 159.2578125 329.87890625 215.087890625 329.87890625 c 2
 239.788085938 329.87890625 l 1
 239.788085938 376.428710938 l 2
 239.788085938 411.251953125 222.4296875 413.479492188 210.337890625 413.479492188 c 0
208.438476562 123.727539062 m 0
 227.638671875 123.727539062 239.788085938 140.765625 239.788085938 168.37890625 c 2
 239.788085938 218.728515625 l 1
 228.388671875 218.728515625 l 2
 208.685546875 218.728515625 196.233398438 214.172851562 188.741210938 207.69140625 c 0
 182.356445312 202.169921875 177.087890625 191.18359375 177.087890625 170.278320312 c 0
 177.087890625 151.453125 181.008789062 139.5859375 185.928710938 133.15234375 c 0
 190.5703125 127.083007812 196.622070312 123.727539062 208.438476562 123.727539062 c 0
221.587890625 725.079101562 m 1
 385.655273438 725.079101562 l 1
 237.875 561.678710938 l 1
 102.641601562 561.678710938 l 1
 221.587890625 725.079101562 l 1
EndSplineSet
EndChar

